<?xml version="1.0" standalone="no"?>
<!DOCTYPE svg PUBLIC "-//W3C//DTD SVG 20010904//EN"
 "http://www.w3.org/TR/2001/REC-SVG-20010904/DTD/svg10.dtd">
<svg version="1.0" xmlns="http://www.w3.org/2000/svg"
 width="225.000000pt" height="225.000000pt" viewBox="0 0 225.000000 225.000000"
 preserveAspectRatio="xMidYMid meet">

<g transform="translate(0.000000,225.000000) scale(0.100000,-0.100000)"
fill="#000000" stroke="none">
<path d="M290 1812 l0 -167 168 -168 167 -167 163 0 162 0 0 168 0 167 -168
168 -167 167 -163 0 -162 0 0 -168z"/>
<path d="M1703 1973 c48 -2 125 -2 170 0 45 1 6 3 -88 3 -93 0 -130 -2 -82 -3z"/>
<path d="M1780 1483 l-165 -168 168 165 c155 153 172 170 164 170 -1 0 -76
-75 -167 -167z"/>
<path d="M1294 1480 c0 -91 2 -128 3 -82 2 45 2 119 0 165 -1 45 -3 8 -3 -83z"/>
<path d="M942 810 l-2 -165 -162 -162 -163 -163 -165 -3 -165 -3 165 -2 165
-2 168 168 168 168 -4 164 -3 165 -2 -165z"/>
<path d="M1290 807 l0 -162 168 -168 167 -167 163 0 162 0 0 168 0 167 -163
163 -162 162 -168 0 -167 0 0 -163z"/>
</g>
</svg>
