<?xml version="1.0" standalone="yes"?>
<svg xmlns="http://www.w3.org/2000/svg" width="820" height="500">
<path style="fill:#f7f7f7; stroke:none;" d="M0 0L0 500L820 500L820 0L0 0z"/>
<path style="fill:#2a322e; stroke:none;" d="M434 46L419 60.5077L395 55C396.453 63.4465 400.922 82.1598 406.843 88.4113C410.502 92.2739 420.046 91.9444 425 92.7538C431.664 93.8426 442.327 97.5824 448.907 95.9684C456.31 94.1523 466.432 73.7845 469 67C462.329 67 448.644 69.0309 443.649 63.6821C439.016 58.7208 438.906 50.8964 434 46z"/>
<path style="fill:#cf5146; stroke:none;" d="M435 46L436 47L435 46M429 51L430 52L429 51M428 52L429 53L428 52M427 53L428 54L427 53M438 53L439 54L438 53M426 54L427 55L426 54M394 55L395 56L394 55M397 55L398 56L397 55M425 55L426 56L425 55M439 55L440 56L439 55M400 56L401 57L400 56M403 57L404 58L403 57M395 58L396 59L395 58M407 58L408 59L407 58M411 59L412 60L411 59z"/>
<path style="fill:#f7f7f7; stroke:none;" d="M432 59C422.034 69.8202 419.615 68.8176 406 66C407.769 70.5868 408.989 78.8178 412.702 82.142C417.155 86.1281 441.62 89.8994 446.816 86.9715C451.045 84.5881 454.001 78.2253 456 74L439.498 71.4005L432 59z"/>
<path style="fill:#cf5146; stroke:none;" d="M396 60L397 61L396 60M414 60L415 61L414 60M433 60L434 61L433 60M441 60L442 61L441 60M434 62L435 63L434 62M442 62L443 63L442 62M397 63L398 64L397 63M427 64L428 65L427 64M435 64L436 65L435 64M443 64L444 65L443 64M426 65L427 66L426 65M398 66L399 67L398 66M408 66L409 67L408 66M425 66L426 67L425 66M452 66L452 67L456 67L452 66M412 67L413 68L412 67M415 68L416 69L415 68M399 69L400 70L399 69M407 69L408 70L407 69M418 69L419 70L418 69M467 70L468 71L467 70M438 71L439 72L438 71M408 72L409 73L408 72M445 73L445 74L448 74L445 73M465 73L466 74L465 73M401 74L402 75L401 74M409 75L410 76L409 75M455 75L456 76L455 75M402 77L403 78L402 77M410 78L411 79L410 78M453 78L454 79L453 78M461 79L462 80L461 79M403 80L404 81L403 80M451 81L452 82L451 81M404 83L405 84L404 83M414 83L415 84L414 83M419.667 84.3333L420.333 84.6667L419.667 84.3333M449 84L450 85L449 84M426 85L427 86L426 85M432.667 86.3333L433.333 86.6667L432.667 86.3333M438.667 87.3333L439.333 87.6667L438.667 87.3333M447 87L448 88L447 87M456 87L457 88L456 87M445.667 88.3333L446.333 88.6667L445.667 88.3333M411 90L412 91L411 90M454 90L455 91L454 90M416 91L417 92L416 91M423 92L424 93L423 92M429 93L430 94L429 93M452 93L453 94L452 93M435.667 94.3333L436.333 94.6667L435.667 94.3333M247 95L247 143L247.309 163.985L264 183L298 218L315.039 234.397L349 235L326.039 209L298 180L312.335 196.572L346 234L317 233.397L299.004 217L261.576 178L248.603 163L248 142L248 96L293 96L313 96.6034L325 107L349 133L348 134L341 131C343.633 135.172 347.544 135.302 352 134L327.001 107L313.996 95.5887L293 95L247 95M442 95L443 96L442 95z"/>
<path style="fill:#f92a19; stroke:none;" d="M248 96L248 143L248.603 164L260.715 178L298.015 217L316 233.397L346 234C336.048 212.533 308.008 200.99 298.228 179.83C295.185 173.246 297 163.11 297 156C297 149.874 293.388 125.183 303.005 126.272C313.877 127.503 324.23 137.27 325.79 148C326.427 152.379 324.553 158.729 327.028 162.61C328.867 165.493 333.126 166.754 336 168.309C342.809 171.992 355.955 183.051 363.961 181.516C369.112 180.529 374.715 174.912 379 172L379 170C371.2 165.719 373.628 156.153 366.995 150.062C361.79 145.283 357.009 148.465 351.015 146.271C344.706 143.961 341.324 137.406 338 132L348 134L349 133L325 106L314 96.6034L293 96L248 96z"/>
<path style="fill:#cf5146; stroke:none;" d="M447.667 96.3333L448.333 96.6667L447.667 96.3333M450 96L451 97L450 96z"/>
<path style="fill:#2a322e; stroke:none;" d="M388 98C386.249 106.462 379.717 117.368 381.779 126C385.688 142.369 402.206 142.883 409 129C415.528 150.146 393.334 150.375 379 149C373.852 156.814 370.602 168.025 383 170C378.353 173.847 369.133 182.193 363 182.635C354.805 183.226 342.044 172.579 335 168.77C332.073 167.187 327.835 165.711 326.028 162.737C323.121 157.954 325.743 150.353 324.468 145C321.767 133.665 308.617 127.437 298 126L298 164C298 169.257 296.754 176.329 299.589 181C308.743 196.085 325.324 208.908 337.17 222C340.205 225.355 350.576 232.618 348.833 237.91C347.428 242.173 340.413 245.8 337 248.374C331.94 252.192 323.492 261.954 317 262.444C312.44 262.787 307.37 258.029 303 256.789C289.972 253.091 278.29 261.073 272 272C282.308 277.717 292.159 284.512 302 290.997C305.85 293.534 311.174 298.26 316 298.204C336.289 297.97 355.628 278.369 376 278.369C383.097 278.369 389.832 283.121 396 286L396 287C371.936 298.987 352.695 335.82 379 356L379 357C372.566 362.896 369.621 374.776 361.907 378.972C356.125 382.117 347.349 379.183 341 380.329C328.954 382.505 325.087 396.457 325 407C337.651 407.001 350.293 408 363 408C367.16 408 373.83 409.277 377.24 406.397C381.698 402.631 384.782 395.827 388 391C394.418 381.373 402.648 371.577 407.404 361C410.111 354.979 407.248 349.035 411.8 343.171C415.697 338.151 431.674 326.829 438.561 328.662C454.126 332.804 447.997 360.047 449.174 371C451 387.997 465.127 399.806 480 406C472.685 423.565 462.771 413.329 449.015 419.228C439.822 423.171 436.396 435.914 436 445C447.928 446.507 459.98 446 472 446C476.614 446 483.489 447.264 487.787 445.397C492.939 443.159 495.873 433.548 498.684 429C508.247 413.527 523.953 392.688 528 375C523.032 375.187 516.454 375.851 512.419 372.297C508.508 368.852 508.062 361.835 508.004 357C507.86 345.004 508 332.997 508 321C508 314.666 505.593 300.729 509.028 295.394C511.83 291.04 519.91 288.979 523.999 285.686C534.866 276.935 543.151 264.077 544.83 250C548.344 220.544 529.838 190.772 497 200C490.664 175.513 500.365 143.485 531 144.019C536.682 144.118 540.903 146.962 546 149L546 152C539.217 155.107 523.239 165.943 520.643 173.17C515.565 187.303 533.471 198.903 545 199L545 193L560 209L560 171C559.998 135.744 518.991 125.397 497.518 152.015C490.151 161.147 486.304 173.268 487.09 185C487.449 190.367 490.977 198.642 488.976 203.715C487.096 208.481 483.037 211.608 482.213 217C479.705 233.41 490.993 245.47 507 238C510.388 250.057 510.994 261.87 507.572 274C506.5 277.799 505.428 283.774 501.775 285.972C497.521 288.533 490.411 286.226 486 285.104C468.874 280.747 455.339 267.518 451.808 250C450.844 245.219 449.142 238.811 450.434 234C452.14 227.652 459.246 222.337 462.961 217C469.434 207.7 473.77 197.697 477.333 187C481.031 175.899 484.575 162.815 483.907 151C483.52 144.165 480.897 137.71 480.39 131C479.619 120.81 480.815 110.326 480 100L457 108.552L388 98z"/>
<path style="fill:#cf5146; stroke:none;" d="M394 98L395 99L394 98M387 100L388 101L387 100M405 100L406 101L405 100M478 100L479 101L478 100M480 100L480 105L481 105L480 100M411 101L412 102L411 101M474 101L475 102L474 101M416.667 102.333L417.333 102.667L416.667 102.333M470 102L471 103L470 102M423.667 103.333L424.333 103.667L423.667 103.333M468 103L469 104L468 103M386 104L387 105L386 104M429.667 104.333L430.333 104.667L429.667 104.333M435.667 105.333L436.333 105.667L435.667 105.333M393 106L394 107L393 106z"/>
<path style="fill:#f7f7f7; stroke:none;" d="M394 106C391.735 111.116 388.025 119.326 389.448 124.996C390.448 128.981 396.385 134.378 399.86 129.678C402.177 126.546 401.969 121.69 402 118C420.156 123.304 423.714 146.765 405 155.196C397.68 158.494 384.21 153.27 381 162C407.924 166.998 441.759 142.451 443 114L427 112L427 113L435 117L435 119L423 126L419.062 111.589L394 106z"/>
<path style="fill:#cf5146; stroke:none;" d="M396.667 106.333L397.333 106.667L396.667 106.333M442 106L443 107L442 106M462 106L463 107L462 106M385 107L386 108L385 107M402 107L403 108L402 107M448 107L449 108L448 107M408 108L409 109L408 108M454 108L455 109L454 108M392 109L393 110L392 109M414 109L415 110L414 109M384 110L385 111L384 110M470 110L471 111L470 110z"/>
<path style="fill:#f7f7f7; stroke:none;" d="M467 112L474 120L474 110L467 112z"/>
<path style="fill:#cf5146; stroke:none;" d="M427 111L428 112L427 111M468 111L469 112L468 111M432.667 112.333L433.333 112.667L432.667 112.333M466.333 112.667L466.667 113.333L466.333 112.667M428 113L429 114L428 113M438.667 113.333L439.333 113.667L438.667 113.333M420 114L421 115L420 114M390 116L391 117L390 116M433 116L434 117L433 116M450 116L451 117L450 116z"/>
<path style="fill:#f7f7f7; stroke:none;" d="M396 209L388 212L389 177C371.838 182.433 371.418 205.953 375 221L368 225C365.835 213.347 365.831 202.644 368 191C338.48 211.797 361.942 244.615 377 267L382 244L390 243L386 265C399.839 261.015 400.384 250.779 402 238L409 236L407 255C411.249 252.738 416.133 250.43 418.431 245.96C422.351 238.338 419.907 232.014 429 228L428 241C456.381 222.23 475.998 188.332 476 154C476.001 140.939 472.137 120.814 457.001 116.728C448.788 114.512 442.882 137.921 437.699 144C431.004 151.852 422.908 158.229 414 163.384C409.406 166.043 402.356 167.507 398.854 171.637C392.326 179.339 393.832 199.893 396 209z"/>
<path style="fill:#cf5146; stroke:none;" d="M456.667 116.333L457.333 116.667L456.667 116.333M382 117L383 118L382 117M470 117L471 118L470 117M402.667 118.333L403.333 118.667L402.667 118.333M421 118L422 119L421 118M389 119L390 120L389 119M407 119L408 120L407 119M442 119L443 120L442 119M381 120L382 121L381 120M409 120L410 121L409 120M431 120L432 121L431 120M473 120L474 121L473 120M449 121L450 122L449 121M464 121L465 122L464 121M388.333 122.667L388.667 123.333L388.333 122.667M412 122L413 123L412 122M422 122L423 123L422 122M414 124L415 125L414 124M300 125L300 126L305 127L305 126L300 125M381 125L382 126L381 125M401.333 125.667L401.667 126.333L401.333 125.667M424 125L425 126L424 125M440 125L441 126L440 125M389 126L390 127L389 126M468 126L469 127L468 126M297 127L297 179L298 179L298 144L297 127M305 127L305 128L321 139L322 139C319.995 132.007 311.765 128.206 305 127M447 127L448 128L447 127M469 127L470 128L469 127M480.333 127.667L480.667 128.333L480.333 127.667M382 128L383 129L382 128M400 129L401 130L400 129M408 129L409 130L408 129M446 130L447 131L446 130M394 131L395 132L394 131M417.333 131.667L417.667 132.333L417.333 131.667M338 132C345.132 148.526 358.407 145.147 371 154L366 145L366 144C349.428 147.788 349.622 140.438 338 132z"/>
<path style="fill:#2a322e; stroke:none;" d="M340 132C344.227 153.848 366.806 142.833 381 141C370.112 127.127 353.595 138.026 340 132z"/>
<path style="fill:#cf5146; stroke:none;" d="M384 132L385 133L384 132M397 132L398 133L397 132M445 132L446 133L445 132M356 133L356 134L359 134L356 133M369 133L370 134L369 133M410 133L410 137L411 137L410 133M436 133L437 134L436 133M372 134L373 135L372 134M444 134L445 135L444 134M374 135L375 136L374 135M405 135L406 136L405 135M473 135L474 136L473 135z"/>
<path style="fill:#f7f7f7; stroke:none;" d="M305 136C305 147.503 301.631 165.237 305.742 176C307.875 181.582 313.944 185.742 317.91 190C326.513 199.235 334.657 210.714 345 218C345.254 205.781 352.367 199.397 357 189C347.404 184.865 338.092 179.164 329 174C325.575 172.055 320.102 170.243 318.042 166.671C316.323 163.689 317.907 159.252 317.985 156C318.226 146.017 314.689 139.554 305 136z"/>
<path style="fill:#cf5146; stroke:none;" d="M376 136L377 137L376 136M388 136L389 137L388 136M434 136L435 137L434 136M481 136L482 137L481 136M528 136L528 137L533 137L528 136M308 137L309 138L308 137M417.333 137.667L417.667 138.333L417.333 137.667M521.667 137.333L522.333 137.667L521.667 137.333M538 137L539 138L538 137M310 138L311 139L310 138M391 138L392 139L391 138M402 138L403 139L402 138M518 138L519 139L518 138M541 138L542 139L541 138M322 139L323 140L322 139M394 139L395 140L394 139M400 139L401 140L400 139M441 139L442 140L441 139M482 139L483 140L482 139M515 139L516 140L515 139M543 139L544 140L543 139M323.333 140.667L323.667 141.333L323.333 140.667M381 140L382 141L381 140M431 140L432 141L431 140M512 140L513 141L512 140M545 140L546 141L545 140M377 141L378 142L377 141M430 141L431 142L430 141M475.333 141.667L475.667 142.333L475.333 141.667M372 142L373 143L372 142M429 142L430 143L429 142M548 142L549 143L548 142M324.333 143.667L324.667 144.333L324.333 143.667M368 143L369 144L368 143M438 143L439 144L438 143M507 143L508 144L507 143M549 143L550 144L549 143M316 144L317 145L316 144M407 144L408 145L407 144M427 144L428 145L427 144M524 144L525 145L524 144M536 144L537 145L536 144M325 145C325 150.75 322.432 162.82 329 165L329 164L325 145M415 145L416 146L415 145M426 145L427 146L426 145M483 145L483 148L484 148L483 145M520 145L521 146L520 145M317 146L318 147L317 146M425 146L426 147L425 146M503 146L504 147L503 146M517 146L518 147L517 146M541 146L542 147L541 146M404 147L405 148L404 147M414 147L415 148L414 147M424 147L425 148L424 147M515 147L516 148L515 147M553 147L554 148L553 147M402 148L403 149L402 148M476 148L476 157L477 157L476 148M513 148L514 149L513 148M380 149L381 150L380 149M384 149L384 150L400 150L384 149M545 149L546 150L545 149M420 150L421 151L420 150M510 150L511 151L510 150M555 150L556 151L555 150M377 151L378 152L377 151M545 151L546 152L545 151M507 152L508 153L507 152M416 153L417 154L416 153M496 153L497 154L496 153M506 153L507 154L506 153M371 154L373 156L373 154L371 154M375 154L376 155L375 154M407 154L408 155L407 154M427 154L428 155L427 154M505 154L506 155L505 154M504 155L505 156L504 155M540 155L541 156L540 155M373 156C373.001 161.02 372.186 166.188 377 169L375 156L373 156M401 156L402 157L401 156M411 156L412 157L411 156M494 156L495 157L494 156M539 156L540 157L539 156M558 156L559 157L558 156M382 157L383 158L382 157M409 157L410 158L409 157M483 157L483 161L484 161L483 157z"/>
<path style="fill:#f7f7f7; stroke:none;" d="M550 157C543.864 162.357 532.932 168.08 529.042 175.286C525.516 181.82 533.333 188.853 539 190L540 174C548.917 174.29 548.789 182.134 552 189L553 189C553 179.893 555.901 164.499 550 157z"/>
<path style="fill:#cf5146; stroke:none;" d="M407 158L408 159L407 158M548 158L549 159L548 158M381 159L382 160L381 159M405 159L406 160L405 159M547 159L548 160L547 159M403 160L404 161L403 160M500 160L501 161L500 160M534 160L535 161L534 160M559 160L560 161L559 160M317 161L317 166L318 166L317 161M401 161L402 162L401 161M417 161L418 162L417 161M491 161L492 162L491 161M533 161L534 162L533 161M552.333 161.667L552.667 162.333L552.333 161.667M382.667 162.333L383.333 162.667L382.667 162.333M499 162L500 163L499 162M393.667 163.333L394.333 163.667L393.667 163.333M396 163L397 164L396 163M542 163L543 164L542 163M412 164L413 165L412 164M475.333 164.667L475.667 165.333L475.333 164.667M541 164L542 165L541 164M329 165L329 166L349 176L349 175L329 165M410 165L411 166L410 165M528 165L529 166L528 165M482.333 166.667L482.667 167.333L482.333 166.667M489 166L490 167L489 166M497 166L498 167L497 166M317 167L318 168L317 167M536 168L537 169L536 168M320 169L321 170L320 169M377 169L377 170L379 172L371 178L383 170L377 169M523 169L524 170L523 169M322 170L323 171L322 170M474 170L475 171L474 170M522 170L523 171L522 170M481.333 171.667L481.667 172.333L481.333 171.667M495.333 171.667L495.667 172.333L495.333 171.667M531 172L532 173L531 172M397 173L398 174L397 173M530 173L531 174L530 173M329 174L330 175L329 174M473 174L474 175L473 174M540 174L540 175L547 175L540 174M331 175L332 176L331 175M487.333 175.667L487.667 176.333L487.333 175.667M547.333 175.667L547.667 176.333L547.333 175.667M305 176L306 177L305 176M333 176L334 177L333 176M349 176L349 177L360 182L360 181L349 176M388 176L389 177L388 176M480 176L481 177L480 176M527 176L528 177L527 176M396 177L397 178L396 177M494.333 177.667L494.667 178.333L494.333 177.667M520.333 177.667L520.667 178.333L520.333 177.667M368 180L371 178L368 180M472 178L473 179L472 178M383 179L384 180L383 179M388 179L389 180L388 179M539 179L539 182L540 182L539 179M340 180L341 181L340 180M367 180L368 181L367 180M479 180L480 181L479 180M528 180L529 181L528 180M548 180L549 181L548 180M342 181L343 182L342 181M360 182L360 183L367 182L360 182M395.333 181.667L395.667 182.333L395.333 181.667M471 181L472 182L471 181M344 182L345 183L344 182M378 182L379 183L378 182M521 182L522 183L521 182M478 183L479 184L478 183M549 183L550 184L549 183M470 184L471 185L470 184M494 184L494 187L495 187L494 184M530 184L531 185L530 184M387 185L387 189L388 189L387 185M550 185L551 186L550 185M351 186L352 187L351 186M376 186L377 187L376 186M477 186L478 187L477 186M353 187L354 188L353 187M469 187L470 188L469 187M316 188L317 189L316 188M487 188L487 191L488 191L487 188M317 189L318 190L317 189M476 189L477 190L476 189M535 189L536 190L535 189M318 190L319 191L318 190M375 190L376 191L375 190M394 190L394 198L395 198L394 190M468 190L469 191L468 190M537.667 190.333L538.333 190.667L537.667 190.333M319 191L320 192L319 191M366 191L367 192L366 191M526 191L527 192L526 191M320 192L321 193L320 192M365 192L366 193L365 192M475 192L476 193L475 192M527 192L528 193L527 192M364 193L365 194L364 193M495 193L496 194L495 193M528 193L529 194L528 193M545 193L546 194L545 193M353 194L354 195L353 194M363 194L364 195L363 194M362 195L363 196L362 195M374 195L375 196L374 195M466 195L467 196L466 195M474 195L475 196L474 195M488.333 195.667L488.667 196.333L488.333 195.667M545 195L546 196L545 195M361 196L362 197L361 196M548 196L549 197L548 196M360 197L361 198L360 197M465 197L466 198L465 197M473 197L474 198L473 197M350 198L351 199L350 198M496 198L497 199L496 198M502 198L503 199L502 198M514 198L515 199L514 198M537 198L538 199L537 198M497.667 199.333L498.333 199.667L497.667 199.333M518 199L519 200L518 199M542 199L542 200L545 200L542 199M550 199L551 200L550 199M366 200L366 204L367 204L366 200M489 200L490 201L489 200M521 200L522 201L521 200M551 200L552 201L551 200M357 201L358 202L357 201M387 201L387 204L388 204L387 201M463 201L464 202L463 201M348 202L349 203L348 202M330 203L331 204L330 203M462 203L463 204L462 203M527 203L528 204L527 203M331 204L332 205L331 204M347 204L348 205L347 204M470 204L471 205L470 204M489 204L490 205L489 204M332 205L333 206L332 205M461 205L462 206L461 205M504.667 205.333L505.333 205.667L504.667 205.333z"/>
<path style="fill:#f7f7f7; stroke:none;" d="M500 207C502.581 215.94 509.052 223.347 512.547 232C519.266 248.636 518.361 267.488 512 284C533.029 277.285 541.888 248.714 537.1 229C533.054 212.339 516.763 201.325 500 207z"/>
<path style="fill:#cf5146; stroke:none;" d="M511.667 205.333L512.333 205.667L511.667 205.333M530 205L531 206L530 205M333 206L334 207L333 206M500 206L501 207L500 206M516 206L517 207L516 206M531 206L532 207L531 206M334 207L335 208L334 207M346 207L347 208L346 207M395 207L396 208L395 207M486 207L487 208L486 207M459 208L460 209L459 208M558 208L559 209L558 208M353 209L354 210L353 209M467 209L468 210L467 209M523 209L524 210L523 209M559 209L560 210L559 209M388.333 210.667L388.667 211.333L388.333 210.667M484 210L485 211L484 210M345.333 211.667L345.667 212.333L345.333 211.667M366 211L366 215L367 215L366 211M466 211L467 212L466 211M492.667 211.333L493.333 211.667L492.667 211.333M501 211L502 212L501 211M526 211L527 212L526 211M483 212L484 213L483 212z"/>
<path style="fill:#f7f7f7; stroke:none;" d="M492 212C489.22 216.963 487.061 224.692 490.742 229.867C493.087 233.162 501.506 235.967 502.353 229.867C503.155 224.098 496.196 217.09 494 212L492 212z"/>
<path style="fill:#cf5146; stroke:none;" d="M527 212L528 213L527 212M494 213L495 214L494 213M455 214L456 215L455 214M464 214L465 215L464 214M490 214L491 215L490 214M352 215L352 218L353 218L352 215M495 215L496 216L495 215M530 215L531 216L530 215M489 216L490 217L489 216M504 216L505 217L504 216M462 217L463 218L462 217M496 217L497 218L496 217M540 217L541 218L540 217M344 218L345 219L344 218M374.333 219.667L374.667 220.333L374.333 219.667M451 219L452 220L451 219M481 219L481 225L482 225L481 219M506 219L507 220L506 219M533 219L534 220L533 219M541 219L542 220L541 219M450 220L451 221L450 220M488 220L488 224L489 224L488 220M373 221L374 222L373 221M459 221L460 222L459 221M534 221L535 222L534 221M367 222L368 223L367 222M458 222L459 223L458 222M542 222L543 223L542 222M353 223L354 224L353 223M535 223L536 224L535 223M501 225L502 226L501 225M543 225L544 226L543 225M354 226L355 227L354 226M536 226L537 227L536 226M454 227L455 228L454 227M502 227L503 228L502 227M427 228L428 229L427 228M453 228L454 229L453 228M425 229L426 230L425 229M452 229L453 230L452 229M482 229L483 230L482 229M544 229L545 230L544 229M423 230L424 231L423 230M451 230L452 231L451 230M537 230L538 231L537 230M356 231L357 232L356 231M502 231L503 232L502 231M512 231L513 232L512 231M421.333 232.667L421.667 233.333L421.333 232.667M450 232L450 242L451 242L450 232M357 233L358 234L357 233M437 233L438 234L437 233M495 233L496 234L495 233M499 233L500 234L499 233M436 234L437 235L436 234M513 234L514 235L513 234M428.333 235.667L428.667 236.333L428.333 235.667M545 235L545 240L546 240L545 235M408 236L409 237L408 236M486 236L487 237L486 236M432 237L433 238L432 237M514 237L515 238L514 237M538 237L538 245L539 245L538 237M360 238L361 239L360 238M402 238L403 239L402 238M431 238L432 239L431 238M505 238L506 239L505 238M420 239L421 240L420 239z"/>
<path style="fill:#f7f7f7; stroke:none;" d="M442 239C426.539 253.787 407.158 263.922 388 273C394.011 277.98 401.687 281.126 408 285.898C424.69 298.514 443.64 316.691 454.146 335C459.148 343.717 455.371 358.236 456.09 368C457.383 385.546 474.481 398.765 491 401C489.069 407.564 482.69 422.763 475.957 425.397C463.784 430.157 448.337 419.29 445 438C455.601 438 474.076 441.615 483.787 437.397C488.451 435.37 491.063 427.17 493.424 423C500.915 409.771 510.797 396.293 516 382C506.248 380.113 501.742 371.296 501.09 362C499.539 339.892 501 317.166 501 295C478.988 294.055 457.756 283.8 448.312 263C444.814 255.294 445.236 246.501 442 239z"/>
<path style="fill:#cf5146; stroke:none;" d="M504 239L505 240L504 239M507 239L508 240L507 239M347 240L348 241L347 240M493 240L494 241L493 240M501 240L502 241L501 240M401.333 241.667L401.667 242.333L401.333 241.667M515 241L516 242L515 241M438 242L439 243L438 242M343 243L344 244L343 243M363 243L364 244L363 243M385 243L386 244L385 243M389 243L389 246L390 246L389 243M437 243L438 244L437 243M508 243L509 244L508 243M545 243L545 247L546 247L545 243M342 244L343 245L342 244M354.667 244.333L355.333 244.667L354.667 244.333M382 244L383 245L382 244M443.333 244.667L443.667 245.333L443.333 244.667z"/>
<path style="fill:#f7f7f7; stroke:none;" d="M283 270L315 289.461L331 285.333L370 272C369.073 268.096 367.575 264.57 365.741 261C363.695 257.019 360 248.006 355.671 246.175C352.12 244.673 347.51 249.709 345 251.65C338.128 256.967 326.677 270.21 318 271.562C313.938 272.196 309.401 267.871 306 266.131C297.766 261.918 289.101 262.643 283 270z"/>
<path style="fill:#cf5146; stroke:none;" d="M408.333 245.667L408.667 246.333L408.333 245.667M365 246L366 247L365 246M418 246L419 247L418 246M433 246L434 247L433 246M516.333 246.667L516.667 247.333L516.333 246.667M338 247L339 248L338 247M357 247L358 248L357 247M349 248L350 249L349 248M400.333 248.667L400.667 249.333L400.333 248.667M451 248L452 249L451 248M367 249L368 250L367 249M429 249L430 250L429 249M509.333 249.667L509.667 250.333L509.333 249.667M334 250L335 251L334 250M381.333 250.667L381.667 251.333L381.333 250.667M414 250L415 251L414 250M345 251L346 252L345 251M407 251L408 252L407 251M426 251L427 252L426 251M444 251L445 252L444 251M537 251L538 252L537 251M360 252L361 253L360 252M544 252L545 253L544 252M330 253L331 254L330 253M388.333 253.667L388.667 254.333L388.333 253.667M399 253L400 254L399 253M409 253L410 254L409 253M423 253L424 254L423 253M452 253L453 254L452 253M329 254L330 255L329 254M370 254L371 255L370 254M294 255L294 256L298 256L294 255M340 255L341 256L340 255M362 255L363 256L362 255M420 255L421 256L420 255M445 255L446 256L445 255M290 256L291 257L290 256M302 256L303 257L302 256M380 256L381 257L380 256M398 256L399 257L398 256M453 256L454 257L453 256M543 256L544 257L543 256M287 257L288 258L287 257M305 257L306 258L305 257M325 257L326 258L325 257M417 257L418 258L417 257M307 258L308 259L307 258M336 258L337 259L336 258M387 258L388 259L387 258M416 258L417 259L416 258M283 259L284 260L283 259M309 259L310 260L309 259M335 259L336 260L335 259M414 259L415 260L414 259M542 259L543 260L542 259M321 260L322 261L321 260M365 260L366 261L365 260M379 260L380 261L379 260M534 260L535 261L534 260M280 261L281 262L280 261M320 261L321 262L320 261M332 261L333 262L332 261M394 261L395 262L394 261M447 261L448 262L447 261M455 261L456 262L455 261M279 262L280 263L279 262M314 262L315 263L314 262M331 262L332 263L331 262M366 262L367 263L366 262M374 262L375 263L374 262M386 262L387 263L386 262M392 262L393 263L392 262M533 262L534 263L533 262M541 262L542 263L541 262M293 263L294 264L293 263M299 263L300 264L299 263M378 263L379 264L378 263M390 263L391 264L390 263M407 263L408 264L407 263M277 264L278 265L277 264M302 264L303 265L302 264M367 264L368 265L367 264M375 264L376 265L375 264M388 264L389 265L388 264M405 264L406 265L405 264M509.333 264.667L509.667 265.333L509.333 264.667M532 264L533 265L532 264M540 264L541 265L540 264M276 265L277 266L276 265M327 265L328 266L327 265M403 265L404 266L403 265M286 266L287 267L286 266M306 266L307 267L306 266M377 266L378 267L377 266M401 266L402 267L401 266M458 266L459 267L458 266M531 266L532 267L531 266M376 267L377 268L376 267M399 267L400 268L399 267M516.333 267.667L516.667 268.333L516.333 267.667M323 268L324 269L323 268M397 268L398 269L397 268M538 268L539 269L538 268M273 269L274 270L273 269M311 269L312 270L311 269M322 269L323 270L322 269M369 269L370 270L369 269M395 269L396 270L395 269M451 269L452 270L451 269M460 269L461 270L460 269M529 269L530 270L529 269M284 270L285 271L284 270M393 270L394 271L393 270M508 270L509 271L508 270M537 270L538 271L537 270M391 271L392 272L391 271M273 272L274 273L273 272M287 272L288 273L287 272M316 272L317 273L316 272M318 272L319 273L318 272M388 272L389 273L388 272M453 272L454 273L453 272M515 273L516 274L515 273M535 273L536 274L535 273M276 274L277 275L276 274M290 274L291 275L290 274M525 274L526 275L525 274M359 275L360 276L359 275M524 275L525 276L524 275M293 276L294 277L293 276M356 276L357 277L356 276M467 276L468 277L467 276M523 276L524 277L523 276M281 277L282 278L281 277M353 277L354 278L353 277M457 277L458 278L457 277M514 277L515 278L514 277M532 277L533 278L532 277M350 278L351 279L350 278M373 278L374 279L373 278M377.667 278.333L378.333 278.667L377.667 278.333M397 278L398 279L397 278M458 278L459 279L458 278M470 278L471 279L470 278M531 278L532 279L531 278M284 279L285 280L284 279M298 279L299 280L298 279M347 279L348 280L347 279M370 279L371 280L370 279M459 279L460 280L459 279M344 280L345 281L344 280M367 280L368 281L367 280M473 280L474 281L473 280M513 280L514 281L513 280M287 281L288 282L287 281M301 281L302 282L301 281M364 281L365 282L364 281M387 281L388 282L387 281M475 281L476 282L475 281M528 281L529 282L528 281M339 282L340 283L339 282M389 282L390 283L389 282M527 282L528 283L527 282M304 283L305 284L304 283M336 283L337 284L336 283M359 283L360 284L359 283M391 283L392 284L391 283M464 283L465 284L464 283M480 283L481 284L480 283M504 283L505 284L504 283M526 283L527 284L526 283M333 284L334 285L333 284M356 284L357 285L356 284M406 284L407 285L406 284M483 284L484 285L483 284M525 284L526 285L525 284M330 285L331 286L330 285M353 285L354 286L353 285M467 285L468 286L467 285M487 285L488 286L487 285M503 285L504 286L503 285M295 286L296 287L295 286M327 286L328 287L327 286M350 286L351 287L350 286M492.667 286.333L493.333 286.667L492.667 286.333M324 287L325 288L324 287M347 287L348 288L347 287M410 287L411 288L410 287M521 287L522 288L521 287M298 288L299 289L298 288M312 288L313 289L312 288M411 288L412 289L411 288M475 289L476 290L475 289M518 289L519 290L518 289M301 290L302 291L301 290M315.667 290.333L316.333 290.667L315.667 290.333M339 290L340 291L339 290M390 290L391 291L390 290M477 290L478 291L477 290M516 290L517 291L516 290M336 291L337 292L336 291M480 291L481 292L480 291M304 292L305 293L304 292M333 292L334 293L333 292M416 292L417 293L416 292M484 292L485 293L484 292M512 292L513 293L512 292M330 293L331 294L330 293M399.667 293.333L400.333 293.667L399.667 293.333M417 293L418 294L417 293M488.667 293.333L489.333 293.667L488.667 293.333M327 294L328 295L327 294M385 294L386 295L385 294z"/>
<path style="fill:#f7f7f7; stroke:none;" d="M334 400C343.651 400 364.375 403.952 372.674 398.972C376.333 396.777 378.697 391.455 381 388C387.159 378.761 396.569 368.503 400.273 358C402.139 352.709 400.713 347.195 403.558 342C407.268 335.224 414.248 332.585 419 327C408.338 319.485 402.712 306.701 401 294C385.075 297.776 369.67 320.813 374.916 337C376.92 343.185 386.464 350.009 386.402 356C386.323 363.548 374.559 375.882 370.329 381.995C360.883 395.648 336.213 378.512 334 400z"/>
<path style="fill:#cf5146; stroke:none;" d="M418 294L419 295L418 294M495.667 294.333L496.333 294.667L495.667 294.333M508 294L508 299L509 299L508 294M309 295L310 296L309 295M324 295L325 296L324 295M384 295L385 296L384 295M396 295L397 296L396 295M419 295L420 296L419 295M383 296L384 297L383 296z"/>
<path style="fill:#f7f7f7; stroke:none;" d="M409 296C411.098 310.203 417.783 321.99 433 322C429.721 312.356 417.197 301.774 409 296z"/>
<path style="fill:#cf5146; stroke:none;" d="M312 297L313 298L312 297M382 297L383 298L382 297M393 297L394 298L393 297M401 297L402 298L401 297M316 298L317 299L316 298M381 298L382 299L381 298M392 298L393 299L392 298M380 299L381 300L380 299M409 299L410 300L409 299M379 300L380 301L379 300M508 300L508 303L509 303L508 300M402 301L403 302L402 301M410 302L411 303L410 302M403 304L404 305L403 304M508 304L509 305L508 304M375 305L376 306L375 305M411 305L412 306L411 305z"/>
<path style="fill:#0594eb; stroke:none;" d="M508 306L509 307L508 306z"/>
<path style="fill:#cf5146; stroke:none;" d="M383 307L384 308L383 307M404 307L405 308L404 307M412 307L413 308L412 307M431 307L432 308L431 307z"/>
<path style="fill:#0594eb; stroke:none;" d="M528 375C523.299 387.913 514.337 399.922 507.769 412C505.723 415.764 500.861 421.513 501.241 426C501.727 431.756 514.793 443.477 520 445.397C525.924 447.581 534.738 446 541 446L588 446L588 397C588 391.035 589.703 381.919 587.142 376.424C584.378 370.494 577.549 365.549 573 361C563.824 351.824 555.167 342.171 546 333C538.959 325.957 522.512 301.604 510.318 307.603C505.481 309.983 508 326.308 508 331C508 340.746 503.604 366.24 512.419 372.91C516.497 375.996 523.225 375.398 528 375z"/>
<path style="fill:#cf5146; stroke:none;" d="M432 308L433 309L432 308M433 309L434 310L433 309M434 310L435 311L434 310M371 311L372 312L371 311M380 311L381 312L380 311M406 312L407 313L406 312M415 313L416 314L415 313M407 314L408 315L407 314M377 315L378 316L377 315M416 315L417 316L416 315M408 316L409 317L408 316M376 317L377 318L376 317M440 317L441 318L440 317M441 318L442 319L441 318M367 319L368 320L367 319M375 319L376 320L375 319M410 319L411 320L410 319M432 319L433 320L432 319M421 320L422 321L421 320M423 321L424 322L423 321M374 322L375 323L374 322M366 323L367 324L366 323M445 323L446 324L445 323M446 324L447 325L446 324M373 326L373 332L374 332L373 326M418 328L419 329L418 328M449 328L450 329L449 328M450 329L451 330L450 329M415 330L416 331L415 330M431 330L432 331L431 330M441 330L442 331L441 330M413 331L414 332L413 331M429 331L430 332L429 331M442 331L443 332L442 331M427 332L428 333L427 332M366.333 333.667L366.667 334.333L366.333 333.667M410 333L411 334L410 333M425 333L426 334L425 333M453 333L454 334L453 333M423 334L424 335L423 334M445 335L446 336L445 335M455 336L456 337L455 336M417 337L418 338L417 337M367 338L368 339L367 338M375 338L376 339L375 338M416 338L417 339L416 338M448 339L448 368L449 368L448 339M403 341L404 342L403 341M412 341L413 342L412 341M377 342L378 343L377 342M369 343L370 344L369 343M402 343L403 344L402 343M379 345L380 346L379 345M401 347L402 348L401 347M408.333 349.667L408.667 350.333L408.333 349.667M374 351L375 352L374 351M408 354L408 357L409 357L408 354M378 356L379 357L378 356M376 359L377 360L376 359M385 359L386 360L385 359M408 359L409 360L408 359M374 362L375 363L374 362M383 362L384 363L383 362M397 362L398 363L397 362M406 362L407 363L406 362M372 365L373 366L372 365M381 365L382 366L381 365M404 365L405 366L404 365M501 365L502 366L501 365M370 368L371 369L370 368M379 368L380 369L379 368M392 370L393 371L392 370M502 370L503 371L502 370M368 371L369 372L368 371M377 371L378 372L377 371M456 371L457 372L456 371M390 373L391 374L390 373M449 373L450 374L449 373M366 374L367 375L366 374M375 374L376 375L375 374M504 374L505 375L504 374M388 376L389 377L388 376M364 377L365 378L364 377M373 377L374 378L373 377M450 377L451 378L450 377M458 377L459 378L458 377M506 377L507 378L506 377M507 378L508 379L507 378M386 379L387 380L386 379M459 379L460 380L459 379M339 380L340 381L339 380M371 380L372 381L371 380M451 380L452 381L451 380M510 380L511 381L510 380M336 381L337 382L336 381M460 381L461 382L460 381M512 381L513 382L512 381M384 382L385 383L384 382M393 382L394 383L393 382M452 382L453 383L452 382M333 383L334 384L333 383M369 383L370 384L369 383M332 384L333 385L332 384M462 384L463 385L462 384M382 385L383 386L382 385M463 385L464 386L463 385M514 385L515 386L514 385M367 386L368 387L367 386M342 387L342 388L348 388L342 387M455 387L456 388L455 387M513 387L514 388L513 387M329 388L330 389L329 388M380 388L381 389L380 388M389 388L390 389L389 388M328 390L329 391L328 390M337 390L338 391L337 390M336 391L337 392L336 391M378 391L379 392L378 391M387 391L388 392L387 391M458 391L459 392L458 391M469 391L470 392L469 391M459 392L460 393L459 392M510 392L511 393L510 392M335 393L336 394L335 393M460 393L461 394L460 393M376 394L377 395L376 394M385 394L386 395L385 394M461 394L462 395L461 394M509 394L510 395L509 394M326 395L327 396L326 395M334 395L335 396L334 395M462 395L463 396L462 395M475 395L476 396L475 395M477 396L478 397L477 396M374 397L375 398L374 397M383 397L384 398L383 397M479 397L480 398L479 397M333.333 398.667L333.667 399.333L333.333 398.667M466 398L467 399L466 398M481 398L482 399L481 398M325 399L326 400L325 399M365 400L365 401L372 401L365 400M381 400L382 401L381 400M469 400L470 401L469 400M487 400L488 401L487 400M505 401L506 402L505 401M472 402L473 403L472 402M379 403L380 404L379 403M474 403L475 404L474 403M504 403L505 404L504 403M476 404L477 405L476 404M324.333 405.667L324.667 406.333L324.333 405.667M489 405L490 406L489 405M377 406L378 407L377 406M325 407L325 408L336 408L325 407M488 407L489 408L488 407M501 408L502 409L501 408M500 410L501 411L500 410M485 412L486 413L485 412M476 413L477 414L476 413M484 414L485 415L484 414M475 415L476 416L475 415M497 415L498 416L497 415M483 416L484 417L483 416M496 417L497 418L496 417M450 418L451 419L450 418M446 420L447 421L446 420M480 421L481 422L480 421M493 422L494 423L493 422M443 423L444 424L443 423M479 423L480 424L479 423M442 424L443 425L442 424M492 424L493 425L492 424M453.667 425.333L454.333 425.667L453.667 425.333M491 426L492 427L491 426M440 427L441 428L440 427M439 429L440 430L439 429M447 430L448 431L447 430z"/>
<path style="fill:#0594eb; stroke:none;" d="M497 430L498 431L497 430z"/>
<path style="fill:#cf5146; stroke:none;" d="M488 431L489 432L488 431M438 432L439 433L438 432M446 432L447 433L446 432M496 432L497 433L496 432M487 433L488 434L487 433M445 434L446 435L445 434M437 435L438 436L437 435M480 438L480 439L484 439L480 438M436 439L437 440L436 439M492 439L493 440L492 439M436 445L436 446L440 446L436 445z"/>
</svg>
