<?xml version="1.0" standalone="yes"?>
<svg xmlns="http://www.w3.org/2000/svg" width="225" height="225">
<path style="fill:#fefefe; stroke:none;" d="M0 0L0 225L225 225L225 0L0 0z"/>
<path style="fill:#a3a3a3; stroke:none;" d="M112 20L116 18L112 20z"/>
<path style="fill:#0c0c0c; stroke:none;" d="M114 18C107.881 24.5466 105.301 23.7178 97 22C97.9549 26.0294 99.3603 33.2866 102.702 36.0116C113.222 44.5891 125.957 37.6654 130 27C120.466 26.999 120.2 24.133 114 18z"/>
<path style="fill:#4e4e4e; stroke:none;" d="M115 18L116 19L115 18z"/>
<path style="fill:#a3a3a3; stroke:none;" d="M116 19L117 20L116 19z"/>
<path style="fill:#707070; stroke:none;" d="M116 20L117 21L116 20M96 21L97 22L96 21z"/>
<path style="fill:#a3a3a3; stroke:none;" d="M97 21L98 22L97 21M96 22L97 23L96 22z"/>
<path style="fill:#4e4e4e; stroke:none;" d="M99 22L100 23L99 22z"/>
<path style="fill:#a3a3a3; stroke:none;" d="M100.667 22.3333L101.333 22.6667L100.667 22.3333z"/>
<path style="fill:#707070; stroke:none;" d="M117 22L118 23L117 22M103 23L104 24L103 23z"/>
<path style="fill:#a3a3a3; stroke:none;" d="M104 23L105 24L104 23z"/>
<path style="fill:#4e4e4e; stroke:none;" d="M109 23L110 24L109 23z"/>
<path style="fill:#707070; stroke:none;" d="M113.667 23.3333L114.333 23.6667L113.667 23.3333M97 24L98 25L97 24z"/>
<path style="fill:#4e4e4e; stroke:none;" d="M106 24L107 25L106 24z"/>
<path style="fill:#707070; stroke:none;" d="M107 24L108 25L107 24z"/>
<path style="fill:#4e4e4e; stroke:none;" d="M108 24L109 25L108 24M112 24L111 26L112 24z"/>
<path style="fill:#fefefe; stroke:none;" d="M113 24C109.044 27.6327 107.129 27.7082 102 27C105.415 35.5032 119.805 40.4776 124 30L113 24z"/>
<path style="fill:#a3a3a3; stroke:none;" d="M114 24L115 25L114 24M118 24L119 25L118 24M97 25L98 26L97 25z"/>
<path style="fill:#4e4e4e; stroke:none;" d="M115 25L116 26L115 25M101 26L102 27L101 26z"/>
<path style="fill:#707070; stroke:none;" d="M102 26L103 27L102 26z"/>
<path style="fill:#4e4e4e; stroke:none;" d="M103 26L104 27L103 26z"/>
<path style="fill:#a3a3a3; stroke:none;" d="M115 26L116 27L115 26z"/>
<path style="fill:#4e4e4e; stroke:none;" d="M119 26L120 27L119 26z"/>
<path style="fill:#707070; stroke:none;" d="M120.667 26.3333L121.333 26.6667L120.667 26.3333z"/>
<path style="fill:#a3a3a3; stroke:none;" d="M122 26L122 27L129 27L122 26z"/>
<path style="fill:#707070; stroke:none;" d="M98 27L99 28L98 27z"/>
<path style="fill:#a3a3a3; stroke:none;" d="M105 27L106 28L105 27z"/>
<path style="fill:#707070; stroke:none;" d="M106 27L107 28L106 27z"/>
<path style="fill:#4e4e4e; stroke:none;" d="M116 27L117 28L116 27M130 27L131 28L130 27z"/>
<path style="fill:#a3a3a3; stroke:none;" d="M102 28L103 29L102 28M108 28L109 29L108 28M116 28L117 29L116 28z"/>
<path style="fill:#4e4e4e; stroke:none;" d="M99 29L100 30L99 29M102 29L103 30L102 29z"/>
<path style="fill:#707070; stroke:none;" d="M117 29L118 30L117 29z"/>
<path style="fill:#4e4e4e; stroke:none;" d="M118 29L118 30L121 30L118 29z"/>
<path style="fill:#a3a3a3; stroke:none;" d="M129 29L130 30L129 29M99 30L100 31L99 30M103 30L104 31L103 30M124 30L125 31L124 30z"/>
<path style="fill:#4e4e4e; stroke:none;" d="M128 30L129 31L128 30z"/>
<path style="fill:#707070; stroke:none;" d="M103 31L104 32L103 31M100 32L101 33L100 32M123 32L124 33L123 32z"/>
<path style="fill:#a3a3a3; stroke:none;" d="M127 32L128 33L127 32M100 33L101 34L100 33M104 33L105 34L104 33M122 33L123 34L122 33z"/>
<path style="fill:#4e4e4e; stroke:none;" d="M126 33L127 34L126 33M105 34L106 35L105 34z"/>
<path style="fill:#707070; stroke:none;" d="M106 34L107 35L106 34z"/>
<path style="fill:#a3a3a3; stroke:none;" d="M107.667 34.3333L108.333 34.6667L107.667 34.3333z"/>
<path style="fill:#707070; stroke:none;" d="M101 35L102 36L101 35z"/>
<path style="fill:#4e4e4e; stroke:none;" d="M111 35L112 36L111 35z"/>
<path style="fill:#707070; stroke:none;" d="M112 35L113 36L112 35z"/>
<path style="fill:#a3a3a3; stroke:none;" d="M113.667 35.3333L114.333 35.6667L113.667 35.3333z"/>
<path style="fill:#707070; stroke:none;" d="M121 35L122 36L121 35z"/>
<path style="fill:#a3a3a3; stroke:none;" d="M125 35L126 36L125 35z"/>
<path style="fill:#4e4e4e; stroke:none;" d="M118 36L119 37L118 36z"/>
<path style="fill:#707070; stroke:none;" d="M119 36L120 37L119 36z"/>
<path style="fill:#a3a3a3; stroke:none;" d="M120 36L121 37L120 36z"/>
<path style="fill:#4e4e4e; stroke:none;" d="M124 36L125 37L124 36z"/>
<path style="fill:#a3a3a3; stroke:none;" d="M102 37L102 38L105 38L102 37z"/>
<path style="fill:#4e4e4e; stroke:none;" d="M105.667 37.3333L106.333 37.6667L105.667 37.3333z"/>
<path style="fill:#a3a3a3; stroke:none;" d="M109.667 38.3333L110.333 38.6667L109.667 38.3333z"/>
<path style="fill:#707070; stroke:none;" d="M111 38L112 39L111 38z"/>
<path style="fill:#4e4e4e; stroke:none;" d="M112 38L113 39L112 38z"/>
<path style="fill:#a3a3a3; stroke:none;" d="M123 38L124 39L123 38M115.667 39.3333L116.333 39.6667L115.667 39.3333z"/>
<path style="fill:#707070; stroke:none;" d="M117 39L118 40L117 39z"/>
<path style="fill:#4e4e4e; stroke:none;" d="M118.667 39.3333L119.333 39.6667L118.667 39.3333M122 39L123 40L122 39M29 40L29 41L60 41L29 40z"/>
<path style="fill:#707070; stroke:none;" d="M60 40L69 52L70 52L71 50L60 40z"/>
<path style="fill:#a3a3a3; stroke:none;" d="M94 40L95 41L94 40M121 40L122 41L121 40z"/>
<path style="fill:#0c0c0c; stroke:none;" d="M29 41C29 49.76 26.5648 62.7586 29.6034 71C31.6209 76.4719 37.9791 80.979 42 85C54.2642 97.2642 59.5562 103 77 103C73.5481 106.889 67.1635 113.358 62 114.622C52.8854 116.854 48.3377 109.835 41 120L61 130.541L87 122.422L98 125C92.2506 130.023 84.7044 135.62 84.2755 144C83.9547 150.267 90.2349 155.03 86.9228 160.999C80.6842 172.244 68.8297 165.397 65 180C71.5572 180 85.304 182.63 90.24 177.682C97.7804 170.123 99.0774 158.599 105.318 151.105C107.605 148.359 113.137 144.278 116.981 145.418C124.102 147.53 121.424 157.652 122.326 163C123.695 171.12 129.583 176.243 137 179C130.624 188.706 117.691 182.134 117 197C128.322 197 139.899 200.158 145 188C156.707 199.698 169.352 197 185 197C185 188.196 187.942 172.939 183.972 165C180.561 158.178 172.346 152.346 167 147C161.593 141.593 157.123 135.264 149 135C149.28 126.441 157.913 124.79 162.069 117.985C171.398 102.711 162.114 82.4494 143 87C142.387 72.7123 148.316 56.557 166 63L154 74C154.986 77.4506 164.015 92.2139 166 83L167 83L172 89C172 83.335 172.075 77.6644 171.996 72C171.786 56.9421 154.496 54.4341 145.188 64.1049C137.861 71.7184 141.908 79.1847 139.657 88C137.613 96.0023 136.171 108.139 149 103C149.503 109.377 151.961 119.364 146.348 124.393C137.009 132.76 123.135 113.807 122.32 106C121.514 98.2785 131.78 88.7382 134.329 81C138.551 68.1872 136 55.2293 136 42C120.73 45.5426 109.544 43.0074 94 41C91.0631 50.0291 91.6033 65.6031 104 55C103.272 64.6534 79.9016 66.4361 92 74C83.0416 78.2359 73.0632 80.1021 65.6929 70.3904C60.5988 63.678 65.0228 56.2395 53 55L54.0278 79L73 100C58.8099 100 52.571 90.571 43 81C39.5149 77.5149 34.3561 73.7538 32.6034 69C29.9418 61.7811 32 50.6608 32 43L57 43.6034L70 51C60.2472 37.1562 44.144 41 29 41z"/>
<path style="fill:#707070; stroke:none;" d="M93 41L94 42L93 41z"/>
<path style="fill:#4e4e4e; stroke:none;" d="M97 41L98 42L97 41z"/>
<path style="fill:#707070; stroke:none;" d="M98 41L99 42L98 41z"/>
<path style="fill:#a3a3a3; stroke:none;" d="M99.6667 41.3333L100.333 41.6667L99.6667 41.3333M135 41L136 42L135 41z"/>
<path style="fill:#4e4e4e; stroke:none;" d="M93 42L94 43L93 42M102.667 42.3333L103.333 42.6667L102.667 42.3333z"/>
<path style="fill:#707070; stroke:none;" d="M104 42L105 43L104 42z"/>
<path style="fill:#a3a3a3; stroke:none;" d="M105.667 42.3333L106.333 42.6667L105.667 42.3333M131.667 42.3333L132.333 42.6667L131.667 42.3333z"/>
<path style="fill:#4e4e4e; stroke:none;" d="M133 42L134 43L133 42M32 43L33 44L32 43z"/>
<path style="fill:#707070; stroke:none;" d="M33 43L33 44L59 44L33 43z"/>
<path style="fill:#4e4e4e; stroke:none;" d="M109 43L110 44L109 43z"/>
<path style="fill:#707070; stroke:none;" d="M110 43L111 44L110 43z"/>
<path style="fill:#a3a3a3; stroke:none;" d="M111.667 43.3333L112.333 43.6667L111.667 43.3333M129 43L130 44L129 43z"/>
<path style="fill:#4e4e4e; stroke:none;" d="M130 43L131 44L130 43z"/>
<path style="fill:#a3a3a3; stroke:none;" d="M136 43L136 54L137 54L136 43M32 44L32 70L33 70L32 44M59 44L60 45L59 44M92 44L93 45L92 44z"/>
<path style="fill:#707070; stroke:none;" d="M96 44L97 45L96 44z"/>
<path style="fill:#4e4e4e; stroke:none;" d="M97 44L98 45L97 44M116 44L117 45L116 44z"/>
<path style="fill:#707070; stroke:none;" d="M117 44L118 45L117 44z"/>
<path style="fill:#a3a3a3; stroke:none;" d="M118.667 44.3333L119.333 44.6667L118.667 44.3333M127 44L128 45L127 44M60 45L61 46L60 45z"/>
<path style="fill:#4e4e4e; stroke:none;" d="M92 45L93 46L92 45M95 45L96 46L95 45z"/>
<path style="fill:#fefefe; stroke:none;" d="M96 45C94.8833 49.9016 93.1064 54.2055 99 56L100 50C116.005 55.5023 101.67 67.993 91 68L91 70C103.685 69.9636 117.285 61.7588 118 48L114 48L115 51L109 53C107.827 45.7951 102.434 45.5084 96 45z"/>
<path style="fill:#a3a3a3; stroke:none;" d="M100.667 45.3333L101.333 45.6667L100.667 45.3333z"/>
<path style="fill:#707070; stroke:none;" d="M102 45L103 46L102 45z"/>
<path style="fill:#4e4e4e; stroke:none;" d="M103 45L104 46L103 45M122 45L123 46L122 45z"/>
<path style="fill:#707070; stroke:none;" d="M123 45L124 46L123 45z"/>
<path style="fill:#a3a3a3; stroke:none;" d="M124 45L124 46L127 46L124 45M61 46L62 47L61 46z"/>
<path style="fill:#707070; stroke:none;" d="M95 46L96 47L95 46z"/>
<path style="fill:#a3a3a3; stroke:none;" d="M106.667 46.3333L107.333 46.6667L106.667 46.3333M131.667 46.3333L132.333 46.6667L131.667 46.3333M62 47L63 48L62 47M91 47L92 48L91 47M95 47L96 48L95 47z"/>
<path style="fill:#4e4e4e; stroke:none;" d="M108 47L109 48L108 47M111 47L112 48L111 47z"/>
<path style="fill:#a3a3a3; stroke:none;" d="M112 47L113 49L114 49L115 47L112 47z"/>
<path style="fill:#707070; stroke:none;" d="M115 47L116 48L115 47z"/>
<path style="fill:#4e4e4e; stroke:none;" d="M116 47L117 48L116 47M129 47L130 48L129 47z"/>
<path style="fill:#fefefe; stroke:none;" d="M130 47L133 50L130 47z"/>
<path style="fill:#a3a3a3; stroke:none;" d="M63 48L64 49L63 48z"/>
<path style="fill:#707070; stroke:none;" d="M91 48L92 49L91 48z"/>
<path style="fill:#a3a3a3; stroke:none;" d="M108.333 48.6667L108.667 49.3333L108.333 48.6667M118 48L118 51L119 51L118 48z"/>
<path style="fill:#4e4e4e; stroke:none;" d="M122.667 48.3333L123.333 48.6667L122.667 48.3333z"/>
<path style="fill:#707070; stroke:none;" d="M130 48L131 49L130 48z"/>
<path style="fill:#a3a3a3; stroke:none;" d="M64 49L65 50L64 49z"/>
<path style="fill:#707070; stroke:none;" d="M94 49L95 50L94 49z"/>
<path style="fill:#a3a3a3; stroke:none;" d="M122 49L123 50L122 49z"/>
<path style="fill:#fefefe; stroke:none;" d="M94 93L94 77C84.1436 81.0933 90.5485 92.6319 84 99L84 84C71.311 93.9657 83.4163 105.376 88 116L89 116L91 106L95 106L93 116L104 103L103 111L113 99L113 104C125.397 96.2404 133.066 81.5396 133.907 67C134.187 62.143 131.562 48.819 124.302 49.9213C121.324 50.3735 118.56 58.7185 116.671 60.9992C111.971 66.6735 101.909 69.5182 98.4336 75.3904C95.0297 81.1423 98.9091 87.8001 94 93z"/>
<path style="fill:#707070; stroke:none;" d="M126 49L127 50L126 49M131 49L132 50L131 49z"/>
<path style="fill:#a3a3a3; stroke:none;" d="M65 50L66 51L65 50M90 50L91 51L90 50M94 50L95 51L94 50z"/>
<path style="fill:#707070; stroke:none;" d="M101 50L102 51L101 50z"/>
<path style="fill:#a3a3a3; stroke:none;" d="M102 50L103 51L102 50M114 50L115 51L114 50M127 50L128 51L127 50z"/>
<path style="fill:#707070; stroke:none;" d="M132 50L133 51L132 50z"/>
<path style="fill:#a3a3a3; stroke:none;" d="M66 51L67 52L66 51M70 51L71 52L70 51z"/>
<path style="fill:#707070; stroke:none;" d="M90.3333 51.6667L90.6667 52.3333L90.3333 51.6667z"/>
<path style="fill:#a3a3a3; stroke:none;" d="M104 51L105 52L104 51z"/>
<path style="fill:#4e4e4e; stroke:none;" d="M109 51L110 52L109 51M112 51L113 52L112 51M118 51L119 52L118 51M121 51L122 52L121 51z"/>
<path style="fill:#a3a3a3; stroke:none;" d="M128 51L129 52L128 51z"/>
<path style="fill:#4e4e4e; stroke:none;" d="M93 52L94 53L93 52z"/>
<path style="fill:#a3a3a3; stroke:none;" d="M99.3333 52.6667L99.6667 53.3333L99.3333 52.6667M105 52L106 53L105 52M109 52L110 53L109 52M111 52L112 53L111 52z"/>
<path style="fill:#707070; stroke:none;" d="M121 52L122 53L121 52z"/>
<path style="fill:#a3a3a3; stroke:none;" d="M129 52L130 53L129 52M90 53L91 54L90 53M106 53L107 54L106 53M117 53L118 54L117 53M121 53L122 54L121 53M130 53L131 54L130 53z"/>
<path style="fill:#4e4e4e; stroke:none;" d="M52 54L52 78L53 78L54 54L52 54z"/>
<path style="fill:#707070; stroke:none;" d="M54 54L55 55L54 54z"/>
<path style="fill:#a3a3a3; stroke:none;" d="M55 54L56 55L55 54z"/>
<path style="fill:#4e4e4e; stroke:none;" d="M94 54L95 55L94 54z"/>
<path style="fill:#707070; stroke:none;" d="M99 54L100 55L99 54z"/>
<path style="fill:#4e4e4e; stroke:none;" d="M106 54L107 55L106 54M117 54L118 55L117 54M131 54L132 55L131 54z"/>
<path style="fill:#707070; stroke:none;" d="M57 55L58 56L57 55z"/>
<path style="fill:#a3a3a3; stroke:none;" d="M71 55L72 56L71 55z"/>
<path style="fill:#707070; stroke:none;" d="M91 55L92 56L91 55M95 55L96 56L95 55M102.667 55.3333L103.333 55.6667L102.667 55.3333z"/>
<path style="fill:#a3a3a3; stroke:none;" d="M116 55L117 56L116 55M120 55L121 56L120 55z"/>
<path style="fill:#707070; stroke:none;" d="M59 56L60 57L59 56z"/>
<path style="fill:#4e4e4e; stroke:none;" d="M71 56L72 57L71 56z"/>
<path style="fill:#a3a3a3; stroke:none;" d="M82.6667 56.3333L83.3333 56.6667L82.6667 56.3333z"/>
<path style="fill:#707070; stroke:none;" d="M97 56L98 57L97 56z"/>
<path style="fill:#4e4e4e; stroke:none;" d="M98 56L99 57L98 56z"/>
<path style="fill:#a3a3a3; stroke:none;" d="M102.667 56.3333L103.333 56.6667L102.667 56.3333M107 56L107 59L108 59L107 56z"/>
<path style="fill:#707070; stroke:none;" d="M132 56L133 57L132 56z"/>
<path style="fill:#a3a3a3; stroke:none;" d="M61 57L62 58L61 57M71 57L72 58L71 57z"/>
<path style="fill:#0c0c0c; stroke:none;" d="M72 57C75.8246 63.968 83.0618 63.4243 89 59L72 57z"/>
<path style="fill:#a3a3a3; stroke:none;" d="M73 57L73 58L77 58L73 57z"/>
<path style="fill:#707070; stroke:none;" d="M77 57L78 58L77 57z"/>
<path style="fill:#4e4e4e; stroke:none;" d="M78 57L79 58L78 57M85 57L86 58L85 57z"/>
<path style="fill:#707070; stroke:none;" d="M86 57L87 58L86 57z"/>
<path style="fill:#a3a3a3; stroke:none;" d="M92 57L93 58L92 57z"/>
<path style="fill:#4e4e4e; stroke:none;" d="M101 57L102 58L101 57z"/>
<path style="fill:#707070; stroke:none;" d="M115 57L116 58L115 57z"/>
<path style="fill:#a3a3a3; stroke:none;" d="M119 57L120 58L119 57M132 57L133 58L132 57M136 57L137 58L136 57M159 57L160 58L159 57z"/>
<path style="fill:#4e4e4e; stroke:none;" d="M55 58L55 77L56 77L57 58L55 58z"/>
<path style="fill:#a3a3a3; stroke:none;" d="M62 58L63 59L62 58z"/>
<path style="fill:#4e4e4e; stroke:none;" d="M72 58L73 59L72 58z"/>
<path style="fill:#707070; stroke:none;" d="M88 58L89 59L88 58z"/>
<path style="fill:#4e4e4e; stroke:none;" d="M94 58L95 59L94 58z"/>
<path style="fill:#a3a3a3; stroke:none;" d="M103.333 58.6667L103.667 59.3333L103.333 58.6667M114 58L115 59L114 58z"/>
<path style="fill:#4e4e4e; stroke:none;" d="M118 58L119 59L118 58M133 58L134 59L133 58M136 58L137 59L136 58z"/>
<path style="fill:#a3a3a3; stroke:none;" d="M153 58L154 59L153 58z"/>
<path style="fill:#707070; stroke:none;" d="M154 58L155 59L154 58z"/>
<path style="fill:#4e4e4e; stroke:none;" d="M155 58L156 59L155 58z"/>
<path style="fill:#707070; stroke:none;" d="M163 58L164 59L163 58z"/>
<path style="fill:#a3a3a3; stroke:none;" d="M164 58L165 59L164 58z"/>
<path style="fill:#fefefe; stroke:none;" d="M56 59C56 75.7983 60.4662 84.0875 74 95L79 82L62.6034 72.6096L56 59z"/>
<path style="fill:#a3a3a3; stroke:none;" d="M57 59L58 60L57 59M72 59L73 60L72 59z"/>
<path style="fill:#4e4e4e; stroke:none;" d="M89 59L90 60L89 59z"/>
<path style="fill:#a3a3a3; stroke:none;" d="M95 59L96 60L95 59z"/>
<path style="fill:#4e4e4e; stroke:none;" d="M96 59L96 60L99 60L96 59z"/>
<path style="fill:#707070; stroke:none;" d="M99 59L100 60L99 59z"/>
<path style="fill:#a3a3a3; stroke:none;" d="M133.333 59.6667L133.667 60.3333L133.333 59.6667z"/>
<path style="fill:#707070; stroke:none;" d="M151 59L152 60L151 59z"/>
<path style="fill:#4e4e4e; stroke:none;" d="M165 59L166 60L165 59z"/>
<path style="fill:#a3a3a3; stroke:none;" d="M166 59L167 60L166 59z"/>
<path style="fill:#707070; stroke:none;" d="M59 60L60 61L59 60z"/>
<path style="fill:#4e4e4e; stroke:none;" d="M63 60L64 61L63 60z"/>
<path style="fill:#a3a3a3; stroke:none;" d="M73 60L74 61L73 60z"/>
<path style="fill:#4e4e4e; stroke:none;" d="M87 60L88 61L87 60z"/>
<path style="fill:#707070; stroke:none;" d="M88.6667 60.3333L89.3333 60.6667L88.6667 60.3333z"/>
<path style="fill:#a3a3a3; stroke:none;" d="M90 60L91 61L90 60z"/>
<path style="fill:#4e4e4e; stroke:none;" d="M103 60L104 61L103 60z"/>
<path style="fill:#a3a3a3; stroke:none;" d="M117 60L118 61L117 60M137.333 60.6667L137.667 61.3333L137.333 60.6667z"/>
<path style="fill:#707070; stroke:none;" d="M149 60L150 61L149 60z"/>
<path style="fill:#a3a3a3; stroke:none;" d="M167 60L168 61L167 60z"/>
<path style="fill:#707070; stroke:none;" d="M60 61L61 62L60 61z"/>
<path style="fill:#a3a3a3; stroke:none;" d="M64 61L65 62L64 61M74 61L75 62L74 61z"/>
<path style="fill:#707070; stroke:none;" d="M84 61L85 62L84 61z"/>
<path style="fill:#a3a3a3; stroke:none;" d="M85 61L86 62L85 61M102 61L103 62L102 61z"/>
<path style="fill:#707070; stroke:none;" d="M106 61L107 62L106 61M116 61L117 62L116 61z"/>
<path style="fill:#a3a3a3; stroke:none;" d="M147 61L148 62L147 61z"/>
<path style="fill:#707070; stroke:none;" d="M155 61L156 62L155 61z"/>
<path style="fill:#a3a3a3; stroke:none;" d="M156 61L156 62L162 62L156 61z"/>
<path style="fill:#4e4e4e; stroke:none;" d="M162 61L163 62L162 61z"/>
<path style="fill:#707070; stroke:none;" d="M168 61L169 62L168 61z"/>
<path style="fill:#4e4e4e; stroke:none;" d="M64 62L65 63L64 62z"/>
<path style="fill:#707070; stroke:none;" d="M76 62L77 63L76 62z"/>
<path style="fill:#4e4e4e; stroke:none;" d="M80 62L81 63L80 62z"/>
<path style="fill:#707070; stroke:none;" d="M81 62L82 63L81 62z"/>
<path style="fill:#a3a3a3; stroke:none;" d="M82 62L83 63L82 62z"/>
<path style="fill:#4e4e4e; stroke:none;" d="M115 62L116 63L115 62z"/>
<path style="fill:#707070; stroke:none;" d="M137 62L137 69L138 69L137 62z"/>
<path style="fill:#a3a3a3; stroke:none;" d="M146 62L147 63L146 62z"/>
<path style="fill:#4e4e4e; stroke:none;" d="M152 62L153 63L152 62z"/>
<path style="fill:#a3a3a3; stroke:none;" d="M153 62L154 63L153 62z"/>
<path style="fill:#707070; stroke:none;" d="M164 62L165 63L164 62M169 62L170 63L169 62M61 63L62 64L61 63z"/>
<path style="fill:#a3a3a3; stroke:none;" d="M100 63L101 64L100 63z"/>
<path style="fill:#707070; stroke:none;" d="M105 63L106 64L105 63z"/>
<path style="fill:#a3a3a3; stroke:none;" d="M109 63L110 64L109 63z"/>
<path style="fill:#4e4e4e; stroke:none;" d="M114 63L115 64L114 63M134 63L134 68L135 68L134 63z"/>
<path style="fill:#707070; stroke:none;" d="M145 63L146 64L145 63z"/>
<path style="fill:#4e4e4e; stroke:none;" d="M150 63L151 64L150 63z"/>
<path style="fill:#a3a3a3; stroke:none;" d="M151 63L152 64L151 63M165 63L166 64L165 63M170 63L171 64L170 63M61 64L61 68L62 68L61 64z"/>
<path style="fill:#4e4e4e; stroke:none;" d="M89 64L89 65L98 65L89 64M104 64L105 65L104 64z"/>
<path style="fill:#a3a3a3; stroke:none;" d="M108 64L109 65L108 64z"/>
<path style="fill:#4e4e4e; stroke:none;" d="M113 64L114 65L113 64z"/>
<path style="fill:#707070; stroke:none;" d="M144 64L145 65L144 64z"/>
<path style="fill:#a3a3a3; stroke:none;" d="M149 64L150 65L149 64z"/>
<path style="fill:#707070; stroke:none;" d="M88 65L89 66L88 65z"/>
<path style="fill:#4e4e4e; stroke:none;" d="M103 65L104 66L103 65M107 65L108 66L107 65M112 65L113 66L112 65z"/>
<path style="fill:#a3a3a3; stroke:none;" d="M143 65L144 66L143 65M148 65L149 66L148 65M164 65L165 66L164 65M171 65L172 66L171 65z"/>
<path style="fill:#4e4e4e; stroke:none;" d="M101 66L102 67L101 66z"/>
<path style="fill:#a3a3a3; stroke:none;" d="M102 66L103 67L102 66M105 66L106 67L105 66z"/>
<path style="fill:#707070; stroke:none;" d="M111 66L112 67L111 66z"/>
<path style="fill:#a3a3a3; stroke:none;" d="M142 66L143 67L142 66M147 66L148 67L147 66z"/>
<path style="fill:#707070; stroke:none;" d="M163 66L164 67L163 66z"/>
<path style="fill:#4e4e4e; stroke:none;" d="M64 67L64 71L65 71L64 67z"/>
<path style="fill:#707070; stroke:none;" d="M87 67L88 68L87 67M91 67L91 68L99 68L91 67z"/>
<path style="fill:#a3a3a3; stroke:none;" d="M99.6667 67.3333L100.333 67.6667L99.6667 67.3333M103 67L104 68L103 67M110 67L111 68L110 67z"/>
<path style="fill:#4e4e4e; stroke:none;" d="M142 67L143 68L142 67z"/>
<path style="fill:#a3a3a3; stroke:none;" d="M146 67L147 68L146 67z"/>
<path style="fill:#4e4e4e; stroke:none;" d="M162 67L163 68L162 67z"/>
<path style="fill:#707070; stroke:none;" d="M167 67L168 68L167 67z"/>
<path style="fill:#a3a3a3; stroke:none;" d="M168 67L169 68L168 67M172.333 67.6667L172.667 68.3333L172.333 67.6667z"/>
<path style="fill:#707070; stroke:none;" d="M61 68L61 71L62 71L61 68z"/>
<path style="fill:#4e4e4e; stroke:none;" d="M90 68L91 69L90 68z"/>
<path style="fill:#a3a3a3; stroke:none;" d="M101 68L102 69L101 68z"/>
<path style="fill:#4e4e4e; stroke:none;" d="M102 68L103 69L102 68M108 68L109 69L108 68z"/>
<path style="fill:#a3a3a3; stroke:none;" d="M141 68L142 69L141 68z"/>
<path style="fill:#707070; stroke:none;" d="M145 68L146 69L145 68z"/>
<path style="fill:#4e4e4e; stroke:none;" d="M161 68L162 69L161 68z"/>
<path style="fill:#a3a3a3; stroke:none;" d="M166 68L165 70L166 68z"/>
<path style="fill:#fefefe; stroke:none;" d="M158 75L163 81L163 75L168 79L169 79L169 68L158 75z"/>
<path style="fill:#a3a3a3; stroke:none;" d="M90 69L91 70L90 69M99 69L100 70L99 69z"/>
<path style="fill:#4e4e4e; stroke:none;" d="M100 69L101 70L100 69z"/>
<path style="fill:#a3a3a3; stroke:none;" d="M107 69L108 70L107 69M137.333 69.6667L137.667 70.3333L137.333 69.6667M159 69L160 70L159 69z"/>
<path style="fill:#4e4e4e; stroke:none;" d="M169.333 69.6667L169.667 70.3333L169.333 69.6667z"/>
<path style="fill:#707070; stroke:none;" d="M172 69L173 70L172 69M32 70L33 71L32 70z"/>
<path style="fill:#4e4e4e; stroke:none;" d="M92 70L92 71L95 71L92 70z"/>
<path style="fill:#707070; stroke:none;" d="M95 70L95 71L98 71L95 70z"/>
<path style="fill:#4e4e4e; stroke:none;" d="M98 70L99 71L98 70z"/>
<path style="fill:#a3a3a3; stroke:none;" d="M105 70L106 71L105 70M133.333 70.6667L133.667 71.3333L133.333 70.6667M140 70L141 71L140 70M144 70L145 71L144 70M158 70L159 71L158 70z"/>
<path style="fill:#4e4e4e; stroke:none;" d="M172 70L172 90L173 90L172 70z"/>
<path style="fill:#707070; stroke:none;" d="M33 71L34 72L33 71z"/>
<path style="fill:#4e4e4e; stroke:none;" d="M61 71L62 72L61 71z"/>
<path style="fill:#a3a3a3; stroke:none;" d="M66 71L67 72L66 71z"/>
<path style="fill:#707070; stroke:none;" d="M87 71L88 72L87 71z"/>
<path style="fill:#a3a3a3; stroke:none;" d="M103 71L104 72L103 71z"/>
<path style="fill:#4e4e4e; stroke:none;" d="M140 71L141 72L140 71z"/>
<path style="fill:#707070; stroke:none;" d="M157 71L158 72L157 71z"/>
<path style="fill:#4e4e4e; stroke:none;" d="M162 71L163 72L162 71z"/>
<path style="fill:#707070; stroke:none;" d="M169 71L168 81C170.789 78.5628 170.361 74.2443 169 71z"/>
<path style="fill:#a3a3a3; stroke:none;" d="M29 72L30 73L29 72z"/>
<path style="fill:#707070; stroke:none;" d="M34 72L35 73L34 72M61 72L62 73L61 72z"/>
<path style="fill:#a3a3a3; stroke:none;" d="M68 72L69 73L68 72z"/>
<path style="fill:#4e4e4e; stroke:none;" d="M88 72L89 73L88 72z"/>
<path style="fill:#a3a3a3; stroke:none;" d="M101 72L102 73L101 72z"/>
<path style="fill:#707070; stroke:none;" d="M133 72L134 73L133 72z"/>
<path style="fill:#a3a3a3; stroke:none;" d="M143.333 72.6667L143.667 73.3333L143.333 72.6667z"/>
<path style="fill:#4e4e4e; stroke:none;" d="M156 72L157 73L156 72z"/>
<path style="fill:#707070; stroke:none;" d="M161 72L162 73L161 72z"/>
<path style="fill:#a3a3a3; stroke:none;" d="M30 73L31 74L30 73z"/>
<path style="fill:#707070; stroke:none;" d="M35 73L36 74L35 73z"/>
<path style="fill:#a3a3a3; stroke:none;" d="M62 73L63 74L62 73z"/>
<path style="fill:#4e4e4e; stroke:none;" d="M69 73L70 74L69 73z"/>
<path style="fill:#a3a3a3; stroke:none;" d="M70 73L71 74L70 73M90 73L91 74L90 73z"/>
<path style="fill:#4e4e4e; stroke:none;" d="M91 73L92 74L91 73z"/>
<path style="fill:#a3a3a3; stroke:none;" d="M99 73L100 74L99 73z"/>
<path style="fill:#4e4e4e; stroke:none;" d="M133 73L134 74L133 73M136 73L137 74L136 73z"/>
<path style="fill:#a3a3a3; stroke:none;" d="M139 73L140 74L139 73M154 73L155 74L154 73M160 73L161 74L160 73M31 74L32 75L31 74z"/>
<path style="fill:#707070; stroke:none;" d="M36 74L37 75L36 74z"/>
<path style="fill:#a3a3a3; stroke:none;" d="M64 74L65 75L64 74z"/>
<path style="fill:#4e4e4e; stroke:none;" d="M71 74L72 75L71 74z"/>
<path style="fill:#a3a3a3; stroke:none;" d="M72 74L73 75L72 74z"/>
<path style="fill:#707070; stroke:none;" d="M90 74L91 75L90 74M136 74L137 75L136 74M139 74L140 75L139 74z"/>
<path style="fill:#a3a3a3; stroke:none;" d="M159 74L160 75L159 74M32 75L33 76L32 75z"/>
<path style="fill:#707070; stroke:none;" d="M37 75L38 76L37 75z"/>
<path style="fill:#a3a3a3; stroke:none;" d="M66 75L67 76L66 75z"/>
<path style="fill:#4e4e4e; stroke:none;" d="M73 75L74 76L73 75z"/>
<path style="fill:#a3a3a3; stroke:none;" d="M74 75L75 76L74 75M88 75L89 76L88 75z"/>
<path style="fill:#4e4e4e; stroke:none;" d="M97 75L98 76L97 75z"/>
<path style="fill:#a3a3a3; stroke:none;" d="M132 75L133 76L132 75M136 75L137 76L136 75z"/>
<path style="fill:#4e4e4e; stroke:none;" d="M139 75L139 78L140 78L139 75M142 75L143 76L142 75M154 75L155 76L154 75M157.333 75.6667L157.667 76.3333L157.333 75.6667z"/>
<path style="fill:#707070; stroke:none;" d="M163 75L164 76L163 75z"/>
<path style="fill:#a3a3a3; stroke:none;" d="M33 76L34 77L33 76z"/>
<path style="fill:#707070; stroke:none;" d="M38 76L39 77L38 76M68 76L69 77L68 76z"/>
<path style="fill:#4e4e4e; stroke:none;" d="M75 76L76 77L75 76z"/>
<path style="fill:#a3a3a3; stroke:none;" d="M86 76L87 77L86 76z"/>
<path style="fill:#4e4e4e; stroke:none;" d="M87 76L88 77L87 76z"/>
<path style="fill:#707070; stroke:none;" d="M93 76L94 77L93 76M97 76L98 77L97 76M132 76L133 77L132 76M142 76L142 81L143 81L142 76M154 76L155 77L154 76z"/>
<path style="fill:#4e4e4e; stroke:none;" d="M163.333 76.6667L163.667 77.3333L163.333 76.6667z"/>
<path style="fill:#a3a3a3; stroke:none;" d="M34 77L35 78L34 77z"/>
<path style="fill:#707070; stroke:none;" d="M39 77L40 78L39 77M56 77L57 78L56 77M70 77L71 78L70 77M77 77L78 78L77 77z"/>
<path style="fill:#a3a3a3; stroke:none;" d="M85 77L86 78L85 77z"/>
<path style="fill:#4e4e4e; stroke:none;" d="M91 77L92 78L91 77z"/>
<path style="fill:#a3a3a3; stroke:none;" d="M97 77L98 78L97 77z"/>
<path style="fill:#4e4e4e; stroke:none;" d="M132 77L133 78L132 77M135 77L136 78L135 77z"/>
<path style="fill:#a3a3a3; stroke:none;" d="M154 77L155 78L154 77M167 77L168 78L167 77M35 78L36 79L35 78z"/>
<path style="fill:#707070; stroke:none;" d="M40 78L41 79L40 78z"/>
<path style="fill:#a3a3a3; stroke:none;" d="M52 78L53 79L52 78z"/>
<path style="fill:#707070; stroke:none;" d="M57 78L58 79L57 78M72 78L73 79L72 78M79 78L80 79L79 78z"/>
<path style="fill:#4e4e4e; stroke:none;" d="M84 78L85 79L84 78z"/>
<path style="fill:#a3a3a3; stroke:none;" d="M90 78L91 79L90 78M93.3333 78.6667L93.6667 79.3333L93.3333 78.6667M135 78L136 79L135 78z"/>
<path style="fill:#707070; stroke:none;" d="M158 78L159 79L158 78z"/>
<path style="fill:#4e4e4e; stroke:none;" d="M167 78L168 79L167 78z"/>
<path style="fill:#a3a3a3; stroke:none;" d="M36 79L37 80L36 79z"/>
<path style="fill:#707070; stroke:none;" d="M41 79L42 80L41 79z"/>
<path style="fill:#a3a3a3; stroke:none;" d="M53 79L54 80L53 79z"/>
<path style="fill:#707070; stroke:none;" d="M58 79L59 80L58 79z"/>
<path style="fill:#4e4e4e; stroke:none;" d="M74 79L75 80L74 79z"/>
<path style="fill:#a3a3a3; stroke:none;" d="M81.6667 79.3333L82.3333 79.6667L81.6667 79.3333M131 79L132 80L131 79z"/>
<path style="fill:#4e4e4e; stroke:none;" d="M139 79L139 82L140 82L139 79M155 79L156 80L155 79z"/>
<path style="fill:#a3a3a3; stroke:none;" d="M159 79L160 80L159 79M168 79L169 80L168 79M37 80L38 81L37 80z"/>
<path style="fill:#707070; stroke:none;" d="M42 80L43 81L42 80z"/>
<path style="fill:#a3a3a3; stroke:none;" d="M54 80L55 81L54 80z"/>
<path style="fill:#707070; stroke:none;" d="M59 80L60 81L59 80z"/>
<path style="fill:#a3a3a3; stroke:none;" d="M75 80L76 81L75 80z"/>
<path style="fill:#4e4e4e; stroke:none;" d="M76 80L77 81L76 80z"/>
<path style="fill:#707070; stroke:none;" d="M88 80L89 81L88 80M93 80L94 81L93 80z"/>
<path style="fill:#4e4e4e; stroke:none;" d="M96.3333 80.6667L96.6667 81.3333L96.3333 80.6667M131 80L132 81L131 80M134 80L135 81L134 80z"/>
<path style="fill:#a3a3a3; stroke:none;" d="M155 80L156 81L155 80M38 81L39 82L38 81z"/>
<path style="fill:#707070; stroke:none;" d="M43 81L44 82L43 81z"/>
<path style="fill:#a3a3a3; stroke:none;" d="M55 81L56 82L55 81M60 81L61 82L60 81M77 81L78 82L77 81z"/>
<path style="fill:#4e4e4e; stroke:none;" d="M78 81L79 82L78 81z"/>
<path style="fill:#a3a3a3; stroke:none;" d="M88 81L89 82L88 81z"/>
<path style="fill:#4e4e4e; stroke:none;" d="M93 81L93 87L94 87L93 81z"/>
<path style="fill:#a3a3a3; stroke:none;" d="M134 81L135 82L134 81z"/>
<path style="fill:#4e4e4e; stroke:none;" d="M142 81L143 82L142 81z"/>
<path style="fill:#707070; stroke:none;" d="M156 81L157 82L156 81z"/>
<path style="fill:#a3a3a3; stroke:none;" d="M161.667 81.3333L162.333 81.6667L161.667 81.3333M39 82L40 83L39 82z"/>
<path style="fill:#707070; stroke:none;" d="M44 82L45 83L44 82z"/>
<path style="fill:#a3a3a3; stroke:none;" d="M56 82L57 83L56 82M61 82L62 83L61 82z"/>
<path style="fill:#707070; stroke:none;" d="M79 82L80 83L79 82M96 82L96 87L97 87L96 82z"/>
<path style="fill:#a3a3a3; stroke:none;" d="M130 82L131 83L130 82z"/>
<path style="fill:#707070; stroke:none;" d="M139 82L140 83L139 82z"/>
<path style="fill:#4e4e4e; stroke:none;" d="M157 82L158 83L157 82z"/>
<path style="fill:#a3a3a3; stroke:none;" d="M40 83L41 84L40 83z"/>
<path style="fill:#707070; stroke:none;" d="M45 83L46 84L45 83z"/>
<path style="fill:#a3a3a3; stroke:none;" d="M57 83L58 84L57 83M62 83L63 84L62 83M78 83L79 84L78 83M83 83L84 84L83 83z"/>
<path style="fill:#707070; stroke:none;" d="M84 83L85 84L84 83z"/>
<path style="fill:#4e4e4e; stroke:none;" d="M87 83L88 84L87 83M130 83L131 84L130 83M133 83L134 84L133 83z"/>
<path style="fill:#a3a3a3; stroke:none;" d="M139.333 83.6667L139.667 84.3333L139.333 83.6667z"/>
<path style="fill:#4e4e4e; stroke:none;" d="M158 83L159 84L158 83z"/>
<path style="fill:#707070; stroke:none;" d="M166 83L167 84L166 83z"/>
<path style="fill:#a3a3a3; stroke:none;" d="M41 84L42 85L41 84z"/>
<path style="fill:#707070; stroke:none;" d="M46 84L47 85L46 84z"/>
<path style="fill:#a3a3a3; stroke:none;" d="M58 84L59 85L58 84M63 84L64 85L63 84M82 84L83 85L82 84z"/>
<path style="fill:#4e4e4e; stroke:none;" d="M84 84L85 85L84 84z"/>
<path style="fill:#707070; stroke:none;" d="M87 84L88 85L87 84z"/>
<path style="fill:#a3a3a3; stroke:none;" d="M129 84L130 85L129 84M133 84L134 85L133 84M143.333 84.6667L143.667 85.3333L143.333 84.6667M159 84L160 85L159 84M42 85L43 86L42 85z"/>
<path style="fill:#707070; stroke:none;" d="M47 85L48 86L47 85z"/>
<path style="fill:#a3a3a3; stroke:none;" d="M59 85L60 86L59 85M64 85L65 86L64 85M81 85L82 86L81 85M87 85L87 88L88 88L87 85z"/>
<path style="fill:#4e4e4e; stroke:none;" d="M129 85L130 86L129 85z"/>
<path style="fill:#a3a3a3; stroke:none;" d="M146 85L146 86L152 86L146 85M161 85L162 86L161 85z"/>
<path style="fill:#4e4e4e; stroke:none;" d="M162 85L163 86L162 85z"/>
<path style="fill:#a3a3a3; stroke:none;" d="M43 86L44 87L43 86z"/>
<path style="fill:#707070; stroke:none;" d="M48 86L49 87L48 86z"/>
<path style="fill:#a3a3a3; stroke:none;" d="M60 86L61 87L60 86M65 86L66 87L65 86z"/>
<path style="fill:#707070; stroke:none;" d="M76 86L77 87L76 86M80 86L81 87L80 86z"/>
<path style="fill:#a3a3a3; stroke:none;" d="M128 86L129 87L128 86z"/>
<path style="fill:#707070; stroke:none;" d="M132 86L133 87L132 86z"/>
<path style="fill:#4e4e4e; stroke:none;" d="M143.667 86.3333L144.333 86.6667L143.667 86.3333z"/>
<path style="fill:#707070; stroke:none;" d="M154 86L155 87L154 86z"/>
<path style="fill:#a3a3a3; stroke:none;" d="M155 86L156 87L155 86M168 86L169 87L168 86M44 87L45 88L44 87z"/>
<path style="fill:#707070; stroke:none;" d="M49 87L50 88L49 87z"/>
<path style="fill:#a3a3a3; stroke:none;" d="M61 87L62 88L61 87M66 87L67 88L66 87M83 87L83 94L84 94L83 87z"/>
<path style="fill:#707070; stroke:none;" d="M93.3333 87.6667L93.6667 88.3333L93.3333 87.6667z"/>
<path style="fill:#4e4e4e; stroke:none;" d="M96.3333 87.6667L96.6667 88.3333L96.3333 87.6667M128 87L129 88L128 87z"/>
<path style="fill:#a3a3a3; stroke:none;" d="M140 87L141 88L140 87z"/>
<path style="fill:#4e4e4e; stroke:none;" d="M156 87L157 88L156 87z"/>
<path style="fill:#a3a3a3; stroke:none;" d="M157 87L158 88L157 87M169 87L170 88L169 87z"/>
<path style="fill:#707070; stroke:none;" d="M50 88L51 89L50 88z"/>
<path style="fill:#a3a3a3; stroke:none;" d="M62 88L63 89L62 88M67 88L68 89L67 88z"/>
<path style="fill:#707070; stroke:none;" d="M75 88L76 89L75 88z"/>
<path style="fill:#a3a3a3; stroke:none;" d="M79 88L80 89L79 88M127 88L128 89L127 88z"/>
<path style="fill:#707070; stroke:none;" d="M131 88L132 89L131 88z"/>
<path style="fill:#4e4e4e; stroke:none;" d="M140 88L141 89L140 88M148.667 88.3333L149.333 88.6667L148.667 88.3333z"/>
<path style="fill:#707070; stroke:none;" d="M158 88L159 89L158 88M170 88L171 89L170 88z"/>
<path style="fill:#a3a3a3; stroke:none;" d="M46 89L47 90L46 89z"/>
<path style="fill:#707070; stroke:none;" d="M51 89L52 90L51 89M63 89L64 90L63 89z"/>
<path style="fill:#a3a3a3; stroke:none;" d="M68 89L69 90L68 89z"/>
<path style="fill:#4e4e4e; stroke:none;" d="M78 89L79 90L78 89z"/>
<path style="fill:#a3a3a3; stroke:none;" d="M93 89L93 92L94 92L93 89z"/>
<path style="fill:#4e4e4e; stroke:none;" d="M139 89L140 90L139 89z"/>
<path style="fill:#a3a3a3; stroke:none;" d="M145.333 89.6667L145.667 90.3333L145.333 89.6667z"/>
<path style="fill:#fefefe; stroke:none;" d="M146 89C148.49 101.915 153.776 108.944 152 123C167.717 114.669 165.139 89.4077 146 89z"/>
<path style="fill:#a3a3a3; stroke:none;" d="M152 89L153 90L152 89z"/>
<path style="fill:#707070; stroke:none;" d="M153 89L154 90L153 89z"/>
<path style="fill:#4e4e4e; stroke:none;" d="M159 89L160 90L159 89z"/>
<path style="fill:#707070; stroke:none;" d="M171 89L172 90L171 89z"/>
<path style="fill:#a3a3a3; stroke:none;" d="M47 90L48 91L47 90z"/>
<path style="fill:#707070; stroke:none;" d="M52 90L53 91L52 90M64 90L65 91L64 90z"/>
<path style="fill:#a3a3a3; stroke:none;" d="M69 90L70 91L69 90M74 90L75 91L74 90M78 90L79 91L78 90z"/>
<path style="fill:#707070; stroke:none;" d="M126 90L127 91L126 90z"/>
<path style="fill:#a3a3a3; stroke:none;" d="M130 90L131 91L130 90z"/>
<path style="fill:#707070; stroke:none;" d="M138 90L139 91L138 90z"/>
<path style="fill:#a3a3a3; stroke:none;" d="M155 90L156 91L155 90M172 90L173 91L172 90M48 91L49 92L48 91z"/>
<path style="fill:#707070; stroke:none;" d="M53 91L54 92L53 91M65 91L66 92L65 91z"/>
<path style="fill:#a3a3a3; stroke:none;" d="M70 91L71 92L70 91z"/>
<path style="fill:#707070; stroke:none;" d="M74 91L75 92L74 91z"/>
<path style="fill:#4e4e4e; stroke:none;" d="M77 91L78 92L77 91M95 91L96 92L95 91z"/>
<path style="fill:#a3a3a3; stroke:none;" d="M96 91L97 92L96 91z"/>
<path style="fill:#4e4e4e; stroke:none;" d="M141 91L142 92L141 91M145 91L146 92L145 91M157 91L158 92L157 91z"/>
<path style="fill:#a3a3a3; stroke:none;" d="M49 92L50 93L49 92z"/>
<path style="fill:#707070; stroke:none;" d="M54 92L55 93L54 92M66 92L67 93L66 92z"/>
<path style="fill:#4e4e4e; stroke:none;" d="M74 92L75 93L74 92z"/>
<path style="fill:#707070; stroke:none;" d="M77 92L78 93L77 92z"/>
<path style="fill:#a3a3a3; stroke:none;" d="M87 92L87 95L88 95L87 92M94 92L95 93L94 92z"/>
<path style="fill:#4e4e4e; stroke:none;" d="M125 92L126 93L125 92z"/>
<path style="fill:#a3a3a3; stroke:none;" d="M129 92L130 93L129 92z"/>
<path style="fill:#707070; stroke:none;" d="M137 92L138 93L137 92z"/>
<path style="fill:#fefefe; stroke:none;" d="M141 92C140.127 97.0195 140.463 100.117 146 101L141 92z"/>
<path style="fill:#707070; stroke:none;" d="M142 92L143 93L142 92z"/>
<path style="fill:#a3a3a3; stroke:none;" d="M146 92L147 93L146 92z"/>
<path style="fill:#4e4e4e; stroke:none;" d="M158 92L159 93L158 92z"/>
<path style="fill:#707070; stroke:none;" d="M162 92L163 93L162 92z"/>
<path style="fill:#a3a3a3; stroke:none;" d="M50 93L51 94L50 93z"/>
<path style="fill:#707070; stroke:none;" d="M55 93L56 94L55 93M67 93L68 94L67 93z"/>
<path style="fill:#a3a3a3; stroke:none;" d="M77.3333 93.6667L77.6667 94.3333L77.3333 93.6667z"/>
<path style="fill:#707070; stroke:none;" d="M124 93L125 94L124 93M128 93L129 94L128 93M140 93L141 94L140 93z"/>
<path style="fill:#4e4e4e; stroke:none;" d="M159 93L160 94L159 93z"/>
<path style="fill:#a3a3a3; stroke:none;" d="M163 93L164 94L163 93M51 94L52 95L51 94z"/>
<path style="fill:#707070; stroke:none;" d="M56 94L57 95L56 94z"/>
<path style="fill:#4e4e4e; stroke:none;" d="M68 94L69 95L68 94z"/>
<path style="fill:#a3a3a3; stroke:none;" d="M123 94L124 95L123 94M136 94L136 99L137 99L136 94M140 94L141 95L140 94M143 94L144 95L143 94z"/>
<path style="fill:#707070; stroke:none;" d="M147 94L148 95L147 94z"/>
<path style="fill:#4e4e4e; stroke:none;" d="M163 94L164 95L163 94z"/>
<path style="fill:#a3a3a3; stroke:none;" d="M52 95L53 96L52 95z"/>
<path style="fill:#707070; stroke:none;" d="M57 95L58 96L57 95z"/>
<path style="fill:#4e4e4e; stroke:none;" d="M69 95L70 96L69 95M73 95L74 96L73 95z"/>
<path style="fill:#707070; stroke:none;" d="M77 95L78 96L77 95M87 95L88 96L87 95z"/>
<path style="fill:#a3a3a3; stroke:none;" d="M122 95L123 96L122 95M127 95L128 96L127 95z"/>
<path style="fill:#4e4e4e; stroke:none;" d="M144 95L145 96L144 95z"/>
<path style="fill:#a3a3a3; stroke:none;" d="M148 95L149 96L148 95M160 95L161 96L160 95M164 95L165 96L164 95M53 96L54 97L53 96z"/>
<path style="fill:#707070; stroke:none;" d="M58 96L59 97L58 96z"/>
<path style="fill:#4e4e4e; stroke:none;" d="M70 96L71 97L70 96M77 96L78 97L77 96M84 96L84 98L86 98L84 96z"/>
<path style="fill:#a3a3a3; stroke:none;" d="M87 96L88 97L87 96M126 96L127 97L126 96M144 96L145 97L144 96z"/>
<path style="fill:#4e4e4e; stroke:none;" d="M148 96L149 97L148 96M161 96L162 97L161 96M164 96L165 97L164 96z"/>
<path style="fill:#707070; stroke:none;" d="M59 97L60 98L59 97z"/>
<path style="fill:#4e4e4e; stroke:none;" d="M71 97L72 98L71 97z"/>
<path style="fill:#707070; stroke:none;" d="M125 97L126 98L125 97M145 97L146 98L145 97z"/>
<path style="fill:#a3a3a3; stroke:none;" d="M149 97L150 98L149 97M161 97L162 98L161 97M55 98L56 99L55 98z"/>
<path style="fill:#707070; stroke:none;" d="M60 98L61 99L60 98z"/>
<path style="fill:#4e4e4e; stroke:none;" d="M72 98L73 99L72 98z"/>
<path style="fill:#a3a3a3; stroke:none;" d="M78 98L79 99L78 98M84 98L85 99L84 98z"/>
<path style="fill:#4e4e4e; stroke:none;" d="M124 98L125 99L124 98z"/>
<path style="fill:#a3a3a3; stroke:none;" d="M165 98L166 99L165 98M56 99L57 100L56 99z"/>
<path style="fill:#4e4e4e; stroke:none;" d="M61 99L62 100L61 99z"/>
<path style="fill:#a3a3a3; stroke:none;" d="M62 99L62 100L73 100L62 99z"/>
<path style="fill:#707070; stroke:none;" d="M78 99L79 100L78 99z"/>
<path style="fill:#a3a3a3; stroke:none;" d="M111 99L112 100L111 99z"/>
<path style="fill:#707070; stroke:none;" d="M112 99L113 100L112 99z"/>
<path style="fill:#4e4e4e; stroke:none;" d="M123 99L124 100L123 99z"/>
<path style="fill:#707070; stroke:none;" d="M140 99L141 100L140 99z"/>
<path style="fill:#a3a3a3; stroke:none;" d="M146 99L147 100L146 99M150 99L151 100L150 99z"/>
<path style="fill:#707070; stroke:none;" d="M165 99L166 100L165 99z"/>
<path style="fill:#a3a3a3; stroke:none;" d="M57 100L58 101L57 100M109 100L110 101L109 100z"/>
<path style="fill:#4e4e4e; stroke:none;" d="M110 100L111 101L110 100M112 100L113 101L112 100M122 100L123 101L122 100M137 100L138 101L137 100z"/>
<path style="fill:#a3a3a3; stroke:none;" d="M141 100L142 101L141 100z"/>
<path style="fill:#707070; stroke:none;" d="M146 100L147 101L146 100M162 100L163 101L162 100z"/>
<path style="fill:#4e4e4e; stroke:none;" d="M165 100L166 101L165 100z"/>
<path style="fill:#a3a3a3; stroke:none;" d="M58 101L59 102L58 101z"/>
<path style="fill:#707070; stroke:none;" d="M79 101L80 102L79 101M112 101L113 102L112 101z"/>
<path style="fill:#a3a3a3; stroke:none;" d="M116 101L117 102L116 101z"/>
<path style="fill:#707070; stroke:none;" d="M122.333 101.667L122.667 102.333L122.333 101.667z"/>
<path style="fill:#a3a3a3; stroke:none;" d="M137 101L138 102L137 101z"/>
<path style="fill:#707070; stroke:none;" d="M142 101L143 102L142 101z"/>
<path style="fill:#a3a3a3; stroke:none;" d="M143.667 101.333L144.333 101.667L143.667 101.333z"/>
<path style="fill:#707070; stroke:none;" d="M145 101L146 102L145 101z"/>
<path style="fill:#a3a3a3; stroke:none;" d="M151 101L152 102L151 101M162 101L162 109L163 109L162 101M59 102L60 103L59 102M112 102L112 105L113 105L112 102M115 102L116 103L115 102M138 102L139 103L138 102z"/>
<path style="fill:#707070; stroke:none;" d="M151 102L152 103L151 102z"/>
<path style="fill:#a3a3a3; stroke:none;" d="M76 103L77 104L76 103z"/>
<path style="fill:#707070; stroke:none;" d="M80 103L81 104L80 103M102 103L103 104L102 103z"/>
<path style="fill:#a3a3a3; stroke:none;" d="M103 103L103 107L104 107L103 103z"/>
<path style="fill:#707070; stroke:none;" d="M114 103L115 104L114 103z"/>
<path style="fill:#a3a3a3; stroke:none;" d="M122.333 103.667L122.667 104.333L122.333 103.667M139 103L140 104L139 103z"/>
<path style="fill:#4e4e4e; stroke:none;" d="M148 103L149 104L148 103M76 104L77 105L76 104z"/>
<path style="fill:#a3a3a3; stroke:none;" d="M81 104L82 105L81 104z"/>
<path style="fill:#4e4e4e; stroke:none;" d="M100 104L101 105L100 104z"/>
<path style="fill:#a3a3a3; stroke:none;" d="M108.333 104.667L108.667 105.333L108.333 104.667z"/>
<path style="fill:#4e4e4e; stroke:none;" d="M113 104L114 105L113 104z"/>
<path style="fill:#707070; stroke:none;" d="M118 104L117 106L118 104M141 104L142 105L141 104z"/>
<path style="fill:#4e4e4e; stroke:none;" d="M142 104L143 105L142 104M145 104L146 105L145 104z"/>
<path style="fill:#707070; stroke:none;" d="M146 104L147 105L146 104z"/>
<path style="fill:#a3a3a3; stroke:none;" d="M148 104L149 105L148 104M74 105L75 106L74 105z"/>
<path style="fill:#fefefe; stroke:none;" d="M118 105L95 120C105.836 127.311 118.236 136.158 124.566 148C127.396 153.294 124.912 159.438 126.434 165C128.379 172.11 135.619 175.149 142 177C140.043 180.318 138.308 184.976 134.815 186.972C129.539 189.986 123.711 185.915 121 193C125.833 193 133.205 194.393 137.671 192.397C143.881 189.62 150.198 174.242 152 168C140.829 161.869 145 139.894 145 129C128.093 128.64 124.295 117.993 118 105z"/>
<path style="fill:#4e4e4e; stroke:none;" d="M119.333 105.667L119.667 106.333L119.333 105.667z"/>
<path style="fill:#707070; stroke:none;" d="M122.333 105.667L122.667 106.333L122.333 105.667z"/>
<path style="fill:#a3a3a3; stroke:none;" d="M152 105L153 106L152 105M73 106L74 107L73 106z"/>
<path style="fill:#707070; stroke:none;" d="M82 106L83 107L82 106z"/>
<path style="fill:#a3a3a3; stroke:none;" d="M91.6667 106.333L92.3333 106.667L91.6667 106.333z"/>
<path style="fill:#4e4e4e; stroke:none;" d="M93 106L94 107L93 106z"/>
<path style="fill:#a3a3a3; stroke:none;" d="M94 106L94 110L95 110L94 106z"/>
<path style="fill:#4e4e4e; stroke:none;" d="M108 106L109 107L108 106z"/>
<path style="fill:#a3a3a3; stroke:none;" d="M116 106L117 107L116 106z"/>
<path style="fill:#707070; stroke:none;" d="M152 106L153 107L152 106z"/>
<path style="fill:#4e4e4e; stroke:none;" d="M72 107L73 108L72 107M77 107L78 108L77 107z"/>
<path style="fill:#fefefe; stroke:none;" d="M78 107L62 118.644L47 118C58.0648 131.003 71.7103 124.891 85 119L78 107z"/>
<path style="fill:#4e4e4e; stroke:none;" d="M79 107L80 108L79 107z"/>
<path style="fill:#a3a3a3; stroke:none;" d="M83 107L84 108L83 107M99.3333 107.667L99.6667 108.333L99.3333 107.667z"/>
<path style="fill:#707070; stroke:none;" d="M119 107L120 108L119 107z"/>
<path style="fill:#4e4e4e; stroke:none;" d="M122 107L123 108L122 107z"/>
<path style="fill:#707070; stroke:none;" d="M149 107L150 108L149 107z"/>
<path style="fill:#4e4e4e; stroke:none;" d="M152 107L153 108L152 107z"/>
<path style="fill:#707070; stroke:none;" d="M76 108L77 109L76 108z"/>
<path style="fill:#a3a3a3; stroke:none;" d="M79 108L80 109L79 108z"/>
<path style="fill:#707070; stroke:none;" d="M107 108L108 109L107 108M113 108L114 109L113 108z"/>
<path style="fill:#a3a3a3; stroke:none;" d="M119.333 108.667L119.667 109.333L119.333 108.667M149 108L149 116L150 116L149 108z"/>
<path style="fill:#4e4e4e; stroke:none;" d="M165.333 108.667L165.667 109.333L165.333 108.667z"/>
<path style="fill:#a3a3a3; stroke:none;" d="M69 109L70 110L69 109M75 109L76 110L75 109z"/>
<path style="fill:#707070; stroke:none;" d="M80 109L81 110L80 109M84 109L85 110L84 109z"/>
<path style="fill:#a3a3a3; stroke:none;" d="M90 109L90 112L91 112L90 109z"/>
<path style="fill:#707070; stroke:none;" d="M99 109L100 110L99 109z"/>
<path style="fill:#4e4e4e; stroke:none;" d="M102 109L103 110L102 109z"/>
<path style="fill:#a3a3a3; stroke:none;" d="M105 109L106 110L105 109z"/>
<path style="fill:#4e4e4e; stroke:none;" d="M106 109L107 110L106 109z"/>
<path style="fill:#a3a3a3; stroke:none;" d="M112 109L113 110L112 109z"/>
<path style="fill:#4e4e4e; stroke:none;" d="M162 109L163 110L162 109z"/>
<path style="fill:#707070; stroke:none;" d="M68 110L69 111L68 110z"/>
<path style="fill:#4e4e4e; stroke:none;" d="M81 110L82 111L81 110z"/>
<path style="fill:#a3a3a3; stroke:none;" d="M85 110L86 111L85 110z"/>
<path style="fill:#707070; stroke:none;" d="M102 110L103 111L102 110M104 110L105 111L104 110z"/>
<path style="fill:#4e4e4e; stroke:none;" d="M110 110L111 111L110 110z"/>
<path style="fill:#a3a3a3; stroke:none;" d="M123 110L124 111L123 110M165.333 110.667L165.667 111.333L165.333 110.667z"/>
<path style="fill:#4e4e4e; stroke:none;" d="M67 111L68 112L67 111z"/>
<path style="fill:#707070; stroke:none;" d="M72 111L73 112L72 111z"/>
<path style="fill:#a3a3a3; stroke:none;" d="M81 111L82 112L81 111z"/>
<path style="fill:#4e4e4e; stroke:none;" d="M85 111L86 112L85 111M102 111L103 112L102 111z"/>
<path style="fill:#a3a3a3; stroke:none;" d="M109 111L110 112L109 111z"/>
<path style="fill:#4e4e4e; stroke:none;" d="M120 111L121 112L120 111M123 111L124 112L123 111z"/>
<path style="fill:#a3a3a3; stroke:none;" d="M161 111L162 112L161 111M49 112L50 113L49 112z"/>
<path style="fill:#707070; stroke:none;" d="M50 112L51 113L50 112z"/>
<path style="fill:#4e4e4e; stroke:none;" d="M51.6667 112.333L52.3333 112.667L51.6667 112.333z"/>
<path style="fill:#707070; stroke:none;" d="M53 112L54 113L53 112z"/>
<path style="fill:#a3a3a3; stroke:none;" d="M54 112L55 113L54 112M65 112L66 113L65 112M71 112L72 113L71 112z"/>
<path style="fill:#707070; stroke:none;" d="M82 112L83 113L82 112z"/>
<path style="fill:#a3a3a3; stroke:none;" d="M86 112L87 113L86 112z"/>
<path style="fill:#4e4e4e; stroke:none;" d="M90 112L91 113L90 112M93 112L94 113L93 112z"/>
<path style="fill:#a3a3a3; stroke:none;" d="M98 112L99 113L98 112z"/>
<path style="fill:#707070; stroke:none;" d="M107 112L108 113L107 112M120 112L121 113L120 112M161 112L162 113L161 112z"/>
<path style="fill:#a3a3a3; stroke:none;" d="M46 113L47 114L46 113z"/>
<path style="fill:#4e4e4e; stroke:none;" d="M47 113L48 114L47 113M56 113L57 114L56 113z"/>
<path style="fill:#a3a3a3; stroke:none;" d="M57 113L58 114L57 113M64 113L65 114L64 113M70 113L71 114L70 113z"/>
<path style="fill:#707070; stroke:none;" d="M93 113L94 114L93 113z"/>
<path style="fill:#4e4e4e; stroke:none;" d="M98 113L99 114L98 113M105 113L106 114L105 113z"/>
<path style="fill:#a3a3a3; stroke:none;" d="M106 113L107 114L106 113z"/>
<path style="fill:#707070; stroke:none;" d="M124 113L125 114L124 113M164 113L165 114L164 113z"/>
<path style="fill:#a3a3a3; stroke:none;" d="M45 114L46 115L45 114z"/>
<path style="fill:#4e4e4e; stroke:none;" d="M58 114L59 115L58 114z"/>
<path style="fill:#707070; stroke:none;" d="M63 114L64 115L63 114z"/>
<path style="fill:#4e4e4e; stroke:none;" d="M68 114L69 115L68 114z"/>
<path style="fill:#a3a3a3; stroke:none;" d="M83 114L84 115L83 114M87 114L88 115L87 114M89 114L90 115L89 114M93 114L94 115L93 114M96 114L97 115L96 114z"/>
<path style="fill:#4e4e4e; stroke:none;" d="M97 114L98 115L97 114z"/>
<path style="fill:#a3a3a3; stroke:none;" d="M104 114L105 115L104 114z"/>
<path style="fill:#4e4e4e; stroke:none;" d="M121 114L122 115L121 114z"/>
<path style="fill:#a3a3a3; stroke:none;" d="M160 114L161 115L160 114M164 114L165 115L164 114z"/>
<path style="fill:#4e4e4e; stroke:none;" d="M44 115L45 116L44 115M51 115L51 116L54 116L51 115z"/>
<path style="fill:#707070; stroke:none;" d="M60 115L61 116L60 115z"/>
<path style="fill:#a3a3a3; stroke:none;" d="M61 115L62 116L61 115z"/>
<path style="fill:#4e4e4e; stroke:none;" d="M62 115L63 116L62 115z"/>
<path style="fill:#707070; stroke:none;" d="M67 115L68 116L67 115z"/>
<path style="fill:#4e4e4e; stroke:none;" d="M84 115L85 116L84 115z"/>
<path style="fill:#707070; stroke:none;" d="M89 115L90 116L89 115z"/>
<path style="fill:#a3a3a3; stroke:none;" d="M94 115L95 116L94 115z"/>
<path style="fill:#707070; stroke:none;" d="M102 115L103 116L102 115z"/>
<path style="fill:#a3a3a3; stroke:none;" d="M121 115L122 116L121 115z"/>
<path style="fill:#707070; stroke:none;" d="M125 115L126 116L125 115z"/>
<path style="fill:#4e4e4e; stroke:none;" d="M163 115L164 116L163 115M43 116L44 117L43 116z"/>
<path style="fill:#707070; stroke:none;" d="M48 116L49 117L48 116z"/>
<path style="fill:#a3a3a3; stroke:none;" d="M49 116L50 117L49 116z"/>
<path style="fill:#707070; stroke:none;" d="M55 116L56 117L55 116z"/>
<path style="fill:#a3a3a3; stroke:none;" d="M66 116L67 117L66 116M84 116L85 117L84 116M88 116L89 117L88 116z"/>
<path style="fill:#4e4e4e; stroke:none;" d="M89 116L90 117L89 116z"/>
<path style="fill:#707070; stroke:none;" d="M100 116L101 117L100 116z"/>
<path style="fill:#4e4e4e; stroke:none;" d="M122 116L123 117L122 116z"/>
<path style="fill:#707070; stroke:none;" d="M149 116L150 117L149 116M159 116L160 117L159 116z"/>
<path style="fill:#a3a3a3; stroke:none;" d="M163 116L164 117L163 116z"/>
<path style="fill:#707070; stroke:none;" d="M42 117L43 118L42 117z"/>
<path style="fill:#a3a3a3; stroke:none;" d="M47 117L48 118L47 117z"/>
<path style="fill:#4e4e4e; stroke:none;" d="M57 117L58 118L57 117z"/>
<path style="fill:#707070; stroke:none;" d="M98 117L99 118L98 117z"/>
<path style="fill:#a3a3a3; stroke:none;" d="M122 117L123 118L122 117z"/>
<path style="fill:#4e4e4e; stroke:none;" d="M126 117L127 118L126 117M149 117L150 118L149 117M152 117L153 118L152 117z"/>
<path style="fill:#a3a3a3; stroke:none;" d="M158 117L159 118L158 117z"/>
<path style="fill:#4e4e4e; stroke:none;" d="M162 117L163 118L162 117z"/>
<path style="fill:#a3a3a3; stroke:none;" d="M41 118L42 119L41 118M46 118L48 120L46 118M58 118L59 119L58 118z"/>
<path style="fill:#4e4e4e; stroke:none;" d="M59 118L60 119L59 118z"/>
<path style="fill:#707070; stroke:none;" d="M63 118L64 119L63 118M85 118L86 119L85 118M96 118L97 119L96 118M123 118L124 119L123 118z"/>
<path style="fill:#4e4e4e; stroke:none;" d="M127 118L128 119L127 118z"/>
<path style="fill:#707070; stroke:none;" d="M152 118L153 119L152 118z"/>
<path style="fill:#4e4e4e; stroke:none;" d="M46 119L47 120L46 119z"/>
<path style="fill:#a3a3a3; stroke:none;" d="M60 119L61 120L60 119M62 119L63 120L62 119M84 119L85 120L84 119z"/>
<path style="fill:#4e4e4e; stroke:none;" d="M85 119L86 120L85 119z"/>
<path style="fill:#a3a3a3; stroke:none;" d="M94 119L96 121L94 119z"/>
<path style="fill:#707070; stroke:none;" d="M128 119L129 120L128 119z"/>
<path style="fill:#a3a3a3; stroke:none;" d="M152 119L153 120L152 119z"/>
<path style="fill:#4e4e4e; stroke:none;" d="M157 119L158 120L157 119z"/>
<path style="fill:#a3a3a3; stroke:none;" d="M161 119L162 120L161 119z"/>
<path style="fill:#707070; stroke:none;" d="M42 120L43 121L42 120z"/>
<path style="fill:#4e4e4e; stroke:none;" d="M48 120L49 121L48 120z"/>
<path style="fill:#a3a3a3; stroke:none;" d="M81 120L82 121L81 120z"/>
<path style="fill:#4e4e4e; stroke:none;" d="M82 120L83 121L82 120M94 120L95 121L94 120M129 120L130 121L129 120z"/>
<path style="fill:#a3a3a3; stroke:none;" d="M148 120L149 121L148 120z"/>
<path style="fill:#4e4e4e; stroke:none;" d="M156 120L157 121L156 120M160 120L161 121L160 120z"/>
<path style="fill:#a3a3a3; stroke:none;" d="M43 121L44 122L43 121z"/>
<path style="fill:#4e4e4e; stroke:none;" d="M44 121L45 122L44 121z"/>
<path style="fill:#a3a3a3; stroke:none;" d="M50 121L51 122L50 121M78 121L79 122L78 121z"/>
<path style="fill:#4e4e4e; stroke:none;" d="M79 121L80 122L79 121z"/>
<path style="fill:#a3a3a3; stroke:none;" d="M97 121L98 122L97 121M125 121L126 122L125 121M131 121L132 122L131 121z"/>
<path style="fill:#4e4e4e; stroke:none;" d="M148 121L149 122L148 121M151 121L152 122L151 121M155 121L156 122L155 121M159 121L160 122L159 121z"/>
<path style="fill:#a3a3a3; stroke:none;" d="M45 122L46 123L45 122z"/>
<path style="fill:#4e4e4e; stroke:none;" d="M51 122L52 123L51 122z"/>
<path style="fill:#a3a3a3; stroke:none;" d="M52 122L53 123L52 122M75 122L76 123L75 122z"/>
<path style="fill:#707070; stroke:none;" d="M76 122L77 123L76 122z"/>
<path style="fill:#4e4e4e; stroke:none;" d="M85 122L86 123L85 122z"/>
<path style="fill:#a3a3a3; stroke:none;" d="M86 122L87 123L86 122M89.6667 122.333L90.3333 122.667L89.6667 122.333z"/>
<path style="fill:#4e4e4e; stroke:none;" d="M91 122L92 123L91 122M98 122L99 123L98 122z"/>
<path style="fill:#a3a3a3; stroke:none;" d="M126 122L127 123L126 122z"/>
<path style="fill:#707070; stroke:none;" d="M132 122L133 123L132 122M151 122L152 123L151 122z"/>
<path style="fill:#a3a3a3; stroke:none;" d="M153 122L154 123L153 122z"/>
<path style="fill:#4e4e4e; stroke:none;" d="M47 123L48 124L47 123z"/>
<path style="fill:#707070; stroke:none;" d="M53 123L54 124L53 123z"/>
<path style="fill:#a3a3a3; stroke:none;" d="M72 123L73 124L72 123z"/>
<path style="fill:#707070; stroke:none;" d="M73 123L74 124L73 123M83 123L84 124L83 123z"/>
<path style="fill:#a3a3a3; stroke:none;" d="M84 123L85 124L84 123M93 123L94 124L93 123z"/>
<path style="fill:#707070; stroke:none;" d="M100 123L101 124L100 123z"/>
<path style="fill:#4e4e4e; stroke:none;" d="M128 123L129 124L128 123z"/>
<path style="fill:#707070; stroke:none;" d="M134 123L135 124L134 123z"/>
<path style="fill:#a3a3a3; stroke:none;" d="M135 123L136 124L135 123M147 123L148 124L147 123M151.667 123.333L152.333 123.667L151.667 123.333z"/>
<path style="fill:#4e4e4e; stroke:none;" d="M157 123L158 124L157 123z"/>
<path style="fill:#a3a3a3; stroke:none;" d="M48 124L49 125L48 124M55 124L56 125L55 124M70 124L71 125L70 124z"/>
<path style="fill:#4e4e4e; stroke:none;" d="M71 124L72 125L71 124z"/>
<path style="fill:#707070; stroke:none;" d="M80 124L81 125L80 124z"/>
<path style="fill:#a3a3a3; stroke:none;" d="M81 124L82 125L81 124M95 124L96 125L95 124z"/>
<path style="fill:#4e4e4e; stroke:none;" d="M101 124L102 125L101 124z"/>
<path style="fill:#707070; stroke:none;" d="M129 124L130 125L129 124z"/>
<path style="fill:#4e4e4e; stroke:none;" d="M136 124L137 125L136 124z"/>
<path style="fill:#707070; stroke:none;" d="M137 124L138 125L137 124z"/>
<path style="fill:#a3a3a3; stroke:none;" d="M138 124L139 125L138 124z"/>
<path style="fill:#4e4e4e; stroke:none;" d="M151 124L152 125L151 124M156 124L157 125L156 124z"/>
<path style="fill:#707070; stroke:none;" d="M50 125L51 126L50 125z"/>
<path style="fill:#4e4e4e; stroke:none;" d="M56 125L57 126L56 125z"/>
<path style="fill:#a3a3a3; stroke:none;" d="M57 125L58 126L57 125M67 125L68 126L67 125z"/>
<path style="fill:#4e4e4e; stroke:none;" d="M68 125L69 126L68 125z"/>
<path style="fill:#707070; stroke:none;" d="M77 125L78 126L77 125z"/>
<path style="fill:#a3a3a3; stroke:none;" d="M78 125L79 126L78 125z"/>
<path style="fill:#4e4e4e; stroke:none;" d="M97 125L98 126L97 125z"/>
<path style="fill:#a3a3a3; stroke:none;" d="M103 125L104 126L103 125M130 125L131 126L130 125z"/>
<path style="fill:#4e4e4e; stroke:none;" d="M131 125L132 126L131 125M140 125L141 126L140 125z"/>
<path style="fill:#707070; stroke:none;" d="M141.667 125.333L142.333 125.667L141.667 125.333z"/>
<path style="fill:#a3a3a3; stroke:none;" d="M143 125L143 126L146 126L143 125z"/>
<path style="fill:#707070; stroke:none;" d="M146 125L147 126L146 125z"/>
<path style="fill:#a3a3a3; stroke:none;" d="M155 125L156 126L155 125z"/>
<path style="fill:#4e4e4e; stroke:none;" d="M52 126L53 127L52 126z"/>
<path style="fill:#707070; stroke:none;" d="M58 126L59 127L58 126z"/>
<path style="fill:#a3a3a3; stroke:none;" d="M64 126L65 127L64 126z"/>
<path style="fill:#4e4e4e; stroke:none;" d="M65 126L66 127L65 126M74 126L75 127L74 126z"/>
<path style="fill:#a3a3a3; stroke:none;" d="M75 126L76 127L75 126z"/>
<path style="fill:#707070; stroke:none;" d="M96 126L97 127L96 126M104 126L105 127L104 126z"/>
<path style="fill:#a3a3a3; stroke:none;" d="M132 126L133 127L132 126z"/>
<path style="fill:#707070; stroke:none;" d="M133 126L134 127L133 126z"/>
<path style="fill:#4e4e4e; stroke:none;" d="M153 126L154 127L153 126z"/>
<path style="fill:#a3a3a3; stroke:none;" d="M53 127L54 128L53 127M60.6667 127.333L61.3333 127.667L60.6667 127.333z"/>
<path style="fill:#707070; stroke:none;" d="M62 127L63 128L62 127z"/>
<path style="fill:#4e4e4e; stroke:none;" d="M71 127L72 128L71 127z"/>
<path style="fill:#a3a3a3; stroke:none;" d="M72 127L73 128L72 127M94 127L95 128L94 127z"/>
<path style="fill:#4e4e4e; stroke:none;" d="M95 127L96 128L95 127M105 127L106 128L105 127z"/>
<path style="fill:#a3a3a3; stroke:none;" d="M135 127L136 128L135 127z"/>
<path style="fill:#4e4e4e; stroke:none;" d="M136 127L137 128L136 127M151 127L152 128L151 127z"/>
<path style="fill:#a3a3a3; stroke:none;" d="M152 127L153 128L152 127z"/>
<path style="fill:#707070; stroke:none;" d="M55 128L56 129L55 128z"/>
<path style="fill:#a3a3a3; stroke:none;" d="M69 128L70 129L69 128M93 128L94 129L93 128M138.667 128.333L139.333 128.667L138.667 128.333z"/>
<path style="fill:#707070; stroke:none;" d="M140 128L141 129L140 128z"/>
<path style="fill:#4e4e4e; stroke:none;" d="M141 128L142 129L141 128M149 128L150 129L149 128z"/>
<path style="fill:#a3a3a3; stroke:none;" d="M150 128L151 129L150 128M56 129L57 130L56 129z"/>
<path style="fill:#4e4e4e; stroke:none;" d="M57 129L58 130L57 129z"/>
<path style="fill:#707070; stroke:none;" d="M66 129L67 130L66 129z"/>
<path style="fill:#a3a3a3; stroke:none;" d="M92 129L93 130L92 129M98.6667 129.333L99.3333 129.667L98.6667 129.333M108 129L109 130L108 129M145 129L145 158L146 158L145 129M58 130L59 131L58 130z"/>
<path style="fill:#707070; stroke:none;" d="M63 130L64 131L63 130z"/>
<path style="fill:#a3a3a3; stroke:none;" d="M64 130L65 131L64 130z"/>
<path style="fill:#707070; stroke:none;" d="M91 130L92 131L91 130M96 130L97 131L96 130z"/>
<path style="fill:#fefefe; stroke:none;" d="M70 176C74.8493 176 82.1863 177.382 86.6744 175.397C97.5953 170.565 99.5136 151.688 108 144L100 130C92.7459 132.036 86.3453 140.141 88.4344 148C89.2666 151.131 92.6365 153.688 92.5571 157C92.4823 160.119 89.3652 163.568 87.652 165.995C82.838 172.815 72.6532 169.4 70 176z"/>
<path style="fill:#707070; stroke:none;" d="M103 130L104 131L103 130z"/>
<path style="fill:#4e4e4e; stroke:none;" d="M104 130L103 132L104 130z"/>
<path style="fill:#a3a3a3; stroke:none;" d="M109 130L110 131L109 130M149 130L149 133L150 133L149 130z"/>
<path style="fill:#707070; stroke:none;" d="M60 131L61 132L60 131z"/>
<path style="fill:#a3a3a3; stroke:none;" d="M61 131L62 132L61 131M90 131L91 132L90 131M95 131L96 132L95 131z"/>
<path style="fill:#4e4e4e; stroke:none;" d="M100 131L101 132L100 131z"/>
<path style="fill:#fefefe; stroke:none;" d="M104 131C105.627 136.634 107.804 140.529 114 141L104 131z"/>
<path style="fill:#707070; stroke:none;" d="M105 131L106 132L105 131z"/>
<path style="fill:#a3a3a3; stroke:none;" d="M110 131L111 132L110 131M89 132L90 133L89 132M94 132L95 133L94 132M100.333 132.667L100.667 133.333L100.333 132.667z"/>
<path style="fill:#707070; stroke:none;" d="M106 132L107 133L106 132z"/>
<path style="fill:#a3a3a3; stroke:none;" d="M111 132L112 133L111 132M88 133L89 134L88 133M93 133L94 134L93 133M104 133L105 134L104 133M107 133L108 134L107 133M112 133L113 134L112 133M92 134L93 135L92 134z"/>
<path style="fill:#4e4e4e; stroke:none;" d="M101 134L102 135L101 134M104 134L105 135L104 134z"/>
<path style="fill:#a3a3a3; stroke:none;" d="M108 134L109 135L108 134M113 134L114 135L113 134z"/>
<path style="fill:#4e4e4e; stroke:none;" d="M149 134L150 135L149 134z"/>
<path style="fill:#707070; stroke:none;" d="M150 134L150 135L154 135L150 134z"/>
<path style="fill:#a3a3a3; stroke:none;" d="M154 134L155 135L154 134z"/>
<path style="fill:#4e4e4e; stroke:none;" d="M87 135L88 136L87 135z"/>
<path style="fill:#707070; stroke:none;" d="M91 135L92 136L91 135z"/>
<path style="fill:#a3a3a3; stroke:none;" d="M101 135L102 136L101 135M105 135L106 136L105 135M109 135L110 136L109 135M114 135L115 136L114 135z"/>
<path style="fill:#707070; stroke:none;" d="M155 135L156 136L155 135z"/>
<path style="fill:#a3a3a3; stroke:none;" d="M86 136L87 137L86 136z"/>
<path style="fill:#4e4e4e; stroke:none;" d="M90 136L91 137L90 136M105 136L106 137L105 136z"/>
<path style="fill:#a3a3a3; stroke:none;" d="M110 136L111 137L110 136M115 136L116 137L115 136z"/>
<path style="fill:#707070; stroke:none;" d="M156 136L157 137L156 136M102 137L103 138L102 137z"/>
<path style="fill:#a3a3a3; stroke:none;" d="M106 137L107 138L106 137M111 137L112 138L111 137M116 137L117 138L116 137z"/>
<path style="fill:#4e4e4e; stroke:none;" d="M149 137L149 138L153 138L149 137z"/>
<path style="fill:#707070; stroke:none;" d="M157 137L158 138L157 137M85 138L86 139L85 138z"/>
<path style="fill:#a3a3a3; stroke:none;" d="M89 138L90 139L89 138M112 138L113 139L112 138M117 138L118 139L117 138M149 138L149 161L150 161L149 138z"/>
<path style="fill:#fefefe; stroke:none;" d="M150 138C150 147.813 145.673 164.842 159 165C156.084 169.764 148.117 179.215 148.994 185C150.817 197.033 173.726 193 182 193C182 185.614 183.964 174.963 181.397 168C178.135 159.153 158.97 140.518 150 138z"/>
<path style="fill:#a3a3a3; stroke:none;" d="M153 138L154 139L153 138z"/>
<path style="fill:#707070; stroke:none;" d="M158 138L159 139L158 138z"/>
<path style="fill:#4e4e4e; stroke:none;" d="M88 139L89 140L88 139z"/>
<path style="fill:#a3a3a3; stroke:none;" d="M103 139L104 140L103 139z"/>
<path style="fill:#4e4e4e; stroke:none;" d="M107 139L108 140L107 139z"/>
<path style="fill:#707070; stroke:none;" d="M113 139L114 140L113 139z"/>
<path style="fill:#a3a3a3; stroke:none;" d="M154 139L155 140L154 139z"/>
<path style="fill:#707070; stroke:none;" d="M159 139L160 140L159 139z"/>
<path style="fill:#a3a3a3; stroke:none;" d="M84 140L85 141L84 140M88 140L89 141L88 140z"/>
<path style="fill:#4e4e4e; stroke:none;" d="M104 140L105 141L104 140M108 140L109 141L108 140z"/>
<path style="fill:#707070; stroke:none;" d="M114.333 140.667L114.667 141.333L114.333 140.667z"/>
<path style="fill:#a3a3a3; stroke:none;" d="M155 140L156 141L155 140z"/>
<path style="fill:#707070; stroke:none;" d="M160 140L161 141L160 140z"/>
<path style="fill:#4e4e4e; stroke:none;" d="M84 141L85 142L84 141z"/>
<path style="fill:#a3a3a3; stroke:none;" d="M110 141L110 142L114 142L110 141z"/>
<path style="fill:#4e4e4e; stroke:none;" d="M119 141L120 142L119 141z"/>
<path style="fill:#a3a3a3; stroke:none;" d="M156 141L157 142L156 141z"/>
<path style="fill:#707070; stroke:none;" d="M161 141L162 142L161 141M87 142L88 143L87 142z"/>
<path style="fill:#a3a3a3; stroke:none;" d="M105 142L106 143L105 142z"/>
<path style="fill:#707070; stroke:none;" d="M120 142L121 143L120 142z"/>
<path style="fill:#a3a3a3; stroke:none;" d="M157 142L158 143L157 142z"/>
<path style="fill:#707070; stroke:none;" d="M162 142L163 143L162 142z"/>
<path style="fill:#a3a3a3; stroke:none;" d="M87 143L87 147L88 147L87 143z"/>
<path style="fill:#4e4e4e; stroke:none;" d="M107 143L108 144L107 143z"/>
<path style="fill:#a3a3a3; stroke:none;" d="M121 143L122 144L121 143M158 143L159 144L158 143z"/>
<path style="fill:#707070; stroke:none;" d="M163 143L164 144L163 143z"/>
<path style="fill:#4e4e4e; stroke:none;" d="M115 144L116 145L115 144z"/>
<path style="fill:#a3a3a3; stroke:none;" d="M116.667 144.333L117.333 144.667L116.667 144.333M122 144L123 145L122 144M159 144L160 145L159 144z"/>
<path style="fill:#707070; stroke:none;" d="M164 144L165 145L164 144M106 145L107 146L106 145z"/>
<path style="fill:#4e4e4e; stroke:none;" d="M113 145L114 146L113 145z"/>
<path style="fill:#a3a3a3; stroke:none;" d="M114 145L115 146L114 145M118 145L119 146L118 145M160 145L161 146L160 145z"/>
<path style="fill:#707070; stroke:none;" d="M165 145L166 146L165 145z"/>
<path style="fill:#a3a3a3; stroke:none;" d="M104 146L105 147L104 146z"/>
<path style="fill:#4e4e4e; stroke:none;" d="M111 146L112 147L111 146z"/>
<path style="fill:#a3a3a3; stroke:none;" d="M112 146L113 147L112 146M119 146L120 147L119 146M161 146L162 147L161 146z"/>
<path style="fill:#707070; stroke:none;" d="M166 146L167 147L166 146z"/>
<path style="fill:#4e4e4e; stroke:none;" d="M84 147L85 148L84 147z"/>
<path style="fill:#707070; stroke:none;" d="M87 147L88 148L87 147M103 147L104 148L103 147z"/>
<path style="fill:#4e4e4e; stroke:none;" d="M109 147L110 148L109 147z"/>
<path style="fill:#a3a3a3; stroke:none;" d="M110 147L111 148L110 147z"/>
<path style="fill:#707070; stroke:none;" d="M120 147L121 148L120 147M124 147L125 148L124 147z"/>
<path style="fill:#a3a3a3; stroke:none;" d="M162 147L163 148L162 147z"/>
<path style="fill:#707070; stroke:none;" d="M167 147L168 148L167 147M84 148L85 149L84 148z"/>
<path style="fill:#4e4e4e; stroke:none;" d="M102 148L103 149L102 148M107 148L108 149L107 148M121 148L122 149L121 148z"/>
<path style="fill:#a3a3a3; stroke:none;" d="M125 148L125 164L126 164L125 148M163 148L164 149L163 148z"/>
<path style="fill:#707070; stroke:none;" d="M168 148L169 149L168 148z"/>
<path style="fill:#a3a3a3; stroke:none;" d="M84 149L85 150L84 149M88 149L89 150L88 149z"/>
<path style="fill:#707070; stroke:none;" d="M101 149L102 150L101 149z"/>
<path style="fill:#a3a3a3; stroke:none;" d="M106 149L107 150L106 149M121 149L122 150L121 149M164 149L165 150L164 149z"/>
<path style="fill:#707070; stroke:none;" d="M169 149L170 150L169 149z"/>
<path style="fill:#a3a3a3; stroke:none;" d="M165 150L166 151L165 150z"/>
<path style="fill:#707070; stroke:none;" d="M170 150L171 151L170 150z"/>
<path style="fill:#a3a3a3; stroke:none;" d="M85 151L86 152L85 151z"/>
<path style="fill:#707070; stroke:none;" d="M89 151L90 152L89 151M100 151L101 152L100 151z"/>
<path style="fill:#a3a3a3; stroke:none;" d="M104 151L105 152L104 151M166 151L167 152L166 151z"/>
<path style="fill:#707070; stroke:none;" d="M171 151L172 152L171 151z"/>
<path style="fill:#4e4e4e; stroke:none;" d="M86 152L87 153L86 152z"/>
<path style="fill:#a3a3a3; stroke:none;" d="M90 152L91 153L90 152z"/>
<path style="fill:#4e4e4e; stroke:none;" d="M100 152L101 153L100 152M103 152L104 153L103 152z"/>
<path style="fill:#a3a3a3; stroke:none;" d="M167 152L168 153L167 152z"/>
<path style="fill:#707070; stroke:none;" d="M172 152L173 153L172 152z"/>
<path style="fill:#a3a3a3; stroke:none;" d="M86 153L87 154L86 153M91 153L92 154L91 153M103 153L103 157L104 157L103 153M168 153L169 154L168 153z"/>
<path style="fill:#707070; stroke:none;" d="M173 153L174 154L173 153M87 154L88 155L87 154z"/>
<path style="fill:#a3a3a3; stroke:none;" d="M92 154L93 155L92 154M169 154L170 155L169 154z"/>
<path style="fill:#707070; stroke:none;" d="M174 154L175 155L174 154z"/>
<path style="fill:#4e4e4e; stroke:none;" d="M88 155L89 156L88 155z"/>
<path style="fill:#a3a3a3; stroke:none;" d="M93 155L94 156L93 155M170 155L171 156L170 155z"/>
<path style="fill:#707070; stroke:none;" d="M175 155L176 156L175 155M89.3333 156.667L89.6667 157.333L89.3333 156.667z"/>
<path style="fill:#a3a3a3; stroke:none;" d="M171 156L172 157L171 156z"/>
<path style="fill:#707070; stroke:none;" d="M176 156L177 157L176 156z"/>
<path style="fill:#a3a3a3; stroke:none;" d="M93 157L94 158L93 157z"/>
<path style="fill:#707070; stroke:none;" d="M103 157L104 158L103 157z"/>
<path style="fill:#a3a3a3; stroke:none;" d="M172 157L173 158L172 157z"/>
<path style="fill:#707070; stroke:none;" d="M177 157L178 158L177 157z"/>
<path style="fill:#a3a3a3; stroke:none;" d="M88 158L89 159L88 158z"/>
<path style="fill:#4e4e4e; stroke:none;" d="M92 158L93 159L92 158M99 158L100 159L99 158z"/>
<path style="fill:#a3a3a3; stroke:none;" d="M103 158L104 159L103 158M173 158L174 159L173 158z"/>
<path style="fill:#707070; stroke:none;" d="M178 158L179 159L178 158z"/>
<path style="fill:#a3a3a3; stroke:none;" d="M98 159L99 160L98 159z"/>
<path style="fill:#707070; stroke:none;" d="M102 159L103 160L102 159z"/>
<path style="fill:#a3a3a3; stroke:none;" d="M174 159L175 160L174 159z"/>
<path style="fill:#707070; stroke:none;" d="M179 159L180 160L179 159M87 160L88 161L87 160z"/>
<path style="fill:#a3a3a3; stroke:none;" d="M91 160L92 161L91 160M175 160L176 161L175 160z"/>
<path style="fill:#707070; stroke:none;" d="M180 160L181 161L180 160z"/>
<path style="fill:#a3a3a3; stroke:none;" d="M86 161L87 162L86 161z"/>
<path style="fill:#4e4e4e; stroke:none;" d="M90 161L91 162L90 161M97 161L98 162L97 161z"/>
<path style="fill:#a3a3a3; stroke:none;" d="M101 161L102 162L101 161z"/>
<path style="fill:#4e4e4e; stroke:none;" d="M146 161L147 162L146 161z"/>
<path style="fill:#707070; stroke:none;" d="M149 161L150 162L149 161z"/>
<path style="fill:#a3a3a3; stroke:none;" d="M176 161L177 162L176 161z"/>
<path style="fill:#707070; stroke:none;" d="M181 161L182 162L181 161z"/>
<path style="fill:#a3a3a3; stroke:none;" d="M96 162L97 163L96 162z"/>
<path style="fill:#707070; stroke:none;" d="M100 162L101 163L100 162M146 162L147 163L146 162z"/>
<path style="fill:#a3a3a3; stroke:none;" d="M177 162L178 163L177 162z"/>
<path style="fill:#707070; stroke:none;" d="M182 162L183 163L182 162M85 163L86 164L85 163z"/>
<path style="fill:#a3a3a3; stroke:none;" d="M89 163L90 164L89 163M146 163L147 164L146 163z"/>
<path style="fill:#707070; stroke:none;" d="M150 163L151 164L150 163z"/>
<path style="fill:#a3a3a3; stroke:none;" d="M178 163L179 164L178 163z"/>
<path style="fill:#707070; stroke:none;" d="M183 163L184 164L183 163z"/>
<path style="fill:#a3a3a3; stroke:none;" d="M84 164L85 165L84 164z"/>
<path style="fill:#4e4e4e; stroke:none;" d="M88 164L89 165L88 164M95 164L96 165L95 164z"/>
<path style="fill:#a3a3a3; stroke:none;" d="M99 164L100 165L99 164z"/>
<path style="fill:#4e4e4e; stroke:none;" d="M122 164L123 165L122 164M125 164L126 165L125 164M147 164L148 165L147 164z"/>
<path style="fill:#707070; stroke:none;" d="M151 164L152 165L151 164z"/>
<path style="fill:#a3a3a3; stroke:none;" d="M179 164L180 165L179 164z"/>
<path style="fill:#707070; stroke:none;" d="M184 164L185 165L184 164z"/>
<path style="fill:#a3a3a3; stroke:none;" d="M94 165L95 166L94 165z"/>
<path style="fill:#707070; stroke:none;" d="M98 165L99 166L98 165M122 165L123 166L122 165z"/>
<path style="fill:#a3a3a3; stroke:none;" d="M147 165L148 166L147 165z"/>
<path style="fill:#4e4e4e; stroke:none;" d="M154 165L154 166L158 166L154 165z"/>
<path style="fill:#a3a3a3; stroke:none;" d="M158 165L159 166L158 165M180 165L181 166L180 165z"/>
<path style="fill:#707070; stroke:none;" d="M185 165L186 166L185 165M83 166L84 167L83 166z"/>
<path style="fill:#a3a3a3; stroke:none;" d="M87 166L88 167L87 166M122 166L123 167L122 166M126 166L127 167L126 166M148 166L149 167L148 166M181 166L182 167L181 166z"/>
<path style="fill:#4e4e4e; stroke:none;" d="M185 166L185 197L186 197L185 166z"/>
<path style="fill:#a3a3a3; stroke:none;" d="M82 167L83 168L82 167z"/>
<path style="fill:#4e4e4e; stroke:none;" d="M86 167L87 168L86 167M93 167L94 168L93 167z"/>
<path style="fill:#a3a3a3; stroke:none;" d="M97 167L98 168L97 167z"/>
<path style="fill:#4e4e4e; stroke:none;" d="M123 167L124 168L123 167M150 167L151 168L150 167z"/>
<path style="fill:#a3a3a3; stroke:none;" d="M157 167L158 168L157 167z"/>
<path style="fill:#707070; stroke:none;" d="M182 167L182 193L183 193L182 167z"/>
<path style="fill:#a3a3a3; stroke:none;" d="M70 168L71 169L70 168z"/>
<path style="fill:#4e4e4e; stroke:none;" d="M71 168L72 169L71 168z"/>
<path style="fill:#a3a3a3; stroke:none;" d="M92 168L93 169L92 168z"/>
<path style="fill:#707070; stroke:none;" d="M96 168L97 169L96 168z"/>
<path style="fill:#a3a3a3; stroke:none;" d="M123 168L124 169L123 168z"/>
<path style="fill:#707070; stroke:none;" d="M127 168L128 169L127 168z"/>
<path style="fill:#a3a3a3; stroke:none;" d="M152 168L153 169L152 168z"/>
<path style="fill:#4e4e4e; stroke:none;" d="M156 168L157 169L156 168M69 169L70 170L69 169z"/>
<path style="fill:#a3a3a3; stroke:none;" d="M85 169L86 170L85 169M128 169L129 170L128 169z"/>
<path style="fill:#707070; stroke:none;" d="M152 169L153 170L152 169z"/>
<path style="fill:#a3a3a3; stroke:none;" d="M156 169L157 170L156 169z"/>
<path style="fill:#4e4e4e; stroke:none;" d="M68 170L69 171L68 170M84 170L85 171L84 170M91 170L92 171L91 170z"/>
<path style="fill:#a3a3a3; stroke:none;" d="M95 170L96 171L95 170M124 170L125 171L124 170M129 170L130 171L129 170M151 170L152 171L151 170z"/>
<path style="fill:#707070; stroke:none;" d="M155 170L156 171L155 170z"/>
<path style="fill:#a3a3a3; stroke:none;" d="M67 171L68 172L67 171M72 171L72 172L84 172L72 171M90 171L91 172L90 171z"/>
<path style="fill:#707070; stroke:none;" d="M94 171L95 172L94 171z"/>
<path style="fill:#a3a3a3; stroke:none;" d="M125 171L126 172L125 171M130 171L131 172L130 171z"/>
<path style="fill:#4e4e4e; stroke:none;" d="M126 172L127 173L126 172z"/>
<path style="fill:#a3a3a3; stroke:none;" d="M131 172L132 173L131 172M150 172L151 173L150 172z"/>
<path style="fill:#707070; stroke:none;" d="M154 172L155 173L154 172z"/>
<path style="fill:#a3a3a3; stroke:none;" d="M66 173L67 174L66 173M70 173L71 174L70 173z"/>
<path style="fill:#4e4e4e; stroke:none;" d="M89 173L90 174L89 173z"/>
<path style="fill:#a3a3a3; stroke:none;" d="M93 173L94 174L93 173z"/>
<path style="fill:#4e4e4e; stroke:none;" d="M127 173L128 174L127 173z"/>
<path style="fill:#707070; stroke:none;" d="M132 173L133 174L132 173z"/>
<path style="fill:#4e4e4e; stroke:none;" d="M69 174L70 175L69 174z"/>
<path style="fill:#a3a3a3; stroke:none;" d="M88 174L89 175L88 174z"/>
<path style="fill:#707070; stroke:none;" d="M92 174L93 175L92 174M128 174L129 175L128 174z"/>
<path style="fill:#a3a3a3; stroke:none;" d="M134 174L135 175L134 174z"/>
<path style="fill:#707070; stroke:none;" d="M149 174L150 175L149 174z"/>
<path style="fill:#a3a3a3; stroke:none;" d="M153 174L154 175L153 174M69 175C72.4129 178.906 82.0699 177 87 177L87 176L69 175M129 175L130 176L129 175z"/>
<path style="fill:#707070; stroke:none;" d="M136 175L137 176L136 175z"/>
<path style="fill:#4e4e4e; stroke:none;" d="M152 175L153 176L152 175z"/>
<path style="fill:#a3a3a3; stroke:none;" d="M65 176L66 177L65 176z"/>
<path style="fill:#4e4e4e; stroke:none;" d="M87 176L88 177L87 176z"/>
<path style="fill:#a3a3a3; stroke:none;" d="M91 176L92 177L91 176z"/>
<path style="fill:#4e4e4e; stroke:none;" d="M131 176L132 177L131 176M138 176L139 177L138 176z"/>
<path style="fill:#a3a3a3; stroke:none;" d="M139.667 176.333L140.333 176.667L139.667 176.333z"/>
<path style="fill:#4e4e4e; stroke:none;" d="M148 176L149 177L148 176z"/>
<path style="fill:#a3a3a3; stroke:none;" d="M152 176L153 177L152 176z"/>
<path style="fill:#707070; stroke:none;" d="M65 177L66 178L65 177M90 177L91 178L90 177z"/>
<path style="fill:#a3a3a3; stroke:none;" d="M132 177L133 178L132 177z"/>
<path style="fill:#707070; stroke:none;" d="M141 177L142 178L141 177z"/>
<path style="fill:#a3a3a3; stroke:none;" d="M147 177L148 178L147 177z"/>
<path style="fill:#4e4e4e; stroke:none;" d="M151 177L152 178L151 177M65 178L66 179L65 178z"/>
<path style="fill:#a3a3a3; stroke:none;" d="M134 178L135 179L134 178z"/>
<path style="fill:#4e4e4e; stroke:none;" d="M135 178L136 179L135 178M147 178L148 179L147 178z"/>
<path style="fill:#a3a3a3; stroke:none;" d="M89 179L90 180L89 179z"/>
<path style="fill:#707070; stroke:none;" d="M136 179L137 180L136 179z"/>
<path style="fill:#a3a3a3; stroke:none;" d="M140 179L141 180L140 179M146 179L147 180L146 179z"/>
<path style="fill:#707070; stroke:none;" d="M150 179L151 180L150 179z"/>
<path style="fill:#a3a3a3; stroke:none;" d="M65 180L65 181L89 181L65 180z"/>
<path style="fill:#707070; stroke:none;" d="M135 181L136 182L135 181z"/>
<path style="fill:#a3a3a3; stroke:none;" d="M139 181L140 182L139 181z"/>
<path style="fill:#707070; stroke:none;" d="M145 181L146 182L145 181z"/>
<path style="fill:#a3a3a3; stroke:none;" d="M149 181L150 182L149 181M134 182L135 183L134 182z"/>
<path style="fill:#4e4e4e; stroke:none;" d="M138 182L139 183L138 182M148 182L149 183L148 182M134 183L135 184L134 183z"/>
<path style="fill:#a3a3a3; stroke:none;" d="M138 183L139 184L138 183z"/>
<path style="fill:#707070; stroke:none;" d="M144 183L145 184L144 183z"/>
<path style="fill:#a3a3a3; stroke:none;" d="M148 183L149 184L148 183M123 184L123 185L133 185L123 184z"/>
<path style="fill:#707070; stroke:none;" d="M133 184L134 185L133 184M137 184L138 185L137 184z"/>
<path style="fill:#a3a3a3; stroke:none;" d="M143 184L144 185L143 184z"/>
<path style="fill:#707070; stroke:none;" d="M147.333 184.667L147.667 185.333L147.333 184.667M121 185L122 186L121 185z"/>
<path style="fill:#4e4e4e; stroke:none;" d="M143 185L144 186L143 185M120 186L121 187L120 186z"/>
<path style="fill:#a3a3a3; stroke:none;" d="M136 186L137 187L136 186M142 186L143 187L142 186z"/>
<path style="fill:#707070; stroke:none;" d="M148 186L149 187L148 186M119 187L120 188L119 187z"/>
<path style="fill:#4e4e4e; stroke:none;" d="M135 187L136 188L135 187z"/>
<path style="fill:#707070; stroke:none;" d="M149 187L150 188L149 187z"/>
<path style="fill:#a3a3a3; stroke:none;" d="M118 188L119 189L118 188M123 188L124 189L123 188z"/>
<path style="fill:#707070; stroke:none;" d="M141 188L142 189L141 188M145 188L146 189L145 188M150 188L151 189L150 188z"/>
<path style="fill:#4e4e4e; stroke:none;" d="M144 189L145 190L144 189z"/>
<path style="fill:#a3a3a3; stroke:none;" d="M146 189L147 190L146 189z"/>
<path style="fill:#707070; stroke:none;" d="M151 189L152 190L151 189z"/>
<path style="fill:#a3a3a3; stroke:none;" d="M117 190L118 191L117 190M121 190L122 191L121 190z"/>
<path style="fill:#4e4e4e; stroke:none;" d="M140 190L141 191L140 190z"/>
<path style="fill:#a3a3a3; stroke:none;" d="M144 190L145 191L144 190M147 190L148 191L147 190z"/>
<path style="fill:#707070; stroke:none;" d="M152 190L153 191L152 190z"/>
<path style="fill:#4e4e4e; stroke:none;" d="M117 191L118 192L117 191z"/>
<path style="fill:#a3a3a3; stroke:none;" d="M139 191L140 192L139 191z"/>
<path style="fill:#4e4e4e; stroke:none;" d="M143 191L144 192L143 191z"/>
<path style="fill:#a3a3a3; stroke:none;" d="M148 191L149 192L148 191z"/>
<path style="fill:#707070; stroke:none;" d="M153 191L154 192L153 191M120.333 192.667L120.667 193.333L120.333 192.667z"/>
<path style="fill:#4e4e4e; stroke:none;" d="M139 192L140 193L139 192z"/>
<path style="fill:#707070; stroke:none;" d="M154 192L155 193L154 192z"/>
<path style="fill:#a3a3a3; stroke:none;" d="M116.333 193.667L116.667 194.333L116.333 193.667M121 193L121 194L138 194L121 193z"/>
<path style="fill:#707070; stroke:none;" d="M138 193L139 194L138 193M142 193L143 194L142 193z"/>
<path style="fill:#a3a3a3; stroke:none;" d="M150 193L151 194L150 193z"/>
<path style="fill:#707070; stroke:none;" d="M155 193L156 194L155 193z"/>
<path style="fill:#a3a3a3; stroke:none;" d="M156 193L156 194L182 194L156 193z"/>
<path style="fill:#4e4e4e; stroke:none;" d="M182 193L183 194L182 193z"/>
<path style="fill:#a3a3a3; stroke:none;" d="M151 194L152 195L151 194z"/>
<path style="fill:#707070; stroke:none;" d="M116 195L117 196L116 195z"/>
<path style="fill:#a3a3a3; stroke:none;" d="M141 195L142 196L141 195M152 195L153 196L152 195z"/>
<path style="fill:#4e4e4e; stroke:none;" d="M116 196L117 197L116 196M140 196L141 197L140 196z"/>
<path style="fill:#a3a3a3; stroke:none;" d="M153 196L154 197L153 196z"/>
</svg>
