<svg aria-hidden="true" height="75.58667" viewBox="0 0 319.16 75.58667" width="319.16" xmlns="http://www.w3.org/2000/svg" xmlns:xlink="http://www.w3.org/1999/xlink"><clipPath id="a"><path d="m0 567h500v-567h-500z"/></clipPath><g transform="matrix(.13333333 0 0 -.13333333 0 75.586667)"><g clip-path="url(#a)" fill="#ed192d"><path d="m102.105 202.984s61.504-50.55 91.075-4.136c0 0 10.343 16.55 13.011 33.996 0 0 .293 16.261 16.262 24.832 0 0 1.77-23.055 23.356-32.817 1.781-.882 3.55-1.476 5.32-1.179 0 0 0 1.476-2.953 3.254-3.848 2.363-4.731 1.472-5.617 2.363-5.024 4.144-10.645 10.051-10.942 14.785l14.785-6.504s10.051-2.957 11.231-17.445c0 0 1.187-10.348 6.805-19.512 0 0-34.594 3.547-55.586-35.176l-2.661 4.426s-.296-12.711-8.281-17.148c0 0-1.18 8.285-6.801 9.461 0 0-.886-13.008-10.054-18.629 0 0 1.48 8.285-4.731 11.832 0 0-8.574-18.035-24.84-17.438 0 0 2.961 6.203.891 15.071 0 0-17.148-16.262-32.23-9.762 0 0 7.097 5.621 6.8 17.75 0 0-20.105-11.246-38.4372 16.254 0 0 5.0274-5.028 20.9922 3.551 0 0-9.7539 11.531-7.395 22.171"/><path d="m128.125 474.387s20.996-4.141 4.145-40.801c0 0-7.688-28.973 8.871-41.981 0 0 2.363-2.363 4.433-6.207 0 0-20.699-7.394-6.504-45.238 0 0-13.601 4.438-18.925 13.309 0 0 3.546 1.48 5.031 8.277 0 0-10.946-4.734-19.52 6.805l10.055 6.789s-8.871.301-18.9258 14.199l12.1248 5.024s-13.0077 2.367-17.1483 15.375h11.5273s-10.0507 18.031-7.3867 28.085c0 0 7.9807-7.097 14.4847-7.683 0 0 6.215 9.164-2.367 19.215 0 0-4.137 7.984.89 19.215 0 0 .297-1.77 7.395-3.25 0 0 7.386 0 11.82-15.965l1.48 1.48s-6.8 12.121-1.48 23.352"/><path d="m299.328 254.43 13.012 1.183s62.683 7.981 61.5 90.172c0 0-1.774 47.598-36.957 70.067-2.664 1.769-7.985 5.609-13.606 7.39-5.914 1.778-18.035 4.43-27.793-2.074-3.55-2.066-7.687-7.391-8.871-11.23-.886-3.547-2.363-14.188 12.422-26.317l5.324 6.805s-10.054 7.387-7.101 15.074c2.957 7.691 10.051 6.797 10.644 7.098 8.575.593 37.262-1.782 52.637-55.879 0 0 9.164-42.274-22.176-75.09 0 0 5.024 20.101-18.039 54.391 0 0-20.402 28.39 7.688 64.156l-8.875 5.914s-35.774-41.977-6.5-77.754c0 0 23.062-28.078 13.597-46.41-2.066-4.141-6.8-9.164-11.824-10.649-5.031-1.179-19.515-4.437-19.515-4.437"/><path d="m333.035 422.648s15.672 19.508 63.574 24.54c0 0 2.957-13.305-23.359-21.583 0 0 1.184-5.027 23.953.594 0 0-9.168-20.992-36.371-10.941 0 0-11.828 3.844-19.812.883"/><path d="m225.113 511.047s9.461-4.727 9.164-21.875l42.582-15.379s4.434 11.535 21.286 16.859c0 0-1.477 2.95-13.012 1.184 0 0-2.07 3.543-8.574 4.727 0 0-2.364-3.258.593-9.762 0 0-6.207-3.25-7.687-4.723 0 0-2.07 4.434-4.141 7.977 0 0 7.985 2.07 7.985 8.57 0 0-3.551-1.766-5.325-1.18 0 0 6.211 7.985-2.359 14.782 0 0-5.922-4.137-6.805-12.122 0 0-4.437 3.258-7.691 3.844 0 0-1.477-4.129.891-10.937 0 0-2.071-3.551-6.504-4.137 0 0-4.731 1.777-6.508 7.688l3.551.296s3.546 1.766 4.433 3.547c0 0-2.664 1.77-7.097 1.77l-.293 1.187h1.183s.293 10.645-15.672 7.684"/><path d="m223.34 303.504-1.481 2.074c13.012 4.727 16.856 19.512 16.856 19.512 4.73 24.535 18.332 24.832 18.332 24.832l-1.774-2.074c-9.168-3.543-10.945-20.098-10.945-20.098-.59-20.996-20.988-24.246-20.988-24.246m-13.012-1.481-9.168-3.246-2.957.883.594.598 4.137.883c10.945 6.203 16.265 25.714 16.265 25.714 7.985 18.629 21.586 20.407 21.586 20.407l1.18-1.778-2.07-.886c-13.895-5.321-15.375-20.399-15.375-20.399-.59-19.215-14.192-22.176-14.192-22.176m27.207 161.133s1.473 1.774 2.36 0l.3-.894-.89-.293s-.887 0-2.66-.887c0 0-1.774-1.18-2.661.887zm133.051-331.129c-1.77 4.145-3.547 9.465-3.547 9.465l13.602-.301c-12.418.301-13.305 21.879-13.305 21.879-3.254 18.328 7.687 29.864 7.687 29.864-35.48-.891-44.054 20.695-44.054 20.695-16.559 16.254-22.18 54.691-22.18 54.691s-.59 3.547-2.066 5.621c-1.481 2.664-2.364 3.844-5.914 7.387-5.032 5.328-23.36 16.555-25.727 18.332-10.348 7.094-15.668 15.668-15.668 15.668-6.211-7.687-14.195-9.75-14.195-9.75l-.891 2.656c33.711 21.282 20.406 54.098 20.406 54.098 1.481 7.102 6.801 16.27 6.801 16.27 23.653 31.632 7.098 76.863 7.098 76.863 6.5 10.64-2.074 12.121-2.074 12.121-8.575 1.777-8.871-2.363-8.871-2.363l-1.184.297-.586.882-24.25 8.868c-7.98 4.441-11.824 3.261-11.824 3.261-.59-4.738.886-6.804.886-6.804 1.774-1.481 3.844-.887 3.844-.887 8.871 2.367 12.715-4.137 12.715-4.137l-1.184-1.48c-2.367 2.66-5.027 2.66-5.027 2.66-6.207.59-5.914-2.953-5.914-2.953-2.07-2.961-2.953.293-2.953.293l-.887 2.961c-6.504 1.472-5.324 10.347-5.324 10.347-11.234-.597-21.879-4.144-21.879-4.144-3.848-1.477-2.66-4.141-2.66-4.141l3.25-4.726-1.777-6.5c-3.84-10.059 7.101-10.352 7.101-10.352h14.785c11.235-2.367 3.543-10.059 3.543-10.059.297-12.707-7.093-10.043-7.093-10.043-9.758 7.684-15.079.879-15.079.879-3.257-6.504 4.137-6.504 4.137-6.504 14.785-.293 5.621-11.23 5.621-11.23-3.551-8.277-13.308-6.504-13.308-6.504-23.356 2.363-27.496-9.164-27.496-9.164-8.575-8.871-7.395-33.996-7.395-33.996-6.211 15.074.59 32.516.59 32.516-21.285-7.391-13.602-47.008-13.602-47.008-10.05 21.285-3.254 34.293-3.254 34.293-19.214-2.657-13.597-31.039-13.597-31.039l7.394-18.032-19.812-10.05c-15.969-8.879-26.0237-.895-26.0237-.895-28.9726 26.91-60.6133 1.18-60.6133 1.18 15.668-10.645 33.1133-5.61 33.1133-5.61-4.1328-6.8-22.1719-14.785-22.1719-14.785 30.7539-12.125 39.6211 2.067 39.6211 2.067 4.1407-12.707-2.957-19.809-2.957-19.809 11.8281-3.246 26.3125 11.539 26.3125 11.539-1.18-6.805-6.5-12.719-6.5-12.719 10.938.293 23.063 14.188 23.063 14.188.886-6.793-3.844-11.82-3.844-11.82 15.082 2.363 23.355 15.96 23.355 15.96.594-7.683-3.844-13.886-3.844-13.886 8.575 1.176 14.79 8.277 14.79 8.277-16.266 12.41-12.418 21.578-12.418 21.578 5.023-19.816 22.171-23.058 22.171-23.058 13.899 2.363 22.473 25.129 22.473 25.129 10.645 22.464 23.953 20.097 23.953 20.097-15.969-5.906-17.152-15.961-17.152-15.961-5.914-23.648-14.781-26.902-14.781-26.902 2.953-9.16 22.769-14.188 22.769-14.188 5.02-2.367 12.414-6.211 16.258-8.285 31.93-16.254 34.891-45.226 34.891-45.226 4.73-30.75 28.679-37.848 28.679-37.848 47.016-15.375 43.465-48.492 43.465-48.492-2.66-49.6642-32.82-68.2892-32.82-68.2892l.887-.293c8.578-2.6641 13.898.582 13.898.582 2.367-7.0859 0-13.0039 0-13.0039 24.84 3.5547 37.551 30.4531 37.551 30.4531 6.508-8.2812 15.969-8.5664 15.969-8.5664-6.504 10.3438-4.731 31.9184-4.731 31.9184l9.754-6.2-4.727 11.524-1.777 7.402c3.551-3.558 11.234-6.515 11.234-6.515-.293 2.074-2.656 5.621-4.73 9.757"/><path d="m224.223 258.859s13.011 6.504 20.105-7.683l6.508-11.531s3.848-5.915 4.137-7.387c0 0-2.364 5.613-13.008 8.867 0 0-16.555 5.91-17.742 17.734"/><path d="m234.574 485.617-.297-2.066 34.301-13.305 4.141 2.367"/><path d="m183.125 468.473s.891-26.602 25.133-26.317c0 0 2.66 2.961 18.035-5.019l-.883-3.551s-5.621 6.211-16.558 4.144c0 0-15.375-5.617-25.43 2.36 0 0-15.969 13.008-.297 28.383"/></g><g fill="#514e4f"><path d="m498.734-.0273438h10.4023v566.9260038h-10.4023z"/><path d="m629.938 377.984v61.254h8.953v-53.715h22.734v-7.539z"/><path d="m675.77 377.984v61.254h33.339v-6.832h-24.386v-19.437h23.324v-6.832h-23.324v-20.969h24.386v-7.184z"/><path d="m800.332 380.754c-3.301-1.16-6.695-2.051-10.191-2.668s-7.246-.926-11.25-.926c-4.633 0-8.875.668-12.723 2-3.848 1.336-7.164 3.281-9.953 5.832-2.789 2.555-4.949 5.715-6.481 9.485-1.531 3.769-2.296 8.128-2.296 13.074 0 4.554.777 8.816 2.324 12.781 1.551 3.965 3.769 7.402 6.656 10.309 2.887 2.906 6.414 5.203 10.574 6.89 4.164 1.688 8.875 2.532 14.137 2.532 3.062 0 6.086-.215 9.07-.645 2.985-.434 5.969-1.121 8.953-2.063l-1.297-8.011c-2.824 1.101-5.652 1.945-8.48 2.535-2.828.586-5.695.883-8.598.883-3.144 0-6.148-.512-9.011-1.535-2.868-1.024-5.403-2.539-7.602-4.547-2.195-2.008-3.945-4.528-5.242-7.559-1.293-3.031-1.942-6.594-1.942-10.687 0-3.778.567-7.145 1.704-10.098 1.132-2.953 2.718-5.43 4.754-7.438 2.035-2.007 4.48-3.543 7.335-4.605 2.856-1.063 6.008-1.594 9.454-1.594 2.035 0 4.007.156 5.925.469 1.918.316 3.661.707 5.227 1.18v22.734h8.953z"/><path d="m875.73 409.082c0-5.105-.804-9.66-2.414-13.664-1.609-4.004-3.789-7.363-6.539-10.07-2.746-2.711-5.988-4.774-9.718-6.188-3.731-1.414-7.754-2.117-12.075-2.117-4.945 0-9.226.766-12.839 2.297-3.614 1.531-6.579 3.687-8.895 6.476s-4.043 6.067-5.184 9.836c-1.136 3.77-1.707 7.895-1.707 12.371 0 5.106.825 9.641 2.473 13.606 1.652 3.965 3.852 7.324 6.598 10.07 2.75 2.75 5.968 4.852 9.66 6.305 3.691 1.453 7.617 2.18 11.781 2.18 9.031 0 16.098-2.672 21.203-8.012 5.106-5.34 7.656-13.035 7.656-23.09zm-9.539-.883c0 8.028-1.789 14.11-5.363 18.242-3.57 4.133-8.5 6.204-14.781 6.204-2.672 0-5.223-.512-7.656-1.536-2.438-1.023-4.578-2.539-6.422-4.546-1.844-2.008-3.317-4.469-4.418-7.383-1.098-2.914-1.649-6.297-1.649-10.157 0-3.304.332-6.414 1-9.328s1.789-5.472 3.36-7.675c1.57-2.204 3.59-3.957 6.066-5.258 2.473-1.297 5.555-1.946 9.246-1.946 2.906 0 5.617.493 8.129 1.477s4.692 2.461 6.539 4.426c1.844 1.969 3.297 4.41 4.356 7.324 1.062 2.914 1.593 6.297 1.593 10.156"/><path d="m944.535 401.309c0-3.219-.492-6.305-1.476-9.246-.985-2.946-2.559-5.528-4.723-7.747-2.164-2.214-4.918-3.984-8.266-5.3-3.343-1.317-7.379-1.973-12.101-1.973-8.344 0-14.66 1.883-18.949 5.652-4.29 3.77-6.434 9.227-6.434 16.375v40.285h8.953v-38.988c0-5.422 1.492-9.406 4.477-11.957 2.984-2.555 7.183-3.828 12.605-3.828 6.203 0 10.582 1.59 13.133 4.77 2.555 3.179 3.828 7.324 3.828 12.425v37.578h8.953z"/><path d="m991.074 377.984h-10.011l-24.149 61.254h10.012l13.902-36.398c1.02-2.594 1.961-5.184 2.824-7.774.868-2.593 1.653-5.144 2.36-7.66h.117c.863 2.516 1.726 5.028 2.59 7.539.863 2.516 1.769 4.989 2.711 7.422l14.84 36.871h9.31z"/><path d="m1028.55 377.984v61.254h33.33v-6.832h-24.38v-19.437h23.32v-6.832h-23.32v-20.969h24.38v-7.184z"/><path d="m1112.55 377.984-21.56 27.211h-.36v-27.211h-8.95v61.254c1.81.078 4.14.141 7.01.18s6.11.059 9.72.059c7.07 0 12.47-1.336 16.2-4.008 3.73-2.668 5.59-6.594 5.59-11.778 0-2.75-.49-5.183-1.47-7.304s-2.35-3.926-4.12-5.418-3.85-2.653-6.25-3.477c-2.39-.824-5-1.316-7.83-1.472.86-.864 1.75-1.844 2.65-2.946.9-1.097 1.87-2.277 2.89-3.535l17.79-21.555zm-1.66 44.645c0 3.379-1.21 5.891-3.64 7.539-2.44 1.648-5.78 2.477-10.02 2.477-1.49 0-2.75-.02-3.77-.063-1.02-.039-1.96-.137-2.83-.293v-20.613c.95-.078 2.03-.141 3.25-.18 1.21-.039 2.45-.058 3.71-.058 4.08 0 7.32 1.003 9.71 3.003 2.4 2.004 3.59 4.735 3.59 8.188"/><path d="m1181 377.984-25.09 38.286c-1.34 2.039-2.62 4.121-3.83 6.242-1.22 2.121-2.3 4.164-3.24 6.125h-.12c.16-2.043.27-4.321.35-6.832.08-2.512.12-5.575.12-9.188l.12-34.633h-8.72v61.254h11.66l24.74-37.812c2.67-4.004 5.15-8.168 7.42-12.488h.12c-.15 2.121-.28 4.968-.35 8.542-.08 3.571-.12 7.911-.12 13.016l-.12 28.742h8.84v-61.254z"/><path d="m1216.23 377.984v61.254h33.34v-6.832h-24.39v-19.437h23.32v-6.832h-23.32v-20.969h24.39v-7.184z"/><path d="m1332.74 377.984-5.06 35.809c-.48 3.535-.85 6.539-1.13 9.012-.27 2.476-.48 4.535-.64 6.187h-.12c-.39-1.336-.83-2.906-1.29-4.715-.48-1.804-1.07-3.73-1.77-5.769l-14.02-40.524h-9.78l-12.96 37.93c-.78 2.199-1.55 4.477-2.29 6.832-.75 2.356-1.28 4.438-1.59 6.246h-.12c-.16-2.355-.37-4.773-.65-7.246-.27-2.473-.61-5.203-1-8.187l-4.59-35.575h-8.96l9.19 61.254h11.08l13.54-39.461c.79-2.121 1.47-4.164 2.06-6.125.59-1.964 1.04-3.808 1.36-5.539h.12c.47 2.043.96 3.887 1.47 5.539.51 1.649 1.12 3.532 1.82 5.653l14.14 39.933h11.66l8.95-61.254z"/><path d="m1363.02 377.984v61.254h33.34v-6.832h-24.38v-19.437h23.32v-6.832h-23.32v-20.969h24.38v-7.184z"/><path d="m1456.57 377.984-25.09 38.286c-1.34 2.039-2.62 4.121-3.83 6.242-1.22 2.121-2.3 4.164-3.24 6.125h-.12c.16-2.043.27-4.321.35-6.832.08-2.512.12-5.575.12-9.188l.12-34.633h-8.72v61.254h11.66l24.74-37.812c2.67-4.004 5.15-8.168 7.42-12.488h.12c-.15 2.121-.28 4.968-.35 8.542-.08 3.571-.12 7.911-.12 13.016l-.12 28.742h8.84v-61.254z"/><path d="m1509.35 431.699v-53.715h-8.95v53.715h-18.26v7.539h45.7v-7.539z"/><path d="m682.711 283.336c0-5.422-.906-10.113-2.715-14.078-1.812-3.965-4.332-7.246-7.558-9.836-3.227-2.594-7.043-4.516-11.45-5.774-4.406-1.257-9.211-1.882-14.406-1.882-3.461 0-6.512.039-9.148.117-2.637.078-5.137.117-7.496.117v61.254c2.519 0 5.609.039 9.265.121 3.66.078 7.145.117 10.449.117 5.118 0 9.723-.57 13.813-1.711 4.094-1.136 7.558-2.941 10.39-5.418 2.833-2.472 5.02-5.613 6.555-9.422 1.535-3.808 2.301-8.343 2.301-13.605zm-9.543-.648c0 15.824-8.324 23.734-24.973 23.734-1.414 0-2.945-.02-4.593-.059-1.649-.039-3.219-.136-4.711-.293v-46.765c1.097-.082 2.492-.16 4.179-.239 1.692-.078 3.203-.117 4.535-.117 3.77 0 7.227.473 10.368 1.418 3.14.946 5.832 2.383 8.07 4.309 2.238 1.929 3.984 4.39 5.242 7.383 1.258 2.992 1.883 6.535 1.883 10.629"/><path d="m750.926 275.324c0-3.219-.492-6.304-1.477-9.246-.984-2.945-2.558-5.527-4.722-7.746-2.164-2.215-4.918-3.984-8.266-5.301-3.344-1.316-7.379-1.972-12.102-1.972-8.339 0-14.656 1.882-18.949 5.652-4.289 3.769-6.433 9.227-6.433 16.375v40.289h8.953v-38.992c0-5.422 1.492-9.406 4.476-11.957 2.985-2.555 7.184-3.828 12.606-3.828 6.203 0 10.582 1.59 13.133 4.769 2.554 3.18 3.828 7.324 3.828 12.43v37.578h8.953z"/><path d="m845.211 254.77c-3.297-1.161-6.695-2.047-10.188-2.668-3.496-.618-7.246-.926-11.25-.926-4.632 0-8.875.668-12.722 2-3.848 1.336-7.168 3.281-9.953 5.832-2.789 2.555-4.95 5.715-6.481 9.484-1.531 3.77-2.297 8.129-2.297 13.074 0 4.555.774 8.817 2.325 12.782 1.55 3.965 3.769 7.402 6.656 10.308 2.887 2.907 6.41 5.203 10.574 6.891 4.16 1.687 8.875 2.531 14.137 2.531 3.062 0 6.086-.215 9.07-.644 2.984-.434 5.969-1.121 8.953-2.063l-1.297-8.012c-2.828 1.102-5.656 1.946-8.48 2.536-2.828.585-5.695.882-8.602.882-3.14 0-6.144-.511-9.011-1.535-2.864-1.023-5.399-2.539-7.598-4.547-2.199-2.007-3.945-4.527-5.242-7.558-1.297-3.032-1.942-6.594-1.942-10.688 0-3.777.567-7.144 1.7-10.097 1.136-2.95 2.722-5.43 4.757-7.438 2.032-2.008 4.481-3.543 7.336-4.605 2.856-1.063 6.008-1.594 9.449-1.594 2.036 0 4.012.156 5.93.469 1.918.316 3.66.707 5.223 1.179v22.735h8.953z"/><path d="m898.348 252-21.555 27.211h-.355v-27.211h-8.954v61.254c1.809.078 4.145.141 7.012.18 2.863.039 6.106.058 9.719.058 7.066 0 12.465-1.336 16.195-4.008 3.731-2.668 5.598-6.593 5.598-11.777 0-2.75-.492-5.184-1.473-7.305-.984-2.121-2.359-3.925-4.125-5.418-1.765-1.492-3.847-2.652-6.242-3.476s-5.008-1.317-7.836-1.473c.863-.863 1.75-1.844 2.652-2.945.903-1.098 1.864-2.277 2.887-3.531l17.785-21.559zm-1.649 44.645c0 3.378-1.215 5.89-3.652 7.539-2.434 1.652-5.77 2.476-10.012 2.476-1.492 0-2.75-.019-3.769-.058-1.02-.043-1.965-.141-2.828-.297v-20.614c.941-.078 2.023-.14 3.238-.179 1.219-.039 2.457-.059 3.711-.059 4.086 0 7.324 1.004 9.718 3.004 2.399 2.004 3.594 4.734 3.594 8.188"/><path d="m965.387 252-5.184 13.664h-28.625l-5.301-13.664h-8.953l24.149 61.254h10.011l23.797-61.254zm-15.785 41.582c-.707 1.809-1.375 3.633-2.004 5.477-.629 1.847-1.176 3.515-1.649 5.007h-.117c-.394-1.57-.883-3.257-1.473-5.066-.589-1.805-1.277-3.609-2.062-5.418l-8.246-21.086h23.679z"/><path d="m1030.07 252-25.09 38.285c-1.34 2.043-2.62 4.121-3.83 6.242-1.22 2.121-2.298 4.164-3.244 6.125h-.117c.16-2.039.277-4.316.356-6.832.078-2.511.117-5.574.117-9.187l.117-34.633h-8.719v61.254h11.66l24.74-37.813c2.67-4.003 5.15-8.168 7.42-12.488h.12c-.15 2.121-.27 4.969-.35 8.543s-.12 7.91-.12 13.016l-.12 28.742h8.84v-61.254z"/><path d="m1118.07 283.336c0-5.422-.9-10.113-2.71-14.078s-4.33-7.246-7.56-9.836c-3.23-2.594-7.04-4.516-11.45-5.774-4.41-1.257-9.21-1.882-14.4-1.882-3.47 0-6.52.039-9.15.117-2.64.078-5.14.117-7.5.117v61.254c2.52 0 5.61.039 9.27.121 3.66.078 7.14.117 10.45.117 5.11 0 9.71-.57 13.81-1.711 4.09-1.136 7.55-2.941 10.39-5.418 2.83-2.472 5.01-5.613 6.55-9.422 1.53-3.808 2.3-8.343 2.3-13.605zm-9.54-.648c0 15.824-8.32 23.734-24.97 23.734-1.42 0-2.95-.02-4.6-.059s-3.22-.136-4.71-.293v-46.765c1.1-.082 2.5-.16 4.18-.239 1.69-.078 3.2-.117 4.54-.117 3.77 0 7.23.473 10.37 1.418 3.14.946 5.83 2.383 8.06 4.309 2.24 1.929 3.99 4.39 5.24 7.383 1.26 2.992 1.89 6.535 1.89 10.629"/><path d="m1128.45 277.797h27.3281v7.07031h-27.3281z"/><path d="m1225.64 283.336c0-5.422-.9-10.113-2.71-14.078s-4.33-7.246-7.56-9.836c-3.23-2.594-7.04-4.516-11.45-5.774-4.41-1.257-9.21-1.882-14.4-1.882-3.47 0-6.52.039-9.16.117-2.63.078-5.13.117-7.49.117v61.254c2.52 0 5.61.039 9.27.121 3.66.078 7.14.117 10.45.117 5.11 0 9.71-.57 13.81-1.711 4.09-1.136 7.55-2.941 10.39-5.418 2.83-2.472 5.01-5.613 6.55-9.422 1.54-3.808 2.3-8.343 2.3-13.605zm-9.54-.648c0 15.824-8.32 23.734-24.97 23.734-1.42 0-2.95-.02-4.6-.059s-3.22-.136-4.71-.293v-46.765c1.1-.082 2.49-.16 4.18-.239 1.69-.078 3.2-.117 4.54-.117 3.77 0 7.22.473 10.37 1.418 3.14.946 5.82 2.383 8.06 4.309 2.24 1.929 3.99 4.39 5.24 7.383 1.26 2.992 1.89 6.535 1.89 10.629"/><path d="m1293.86 275.324c0-3.219-.49-6.304-1.48-9.246-.98-2.945-2.56-5.527-4.72-7.746-2.17-2.215-4.92-3.984-8.27-5.301-3.34-1.316-7.37-1.972-12.1-1.972-8.34 0-14.66 1.882-18.95 5.652-4.29 3.769-6.43 9.227-6.43 16.375v40.289h8.95v-38.992c0-5.422 1.49-9.406 4.48-11.957 2.98-2.555 7.18-3.828 12.6-3.828 6.2 0 10.58 1.59 13.13 4.769 2.56 3.18 3.84 7.324 3.84 12.43v37.578h8.95z"/><path d="m1357.6 254.355c-2.52-1.019-5.19-1.804-8.01-2.355-2.83-.551-5.89-.824-9.19-.824-9.74 0-17.1 2.648-22.09 7.949s-7.48 12.703-7.48 22.207c0 4.398.63 8.578 1.88 12.547 1.26 3.965 3.18 7.437 5.78 10.422 2.59 2.984 5.9 5.344 9.95 7.07 4.04 1.727 8.86 2.59 14.43 2.59 2.28 0 4.65-.137 7.13-.41 2.47-.278 4.81-.727 7.01-1.356l-.83-8.129c-5.1 1.571-9.93 2.356-14.48 2.356-3.62 0-6.76-.629-9.43-1.883-2.67-1.258-4.89-2.965-6.66-5.125-1.76-2.16-3.08-4.711-3.94-7.656-.87-2.945-1.3-6.106-1.3-9.485 0-7.539 1.87-13.293 5.6-17.257 3.73-3.965 9.24-5.95 16.55-5.95 2.51 0 5.02.278 7.54.825 2.51.55 4.79 1.336 6.83 2.355z"/><path d="m1416.5 252v27.801h-32.98v-27.801h-8.95v61.137h8.95v-25.797h32.98v25.797h8.96v-61.137z"/><path d="m1448.91 252v61.254h33.34v-6.832h-24.39v-19.438h23.33v-6.832h-23.33v-20.968h24.39v-7.184zm13.43 68.207-3.89 4.945 15.32 13.078 4.82-6.128z"/><path d="m1579.83 283.336c0-5.422-.9-10.113-2.72-14.078-1.81-3.965-4.32-7.246-7.55-9.836-3.23-2.594-7.04-4.516-11.45-5.774-4.41-1.257-9.21-1.882-14.41-1.882-3.46 0-6.51.039-9.15.117-2.63.078-5.13.117-7.5.117v61.254c2.52 0 5.61.039 9.27.121 3.66.078 7.15.117 10.45.117 5.12 0 9.72-.57 13.82-1.711 4.09-1.136 7.55-2.941 10.39-5.418 2.83-2.472 5.01-5.613 6.55-9.422 1.53-3.808 2.3-8.343 2.3-13.605zm-9.54-.648c0 15.824-8.33 23.734-24.97 23.734-1.42 0-2.95-.02-4.6-.059s-3.22-.136-4.71-.293v-46.765c1.1-.082 2.49-.16 4.18-.239 1.69-.078 3.2-.117 4.54-.117 3.77 0 7.22.473 10.36 1.418 3.14.946 5.84 2.383 8.07 4.309 2.24 1.929 3.99 4.39 5.24 7.383 1.26 2.992 1.89 6.535 1.89 10.629"/><path d="m1596.57 252v61.254h33.34v-6.832h-24.39v-19.438h23.32v-6.832h-23.32v-20.968h24.39v-7.184z"/><path d="m1674.71 252v61.254h8.96v-53.715h22.73v-7.539z"/><path d="m1772.03 275.324c0-3.219-.49-6.304-1.48-9.246-.98-2.945-2.56-5.527-4.72-7.746-2.17-2.215-4.92-3.984-8.27-5.301-3.34-1.316-7.38-1.972-12.1-1.972-8.34 0-14.66 1.882-18.95 5.652-4.29 3.769-6.43 9.227-6.43 16.375v40.289h8.95v-38.992c0-5.422 1.49-9.406 4.47-11.957 2.99-2.555 7.19-3.828 12.61-3.828 6.21 0 10.58 1.59 13.14 4.769 2.55 3.18 3.82 7.324 3.82 12.43v37.578h8.96z"/><path d="m1833.53 252-17.55 24.621-17.68-24.621h-11.07l23.68 30.508-22.73 30.746h11.42l16.96-24.031 17.44 24.031h10.48l-22.62-30.274 23.68-30.98z"/><path d="m1861.45 252v61.254h33.34v-6.832h-24.38v-19.438h23.32v-6.832h-23.32v-20.968h24.38v-7.184z"/><path d="m1977.97 252-5.07 35.813c-.47 3.531-.84 6.535-1.11 9.011-.28 2.473-.5 4.535-.65 6.184h-.12c-.39-1.336-.83-2.906-1.3-4.715-.47-1.805-1.06-3.73-1.77-5.77l-14.01-40.523h-9.78l-12.96 37.93c-.79 2.199-1.55 4.476-2.3 6.832-.74 2.359-1.27 4.437-1.59 6.246h-.11c-.16-2.356-.38-4.774-.65-7.246-.28-2.473-.61-5.203-1-8.188l-4.6-35.574h-8.95l9.19 61.254h11.07l13.55-39.461c.78-2.121 1.47-4.164 2.06-6.125.59-1.965 1.04-3.809 1.35-5.539h.12c.47 2.043.96 3.887 1.48 5.539.5 1.648 1.11 3.531 1.82 5.652l14.14 39.934h11.66l8.95-61.254z"/><path d="m2049.6 270.375c0-1.805-.33-3.789-1-5.949-.67-2.156-1.91-4.18-3.71-6.067-1.81-1.882-4.32-3.453-7.54-4.711-3.22-1.257-7.39-1.882-12.49-1.882-1.96 0-4.4.019-7.3.058-2.91.039-6.01.098-9.31.176v61.254c2.36 0 5.16.039 8.42.121 3.26.078 6.94.117 11.02.117 7.38 0 12.66-1.355 15.84-4.066 3.18-2.707 4.77-6.262 4.77-10.66 0-3.297-.96-6.164-2.88-8.598-1.93-2.438-4.65-4.32-8.19-5.656v-.117c4.24-.864 7.36-2.571 9.36-5.125 2.01-2.551 3.01-5.516 3.01-8.895zm-10.6 27.148c0 2.657-.93 4.84-2.77 6.559-1.85 1.719-5.32 2.578-10.43 2.578-1.49 0-2.96 0-4.41 0-1.46 0-2.85-.039-4.19-.121v-19.672c1.18-.078 2.3-.117 3.36-.117h2.18c5.1 0 9.09.879 11.96 2.633 2.86 1.758 4.3 4.472 4.3 8.14zm1.29-27.445c0 2.031-.43 3.711-1.29 5.039-.87 1.328-2.09 2.403-3.66 3.223s-3.41 1.387-5.53 1.699c-2.12.313-4.4.469-6.83.469-.63 0-1.53 0-2.71 0s-2.2-.039-3.07-.117v-21.211c.87-.153 1.97-.289 3.3-.41 1.34-.114 2.95-.172 4.83-.172 5.19 0 8.97 1.07 11.37 3.218 2.39 2.149 3.59 4.903 3.59 8.262"/><path d="m2122.64 283.098c0-5.106-.8-9.66-2.41-13.664s-3.79-7.364-6.54-10.071c-2.75-2.711-5.99-4.773-9.72-6.187-3.73-1.41-7.75-2.117-12.07-2.117-4.95 0-9.23.765-12.84 2.296-3.61 1.532-6.58 3.692-8.9 6.477-2.31 2.789-4.04 6.066-5.18 9.836s-1.71 7.895-1.71 12.371c0 5.106.83 9.641 2.48 13.606 1.64 3.964 3.84 7.324 6.59 10.07 2.75 2.75 5.97 4.851 9.66 6.305 3.7 1.453 7.62 2.179 11.78 2.179 9.03 0 16.1-2.672 21.21-8.011 5.1-5.34 7.65-13.036 7.65-23.09zm-9.54-.883c0 8.027-1.78 14.109-5.36 18.242-3.57 4.133-8.5 6.203-14.78 6.203-2.67 0-5.23-.512-7.66-1.535s-4.57-2.539-6.42-4.547c-1.84-2.008-3.32-4.469-4.42-7.383s-1.64-6.297-1.64-10.156c0-3.305.33-6.414 1-9.328.66-2.914 1.78-5.473 3.35-7.676s3.6-3.957 6.07-5.258c2.47-1.297 5.56-1.945 9.25-1.945 2.9 0 5.61.492 8.13 1.477 2.51.984 4.69 2.461 6.53 4.429 1.85 1.965 3.3 4.407 4.36 7.321s1.59 6.296 1.59 10.156"/><path d="m2191.45 275.324c0-3.219-.49-6.304-1.48-9.246-.98-2.945-2.56-5.527-4.72-7.746-2.16-2.215-4.92-3.984-8.27-5.301-3.34-1.316-7.37-1.972-12.1-1.972-8.34 0-14.66 1.882-18.95 5.652-4.29 3.769-6.43 9.227-6.43 16.375v40.289h8.95v-38.992c0-5.422 1.49-9.406 4.48-11.957 2.98-2.555 7.18-3.828 12.6-3.828 6.2 0 10.58 1.59 13.14 4.769 2.55 3.18 3.83 7.324 3.83 12.43v37.578h8.95z"/><path d="m2245.18 252-21.56 27.211h-.36v-27.211h-8.95v61.254c1.81.078 4.14.141 7.01.18s6.11.058 9.72.058c7.07 0 12.46-1.336 16.19-4.008 3.73-2.668 5.6-6.593 5.6-11.777 0-2.75-.49-5.184-1.47-7.305s-2.36-3.925-4.13-5.418c-1.76-1.492-3.84-2.652-6.24-3.476-2.39-.824-5.01-1.317-7.83-1.473.86-.863 1.75-1.844 2.65-2.945.9-1.098 1.87-2.277 2.89-3.531l17.78-21.559h-11.31m-1.65 44.645c0 3.378-1.21 5.89-3.65 7.539-2.43 1.652-5.77 2.476-10.01 2.476-1.49 0-2.75-.019-3.77-.058-1.02-.043-1.96-.141-2.83-.297v-20.614c.95-.078 2.03-.14 3.24-.179 1.22-.039 2.46-.059 3.71-.059 4.09 0 7.33 1.004 9.72 3.004 2.4 2.004 3.59 4.734 3.59 8.188"/><path d="m2319.63 254.77c-3.29-1.161-6.69-2.047-10.19-2.668-3.49-.618-7.24-.926-11.25-.926-4.63 0-8.87.668-12.72 2-3.85 1.336-7.17 3.281-9.95 5.832-2.79 2.555-4.95 5.715-6.48 9.484-1.53 3.77-2.3 8.129-2.3 13.074 0 4.555.78 8.817 2.33 12.782s3.77 7.402 6.65 10.308c2.89 2.907 6.41 5.203 10.58 6.891 4.16 1.687 8.87 2.531 14.13 2.531 3.06 0 6.09-.215 9.07-.644 2.98-.434 5.97-1.121 8.95-2.063l-1.29-8.012c-2.83 1.102-5.66 1.946-8.48 2.536-2.83.585-5.7.882-8.6.882-3.14 0-6.15-.511-9.01-1.535-2.87-1.023-5.4-2.539-7.6-4.547-2.2-2.007-3.95-4.527-5.24-7.558-1.3-3.032-1.95-6.594-1.95-10.688 0-3.777.57-7.144 1.7-10.097 1.14-2.95 2.72-5.43 4.76-7.438 2.03-2.008 4.48-3.543 7.33-4.605 2.86-1.063 6.01-1.594 9.46-1.594 2.03 0 4.01.156 5.92.469 1.92.316 3.66.707 5.23 1.179v22.735h8.95z"/></g><path d="m662.508 143.723c0 3.207-.692 5.793-2.082 7.761-1.387 1.969-3.137 3.602-5.25 4.903-2.11 1.301-4.387 2.406-6.832 3.316-2.446.906-4.723 1.86-6.832 2.86-2.114 1-3.864 2.21-5.25 3.632-1.391 1.422-2.082 3.313-2.082 5.672 0 3.149 1.148 5.676 3.449 7.582 2.301 1.91 5.691 2.864 10.172 2.864 1.754 0 3.601-.153 5.539-.458 1.933-.3 3.781-.695 5.535-1.179l.363 6.265c-1.812.364-3.613.653-5.402.864-1.785.211-3.645.316-5.582.316-3.391 0-6.402-.422-9.035-1.269-2.633-.848-4.867-2.028-6.703-3.543-1.832-1.512-3.227-3.313-4.176-5.403-.949-2.086-1.426-4.343-1.426-6.761 0-3.211.695-5.813 2.082-7.813 1.391-1.996 3.141-3.629 5.25-4.902 2.113-1.27 4.391-2.344 6.832-3.223 2.445-.879 4.723-1.832 6.836-2.859 2.109-1.032 3.859-2.27 5.25-3.723 1.387-1.453 2.082-3.391 2.082-5.812 0-2.118-.394-3.903-1.176-5.356-.785-1.453-1.824-2.633-3.121-3.543-1.297-.906-2.82-1.574-4.566-1.996-1.75-.426-3.617-.637-5.61-.637-2.109 0-4.277.211-6.511.637-2.231.422-4.219.969-5.969 1.633l-.363-6.809c1.695-.484 3.586-.863 5.672-1.137 2.089-.269 4.281-.406 6.582-.406 3.449 0 6.562.453 9.347 1.36 2.782.91 5.129 2.179 7.032 3.816 1.906 1.633 3.375 3.586 4.402 5.855 1.031 2.27 1.543 4.766 1.543 7.493" fill="#ed192d"/><path d="m709.809 153.348c0 2.48-.332 4.855-1 7.125-.664 2.269-1.707 4.254-3.129 5.949-1.426 1.695-3.254 3.039-5.496 4.039-2.239 1-4.903 1.5-7.989 1.5-3.148 0-5.949-.59-8.398-1.773-2.453-1.18-4.527-2.829-6.223-4.946-1.695-2.121-2.98-4.617-3.859-7.492-.875-2.875-1.317-6.008-1.317-9.398 0-7.93 1.774-13.77 5.313-17.524 3.543-3.754 8.734-5.629 15.574-5.629 2.844 0 5.508.242 7.988.727 2.485.484 4.782 1.148 6.903 1.996l-.637 5.812c-1.695-.847-3.707-1.543-6.039-2.089-2.328-.543-4.676-.817-7.035-.817-5.086 0-8.914 1.496-11.488 4.492-2.571 3-3.739 7.887-3.497 14.664h30.149c.121.668.18 1.274.18 1.817zm-7.082 1.812h-22.883c.547 3.547 1.879 6.367 3.996 8.469 2.121 2.105 4.781 3.156 7.992 3.156 3.449 0 6.156-1.066 8.125-3.199s2.891-4.941 2.77-8.426" fill="#ed192d"/><path d="m745.035 171.961c-2.363.242-4.437.059-6.222-.547-1.786-.605-3.329-1.496-4.629-2.676-1.301-1.183-2.375-2.574-3.223-4.179-.848-1.602-1.484-3.223-1.91-4.856l-.09.09c.305 1.937.547 3.934.727 5.992.183 2.059.273 3.844.273 5.36h-6.719v-45.129h6.809v18.07c0 7.625 1.195 13.269 3.586 16.934 2.39 3.66 6.101 5.07 11.125 4.222z" fill="#ed192d"/><path d="m790.336 171.145h-7.445l-10.805-29.786c-.484-1.211-.922-2.48-1.316-3.812-.395-1.332-.774-2.602-1.137-3.813h-.09c-.422 1.332-.832 2.649-1.227 3.95-.394 1.3-.832 2.648-1.316 4.039l-10.531 29.422h-7.719l17.07-45.129h7.082z" fill="#ed192d"/><path d="m808.398 183.945c0 1.27-.468 2.36-1.406 3.27-.937.906-2.043 1.363-3.316 1.363-1.332 0-2.449-.457-3.36-1.363-.906-.91-1.359-2-1.359-3.27 0-1.332.453-2.437 1.359-3.312.911-.879 2.028-1.317 3.36-1.317 1.273 0 2.379.438 3.316 1.317.938.875 1.406 1.98 1.406 3.312zm-1.363-57.929v45.129h-6.808v-45.129z" fill="#ed192d"/><path d="m853.066 127.922-.636 5.902c-1.512-.789-3.282-1.406-5.313-1.863-2.027-.453-4.039-.68-6.035-.68-2.727 0-4.98.438-6.766 1.313-1.785.875-3.195 2.082-4.222 3.625-1.028 1.539-1.754 3.336-2.18 5.386-.422 2.051-.637 4.227-.637 6.52 0 5.434 1.211 9.797 3.633 13.086 2.422 3.293 6.055 4.937 10.899 4.937 1.933 0 3.765-.171 5.492-.519 1.726-.348 3.344-.809 4.855-1.387l.727 5.992c-3.266 1.032-6.809 1.543-10.621 1.543-3.692 0-6.918-.589-9.672-1.769s-5.063-2.86-6.93-5.039c-1.863-2.18-3.269-4.797-4.222-7.856-.95-3.054-1.422-6.429-1.422-10.125 0-4.297.55-7.824 1.652-10.578 1.105-2.754 2.574-4.945 4.406-6.582 1.832-1.633 3.914-2.769 6.242-3.406 2.332-.633 4.77-.953 7.313-.953 2.785 0 5.34.258 7.672.773 2.328.516 4.254 1.074 5.765 1.68" fill="#ed192d"/><path d="m898.098 153.348c0 2.48-.332 4.855-1 7.125-.664 2.269-1.711 4.254-3.133 5.949s-3.254 3.039-5.492 4.039c-2.243 1-4.903 1.5-7.993 1.5-3.148 0-5.945-.59-8.398-1.773-2.453-1.18-4.523-2.829-6.219-4.946-1.695-2.121-2.98-4.617-3.859-7.492s-1.316-6.008-1.316-9.398c0-7.93 1.769-13.77 5.312-17.524 3.539-3.754 8.73-5.629 15.57-5.629 2.848 0 5.508.242 7.993.727 2.48.484 4.781 1.148 6.898 1.996l-.633 5.812c-1.695-.847-3.711-1.543-6.039-2.089-2.332-.543-4.676-.817-7.039-.817-5.082 0-8.914 1.496-11.484 4.492-2.575 3-3.739 7.887-3.496 14.664h30.144c.121.668.184 1.274.184 1.817zm-7.082 1.812h-22.883c.543 3.547 1.875 6.367 3.996 8.469 2.117 2.105 4.781 3.156 7.988 3.156 3.453 0 6.16-1.066 8.129-3.199 1.965-2.133 2.891-4.941 2.77-8.426" fill="#ed192d"/><path d="m940.266 183.945c0 1.27-.469 2.36-1.407 3.27-.941.906-2.043 1.363-3.316 1.363-1.332 0-2.453-.457-3.359-1.363-.907-.91-1.364-2-1.364-3.27 0-1.332.457-2.437 1.364-3.312.906-.879 2.027-1.317 3.359-1.317 1.273 0 2.375.438 3.316 1.317.938.875 1.407 1.98 1.407 3.312zm-1.364-57.929v45.129h-6.808v-45.129z" fill="#ed192d"/><path d="m992.016 126.016v31.507c0 1.997-.227 3.875-.684 5.629-.453 1.754-1.195 3.301-2.223 4.629-1.031 1.332-2.406 2.379-4.132 3.133-1.723.758-3.887 1.137-6.493 1.137-3.996 0-7.367-1.016-10.125-3.043-2.754-2.028-4.765-4.676-6.035-7.945l-.183.093c.242 1.391.425 3.039.547 4.946.121 1.91.179 3.589.179 5.043h-6.719v-45.129h6.809v21.699c0 2.664.336 5.148 1 7.445.668 2.301 1.621 4.285 2.859 5.949 1.243 1.664 2.711 2.965 4.407 3.907 1.695.937 3.539 1.406 5.539 1.406 3.265 0 5.492-.969 6.672-2.906 1.179-1.938 1.769-4.692 1.769-8.262v-29.238z" fill="#ed192d"/><path d="m1035.96 192.016c-2.49.55-4.97.828-7.45.828-5.45 0-9.65-1.489-12.62-4.469-2.97-2.977-4.45-7.656-4.45-14.043v-3.187h-9.81v-5.36h9.81v-39.769h6.81v39.769h13.35v5.36h-13.35v3.359c0 4.355.8 7.566 2.41 9.625 1.6 2.055 4.13 3.086 7.58 3.086 1.21 0 2.4-.078 3.58-.227 1.18-.152 2.35-.41 3.5-.773z" fill="#ed192d"/><path d="m1078.63 149.352c0 4.117-.54 7.609-1.59 10.488-1.06 2.875-2.5 5.203-4.32 6.988-1.81 1.789-3.93 3.09-6.35 3.906-2.42.817-5 1.227-7.72 1.227-3.39 0-6.42-.621-9.08-1.863-2.66-1.239-4.92-2.934-6.77-5.082-1.84-2.153-3.25-4.664-4.22-7.539s-1.45-5.918-1.45-9.125c0-3.934.47-7.356 1.41-10.262.94-2.902 2.27-5.309 3.99-7.219 1.73-1.906 3.81-3.328 6.27-4.266 2.45-.937 5.19-1.406 8.22-1.406 3.32 0 6.32.617 8.98 1.86 2.67 1.242 4.94 2.953 6.81 5.132 1.88 2.176 3.32 4.735 4.32 7.672 1 2.934 1.5 6.098 1.5 9.489zm-7.09-.454c0-3.089-.38-5.765-1.13-8.039-.76-2.269-1.76-4.129-3-5.582s-2.68-2.527-4.31-3.222c-1.64-.7-3.33-1.047-5.09-1.047-4.42 0-7.82 1.531-10.21 4.586-2.39 3.058-3.59 7.492-3.59 13.304 0 3.024.4 5.629 1.18 7.809.79 2.176 1.82 3.977 3.09 5.402 1.27 1.422 2.74 2.481 4.4 3.176 1.67.695 3.38 1.047 5.13 1.047 4.54 0 7.93-1.531 10.17-4.586 2.24-3.058 3.36-7.34 3.36-12.848" fill="#ed192d"/><path d="m1113.3 171.961c-2.35.242-4.43.059-6.21-.547-1.79-.605-3.34-1.496-4.64-2.676-1.3-1.183-2.37-2.574-3.22-4.179-.85-1.602-1.48-3.223-1.91-4.856l-.09.09c.31 1.937.55 3.934.73 5.992.18 2.059.27 3.844.27 5.36h-6.72v-45.129h6.81v18.07c0 7.625 1.2 13.269 3.59 16.934 2.39 3.66 6.1 5.07 11.12 4.222z" fill="#ed192d"/><path d="m1188.12 126.016v31.324c0 5.148-1.16 8.883-3.49 11.215-2.32 2.332-5.59 3.496-9.82 3.496-2.29 0-4.31-.363-6.06-1.09s-3.28-1.633-4.57-2.723c-1.3-1.09-2.36-2.258-3.17-3.496-.82-1.242-1.44-2.406-1.86-3.496-.06.848-.27 1.891-.64 3.133-.36 1.238-1 2.422-1.91 3.539-.91 1.121-2.19 2.09-3.83 2.906-1.63.817-3.73 1.227-6.28 1.227-3.76 0-7.04-1-9.84-2.996-2.79-1.996-4.83-4.66-6.1-7.992l-.18.093c.3 1.391.5 3.039.59 4.946.09 1.91.13 3.589.13 5.043h-6.71v-45.129h6.8v21.519c0 2.785.36 5.328 1.05 7.625.7 2.301 1.66 4.285 2.91 5.949 1.24 1.664 2.67 2.965 4.31 3.907 1.63.937 3.39 1.406 5.26 1.406 1.7 0 3.09-.289 4.18-.863 1.09-.575 1.92-1.379 2.5-2.407.57-1.027.97-2.226 1.18-3.586.21-1.363.32-2.8.32-4.312v-29.238h6.81v21.519c0 2.906.37 5.524 1.12 7.856.76 2.328 1.77 4.312 3.04 5.945 1.26 1.633 2.69 2.891 4.29 3.769 1.6.875 3.27 1.317 5.02 1.317 1.63 0 2.97-.274 4.02-.817 1.06-.546 1.88-1.304 2.49-2.273.6-.965 1.02-2.148 1.27-3.539.24-1.395.36-2.938.36-4.633v-29.144z" fill="#ed192d"/><path d="m1236.14 126.016c-.12 1.996-.18 4.175-.18 6.535v6.992 17.707c0 2.117-.24 4.086-.73 5.902-.48 1.817-1.34 3.375-2.58 4.676s-2.89 2.317-4.95 3.043c-2.06.727-4.63 1.09-7.72 1.09s-5.93-.32-8.53-.953c-2.61-.637-4.97-1.438-7.09-2.406l.64-5.993c2 1.27 4.27 2.239 6.79 2.903 2.52.668 4.87 1 7.06 1 3.89 0 6.58-.922 8.07-2.77 1.49-1.847 2.23-4.465 2.23-7.855v-3.723c-4.43 0-8.35-.391-11.75-1.18-3.4-.785-6.27-1.875-8.61-3.269-2.34-1.391-4.11-3.07-5.33-5.039-1.21-1.965-1.82-4.129-1.82-6.492 0-3.633 1.15-6.371 3.46-8.215 2.31-1.848 5.29-2.77 8.93-2.77 1.94 0 3.75.27 5.42.817 1.67.543 3.19 1.285 4.55 2.222 1.37.942 2.54 2.028 3.51 3.27s1.73 2.59 2.28 4.043h.17c-.24-1.332-.37-2.817-.4-4.449-.03-1.637-.04-3.332-.04-5.086zm-6.99 20.433c0-1.926-.32-3.824-.95-5.687-.65-1.867-1.54-3.539-2.7-5.016-1.15-1.473-2.55-2.66-4.19-3.566-1.64-.903-3.47-1.352-5.47-1.352-2.25 0-4.05.602-5.38 1.805-1.34 1.203-2.01 2.832-2.01 4.879 0 1.082.27 2.195.82 3.336.55 1.144 1.58 2.183 3.1 3.117 1.52.933 3.63 1.703 6.34 2.305 2.7.601 6.18.902 10.44.902z" fill="#ed192d"/><path d="m1275.09 126.195v5.903c-.91-.27-1.92-.457-3.04-.563-1.12-.109-2.26-.164-3.41-.164-1.33 0-2.43.152-3.31.453s-1.58.832-2.09 1.586-.88 1.797-1.09 3.125-.32 2.988-.32 4.981v24.269h13.26v5.36h-13.26v16.886l-6.81-1.906v-14.98h-9.8v-5.36h9.8v-27.148c0-2.36.19-4.375.55-6.039s1-3.043 1.91-4.133c.9-1.086 2.1-1.891 3.58-2.406 1.49-.512 3.38-.77 5.68-.77 1.39 0 2.83.074 4.31.227 1.48.152 2.83.379 4.04.679" fill="#ed192d"/><path d="m1295.79 183.945c0 1.27-.47 2.36-1.41 3.27-.94.906-2.04 1.363-3.31 1.363-1.34 0-2.46-.457-3.36-1.363-.91-.91-1.37-2-1.37-3.27 0-1.332.46-2.437 1.37-3.312.9-.879 2.02-1.317 3.36-1.317 1.27 0 2.37.438 3.31 1.317.94.875 1.41 1.98 1.41 3.312zm-1.36-57.929v45.129h-6.82v-45.129z" fill="#ed192d"/><path d="m1348.71 149.352c0 4.117-.52 7.609-1.58 10.488-1.06 2.875-2.5 5.203-4.31 6.988-1.82 1.789-3.94 3.09-6.36 3.906-2.42.817-5 1.227-7.72 1.227-3.39 0-6.42-.621-9.08-1.863-2.66-1.239-4.92-2.934-6.77-5.082-1.84-2.153-3.25-4.664-4.21-7.539-.97-2.875-1.46-5.918-1.46-9.125 0-3.934.47-7.356 1.41-10.262.94-2.902 2.27-5.309 4-7.219 1.72-1.906 3.81-3.328 6.26-4.266 2.45-.937 5.19-1.406 8.22-1.406 3.32 0 6.32.617 8.98 1.86 2.67 1.242 4.94 2.953 6.82 5.132 1.87 2.176 3.31 4.735 4.31 7.672 1 2.934 1.49 6.098 1.49 9.489zm-7.08-.454c0-3.089-.37-5.765-1.13-8.039-.76-2.269-1.76-4.129-3-5.582s-2.68-2.527-4.31-3.222c-1.64-.7-3.33-1.047-5.08-1.047-4.42 0-7.83 1.531-10.22 4.586-2.39 3.058-3.59 7.492-3.59 13.304 0 3.024.4 5.629 1.18 7.809.79 2.176 1.82 3.977 3.09 5.402 1.27 1.422 2.74 2.481 4.41 3.176 1.66.695 3.37 1.047 5.13 1.047 4.53 0 7.93-1.531 10.16-4.586 2.25-3.058 3.36-7.34 3.36-12.848" fill="#ed192d"/><path d="m1397.47 126.016v31.507c0 1.997-.23 3.875-.68 5.629s-1.2 3.301-2.23 4.629c-1.02 1.332-2.4 2.379-4.13 3.133-1.72.758-3.89 1.137-6.49 1.137-3.99 0-7.37-1.016-10.12-3.043-2.76-2.028-4.77-4.676-6.04-7.945l-.18.093c.24 1.391.42 3.039.54 4.946.12 1.91.18 3.589.18 5.043h-6.71v-45.129h6.8v21.699c0 2.664.34 5.148 1 7.445.67 2.301 1.62 4.285 2.86 5.949 1.25 1.664 2.71 2.965 4.41 3.907 1.69.937 3.54 1.406 5.53 1.406 3.27 0 5.5-.969 6.68-2.906 1.18-1.938 1.77-4.692 1.77-8.262v-29.238z" fill="#ed192d"/><path d="m1468.42 153.348c0 2.48-.33 4.855-1 7.125-.66 2.269-1.71 4.254-3.13 5.949s-3.25 3.039-5.49 4.039-4.91 1.5-8 1.5c-3.14 0-5.94-.59-8.39-1.773-2.45-1.18-4.53-2.829-6.22-4.946-1.7-2.121-2.98-4.617-3.86-7.492s-1.32-6.008-1.32-9.398c0-7.93 1.77-13.77 5.31-17.524 3.55-3.754 8.73-5.629 15.57-5.629 2.85 0 5.52.242 8 .727 2.48.484 4.78 1.148 6.9 1.996l-.64 5.812c-1.69-.847-3.7-1.543-6.04-2.089-2.33-.543-4.67-.817-7.03-.817-5.09 0-8.92 1.496-11.49 4.492-2.57 3-3.74 7.887-3.5 14.664h30.15c.12.668.18 1.274.18 1.817zm-7.08 1.812h-22.88c.54 3.547 1.88 6.367 3.99 8.469 2.12 2.105 4.78 3.156 8 3.156 3.44 0 6.15-1.066 8.12-3.199s2.89-4.941 2.77-8.426" fill="#ed192d"/><path d="m1503.64 126.195v5.903c-.9-.27-1.92-.457-3.03-.563-1.13-.109-2.26-.164-3.41-.164-1.33 0-2.44.152-3.32.453-.87.301-1.57.832-2.08 1.586-.52.754-.88 1.797-1.09 3.125s-.32 2.988-.32 4.981v24.269h13.25v5.36h-13.25v16.886l-6.81-1.906v-14.98h-9.81v-5.36h9.81v-27.148c0-2.36.18-4.375.55-6.039.36-1.664.99-3.043 1.9-4.133.91-1.086 2.1-1.891 3.59-2.406 1.48-.512 3.37-.77 5.67-.77 1.39 0 2.83.074 4.32.227 1.48.152 2.82.379 4.03.679" fill="#ed192d"/><path d="m1574.96 150.621c0 7.024-1.44 12.336-4.31 15.938-2.88 3.601-6.98 5.402-12.31 5.402-3.63 0-6.79-.969-9.48-2.906-2.7-1.938-4.68-4.539-5.95-7.809l-.18.09c.3 1.332.5 2.953.59 4.859.09 1.907.13 3.555.13 4.95h-6.72v-67.739h6.81v22.699c1.52-.3 2.89-.484 4.14-.542 1.24-.063 2.64-.094 4.22-.094 7.14 0 12.77 2.164 16.89 6.492 4.11 4.328 6.17 10.551 6.17 18.66zm-7.26-.543c0-3.39-.36-6.312-1.09-8.762-.72-2.453-1.76-4.449-3.12-5.996-1.36-1.543-2.97-2.675-4.84-3.402s-3.98-1.09-6.33-1.09c-3.32 0-6.24.395-8.78 1.18v15.801c0 1.996.28 4.086.82 6.265.54 2.176 1.37 4.176 2.48 5.992 1.12 1.817 2.51 3.313 4.17 4.493 1.65 1.179 3.63 1.773 5.92 1.773 3.74 0 6.47-1.426 8.19-4.269 1.72-2.844 2.58-6.84 2.58-11.985" fill="#ed192d"/><path d="m1609.91 171.961c-2.36.242-4.43.059-6.22-.547-1.78-.605-3.33-1.496-4.63-2.676-1.3-1.183-2.37-2.574-3.22-4.179-.85-1.602-1.48-3.223-1.91-4.856l-.09.09c.3 1.937.55 3.934.73 5.992.18 2.059.27 3.844.27 5.36h-6.72v-45.129h6.81v18.07c0 7.625 1.2 13.269 3.59 16.934 2.39 3.66 6.1 5.07 11.12 4.222z" fill="#ed192d"/><path d="m1654.13 153.348c0 2.48-.34 4.855-1 7.125-.67 2.269-1.71 4.254-3.13 5.949-1.43 1.695-3.26 3.039-5.5 4.039s-4.9 1.5-7.99 1.5c-3.15 0-5.95-.59-8.4-1.773-2.45-1.18-4.52-2.829-6.22-4.946-1.69-2.121-2.98-4.617-3.86-7.492-.87-2.875-1.32-6.008-1.32-9.398 0-7.93 1.78-13.77 5.32-17.524s8.73-5.629 15.57-5.629c2.85 0 5.51.242 7.99.727 2.48.484 4.78 1.148 6.9 1.996l-.63 5.812c-1.7-.847-3.71-1.543-6.04-2.089-2.33-.543-4.68-.817-7.04-.817-5.08 0-8.91 1.496-11.49 4.492-2.57 3-3.74 7.887-3.49 14.664h30.15c.12.668.18 1.274.18 1.817zm-7.09 1.812h-22.88c.55 3.547 1.88 6.367 4 8.469 2.12 2.105 4.78 3.156 7.99 3.156 3.45 0 6.15-1.066 8.12-3.199s2.89-4.941 2.77-8.426" fill="#ed192d"/><path d="m1693.25 139.453c0 2.543-.54 4.555-1.63 6.039-1.09 1.485-2.45 2.664-4.08 3.539-1.64.879-3.41 1.574-5.32 2.09-1.9.516-3.68 1.09-5.31 1.727-1.63.632-3 1.437-4.09 2.406s-1.63 2.359-1.63 4.176c0 2.238.82 3.996 2.45 5.265 1.64 1.274 4.12 1.907 7.45 1.907 3.14 0 6.26-.512 9.35-1.543l.18 5.902c-1.39.305-2.86.547-4.4.727-1.55.179-3.01.273-4.41.273-2.84 0-5.37-.336-7.58-1.004-2.21-.664-4.05-1.59-5.54-2.773-1.48-1.184-2.6-2.594-3.36-4.235-.75-1.636-1.13-3.394-1.13-5.277 0-2.668.54-4.777 1.63-6.324s2.46-2.758 4.09-3.637c1.63-.883 3.39-1.578 5.26-2.094 1.88-.515 3.64-1.062 5.27-1.64 1.64-.575 3-1.348 4.09-2.321 1.09-.968 1.63-2.363 1.63-4.183 0-2.368-1.03-4.235-3.08-5.598-2.06-1.363-4.73-2.047-8-2.047-1.75 0-3.51.145-5.26.434-1.76.289-3.36.66-4.81 1.109l-.19-6.266c1.4-.3 2.91-.527 4.55-.679 1.63-.153 3.29-.227 4.99-.227 2.96 0 5.61.364 7.94 1.09 2.33.727 4.32 1.738 5.95 3.039s2.88 2.817 3.72 4.543c.85 1.723 1.27 3.586 1.27 5.582" fill="#ed192d"/><path d="m1732.84 139.453c0 2.543-.55 4.555-1.64 6.039-1.09 1.485-2.45 2.664-4.08 3.539-1.64.879-3.41 1.574-5.32 2.09-1.9.516-3.67 1.09-5.31 1.727-1.63.632-2.99 1.437-4.08 2.406s-1.64 2.359-1.64 4.176c0 2.238.82 3.996 2.45 5.265 1.64 1.274 4.12 1.907 7.45 1.907 3.15 0 6.26-.512 9.35-1.543l.18 5.902c-1.39.305-2.86.547-4.4.727-1.55.179-3.01.273-4.41.273-2.84 0-5.37-.336-7.58-1.004-2.2-.664-4.05-1.59-5.54-2.773-1.48-1.184-2.6-2.594-3.36-4.235-.75-1.636-1.13-3.394-1.13-5.277 0-2.668.54-4.777 1.63-6.324s2.46-2.758 4.09-3.637c1.64-.883 3.39-1.578 5.27-2.094 1.87-.515 3.63-1.062 5.27-1.64 1.63-.575 2.99-1.348 4.08-2.321 1.09-.968 1.63-2.363 1.63-4.183 0-2.368-1.02-4.235-3.08-5.598s-4.72-2.047-7.99-2.047c-1.76 0-3.52.145-5.27.434s-3.36.66-4.81 1.109l-.18-6.266c1.39-.3 2.9-.527 4.54-.679 1.63-.153 3.29-.227 4.99-.227 2.97 0 5.62.364 7.94 1.09 2.34.727 4.32 1.738 5.95 3.039 1.64 1.301 2.88 2.817 3.73 4.543.84 1.723 1.27 3.586 1.27 5.582" fill="#ed192d"/><path d="m1779.86 153.348c0 2.48-.33 4.855-.99 7.125-.67 2.269-1.71 4.254-3.14 5.949-1.42 1.695-3.25 3.039-5.49 4.039s-4.9 1.5-7.99 1.5c-3.15 0-5.95-.59-8.4-1.773-2.45-1.18-4.53-2.829-6.22-4.946-1.69-2.121-2.98-4.617-3.86-7.492s-1.32-6.008-1.32-9.398c0-7.93 1.78-13.77 5.32-17.524s8.73-5.629 15.57-5.629c2.84 0 5.51.242 7.99.727 2.48.484 4.78 1.148 6.9 1.996l-.64 5.812c-1.69-.847-3.7-1.543-6.04-2.089-2.32-.543-4.67-.817-7.03-.817-5.09 0-8.91 1.496-11.49 4.492-2.57 3-3.73 7.887-3.49 14.664h30.14c.12.668.18 1.274.18 1.817zm-7.08 1.812h-22.88c.55 3.547 1.88 6.367 3.99 8.469 2.13 2.105 4.79 3.156 8 3.156 3.45 0 6.16-1.066 8.12-3.199 1.97-2.133 2.89-4.941 2.77-8.426" fill="#ed192d"/></g></svg>