<svg clip-rule="evenodd" fill-rule="evenodd" stroke-linejoin="round" stroke-miterlimit="2" viewBox="0 0 14 13" xmlns="http://www.w3.org/2000/svg"><path d="m0 0h14v12.25h-14z" fill="none"/><path d="m12.688 0h-11.376c-.738 0-1.312.602-1.312 1.313v2.187c0 .246.191.438.437.438l.438-.001v7.438c0 .492.383.875.875.875h10.5c.465 0 .875-.383.875-.875v-7.438h.437c.219 0 .438-.191.438-.437v-2.188c0-.71-.602-1.312-1.313-1.312zm-.875 10.938-9.625-.001v-7h9.625v7zm.875-8.312h-11.375v-1.313h11.375zm-7.109 3.937h2.844c.164 0 .328-.136.328-.328v-.656c0-.164-.164-.328-.328-.328h-2.844c-.191 0-.328.164-.328.328v.656c0 .192.137.328.328.328z" fill="#3a3a3a" fill-rule="nonzero"/></svg>