<svg clip-rule="evenodd" fill-rule="evenodd" stroke-linejoin="round" stroke-miterlimit="2" viewBox="0 0 11 14" xmlns="http://www.w3.org/2000/svg"><path d="m0 0h10.5v14h-10.5z" fill="none"/><path d="m4.074 9.57v-.027l-.902-.793.902-.766c.11-.109.11-.246.028-.355l-.493-.52c-.082-.082-.246-.082-.328 0l-1.586 1.477c-.082.109-.082.246 0 .355l1.586 1.477c.055.027.11.055.164.055.055 0 .137-.028.164-.055l.493-.52c.082-.109.082-.246-.028-.328zm6.016-6.89-2.27-2.297c-.246-.246-.601-.383-.929-.383h-5.579c-.738 0-1.312.602-1.312 1.312v11.375c0 .739.574 1.313 1.312 1.313h7.876c.71 0 1.312-.574 1.312-1.313v-9.078c0-.328-.164-.683-.41-.929zm-3.09-1.258 2.078 2.078h-2.078zm2.188 11.265h-7.876v-11.375h4.376l-.001 2.844c0 .383.274.656.657.656h2.843v7.875zm-3.472-6.835c-.137-.028-.246.054-.301.164l-1.477 5.168c-.054.109.028.246.165.273l.656.219c.136.027.273-.055.301-.164l1.503-5.168c.028-.11-.054-.246-.164-.301zm.683 2.105v.027l.903.766-.903.793c-.109.109-.109.246-.027.355l.492.52c.082.082.246.082.328 0l1.586-1.477c.082-.109.082-.273 0-.355l-1.586-1.477c-.082-.082-.246-.082-.328 0l-.492.52c-.082.082-.082.246.027.328z" fill="#3a3a3a" fill-rule="nonzero"/></svg>