<svg clip-rule="evenodd" fill-rule="evenodd" stroke-linejoin="round" stroke-miterlimit="2" viewBox="0 0 13 14" xmlns="http://www.w3.org/2000/svg"><path d="m0 0h12.25v14h-12.25z" fill="none"/><path d="m3.5 4.156c0 .137.082.219.219.219h5.687c.11 0 .219-.082.219-.219v-.875c0-.109-.109-.218-.219-.218h-5.687c-.137 0-.219.109-.219.218zm.219 2.407h5.687c.11 0 .219-.083.219-.219v-.875c0-.11-.109-.219-.219-.219h-5.687c-.137 0-.219.109-.219.219v.875c0 .136.082.219.219.219zm8.175 4.375c.192-.028.356-.219.356-.438v-10.062c0-.219-.219-.438-.438-.438h-9.625c-1.23 0-2.187.984-2.187 2.188v9.625c0 1.23.957 2.187 2.187 2.187h9.625c.219 0 .438-.191.438-.437v-.438c0-.191-.164-.383-.356-.41-.136-.356-.136-1.422 0-1.777zm-1.121 0c-.082.492-.082 1.285 0 1.75h-8.586c-.492 0-.875-.383-.875-.875 0-.465.383-.875.875-.875zm.164-9.625v8.312h-8.75c-.328 0-.628.082-.875.191v-7.628c0-.465.383-.875.875-.875z" fill="#3a3a3a" fill-rule="nonzero"/></svg>