<svg clip-rule="evenodd" fill-rule="evenodd" stroke-linejoin="round" stroke-miterlimit="2" viewBox="0 0 11 14" xmlns="http://www.w3.org/2000/svg"><path d="m0 0h10.5v14h-10.5z" fill="none"/><path d="m10.09 2.68-2.27-2.297c-.246-.246-.601-.383-.929-.383h-5.579c-.738 0-1.312.602-1.312 1.313v11.375c0 .738.574 1.312 1.312 1.312h7.876c.71 0 1.312-.574 1.312-1.313v-9.078c0-.328-.164-.683-.41-.929zm-1.012.82h-2.078v-2.078zm-7.765 9.188v-11.376h4.375v2.844c0 .383.273.656.656.656h2.844v7.876l-7.875-.001z" fill="#3a3a3a" fill-rule="nonzero"/></svg>