<svg clip-rule="evenodd" fill-rule="evenodd" stroke-linejoin="round" stroke-miterlimit="2" viewBox="0 0 14 14" xmlns="http://www.w3.org/2000/svg"><path d="m0 0h13.986v13.986h-13.986z" fill="none"/><path d="m8.593 5.394c-.301-.301-.629-.52-.985-.711-.136-.055-.273-.028-.382.082l-.11.109c-.246.219-.383.52-.41.82-.027.137.055.274.164.356.192.082.492.273.629.437.902.903.902 2.352 0 3.254l-2.051 2.051c-.902.902-2.351.902-3.254 0-.902-.902-.902-2.352 0-3.254l1.258-1.258c.082-.082.11-.191.082-.3-.054-.274-.109-.739-.137-1.04 0-.273-.355-.41-.546-.218-.329.328-.848.847-1.723 1.722-1.504 1.504-1.504 3.938 0 5.414 1.477 1.504 3.91 1.504 5.414 0 2.242-2.242 2.133-2.132 2.297-2.351 1.23-1.477 1.148-3.719-.246-5.113zm4.265-4.266c-1.476-1.504-3.91-1.504-5.414 0-2.242 2.242-2.132 2.133-2.297 2.352-1.23 1.476-1.148 3.718.247 5.113.3.301.628.519.984.711.137.054.273.027.383-.082l.109-.11c.246-.218.383-.519.41-.82.028-.137-.054-.273-.164-.355-.191-.082-.492-.274-.629-.438-.902-.902-.902-2.351 0-3.254l2.051-2.051c.902-.902 2.352-.902 3.254 0 .902.903.902 2.352 0 3.254l-1.258 1.258c-.082.082-.109.192-.082.301.055.273.11.738.137 1.039 0 .273.355.41.547.219.328-.328.847-.848 1.722-1.723 1.504-1.504 1.504-3.937 0-5.414z" fill="#3a3a3a" fill-rule="nonzero"/></svg>