<svg clip-rule="evenodd" fill-rule="evenodd" stroke-linejoin="round" stroke-miterlimit="2" viewBox="0 0 14 13" xmlns="http://www.w3.org/2000/svg"><path d="m0 0h14v12.25h-14z" fill="none"/><path d="m12.688 0h-11.376c-.738 0-1.312.602-1.312 1.313v9.625c0 .738.574 1.312 1.312 1.312h11.375c.711 0 1.313-.574 1.313-1.313v-9.625c0-.71-.602-1.312-1.313-1.312zm-6.343 10.938-4.867-.001c-.11 0-.165-.054-.165-.164v-3.554h5.032v3.718zm0-5.031h-5.032v-3.719h5.032zm6.179 5.031h-4.867v-3.718h5.031v3.554c0 .11-.082.164-.164.164zm.164-5.031h-5.031v-3.719h5.031z" fill="#3a3a3a" fill-rule="nonzero"/></svg>