<svg aria-hidden="true" fill="none" height="20" viewBox="0 0 20 20" width="20" xmlns="http://www.w3.org/2000/svg"><path d="m6.92334 16.0469c0-.0781-.07813-.1563-.19531-.1563-.11719 0-.19532.0782-.19532.1563s.07813.1562.19532.1172c.11718 0 .19531-.0391.19531-.1172zm-1.21094-.1953c0 .0781.07813.1953.19531.1953.07813.039.19532 0 .23438-.0781 0-.0782-.03906-.1563-.15625-.1954-.11719-.039-.23438 0-.27344.0782zm1.75781-.0391c-.11718 0-.19531.0781-.19531.1953 0 .0781.11719.1172.23438.0781.11718-.039.19531-.0781.15625-.1562 0-.0781-.11719-.1563-.19532-.1172zm2.53909-15c-5.39065 0-9.531273 4.14062-9.531273 9.5313 0 4.3359 2.695313 8.0468 6.601563 9.375.50781.0781.66406-.2344.66406-.4688 0-.2734 0-1.6016 0-2.4219 0 0-2.73437.586-3.32031-1.1719 0 0-.42969-1.1328-1.05469-1.4062 0 0-.89844-.625.03906-.625 0 0 .97657.0781 1.52344 1.0156.85938 1.5235 2.26563 1.0938 2.85156.8203.07813-.625.3125-1.0547.625-1.3281-2.1875-.2344-4.41406-.5469-4.41406-4.29686 0-1.09375.3125-1.60156.9375-2.30469-.11719-.27344-.42969-1.28906.11719-2.65625.78125-.23438 2.69531 1.05469 2.69531 1.05469.78125-.23438 1.60156-.3125 2.42185-.3125.8594 0 1.6797.07812 2.461.3125 0 0 1.875-1.32813 2.6953-1.05469.5469 1.36719.1953 2.38281.1172 2.65625.625.70313 1.0156 1.21094 1.0156 2.30469 0 3.74996-2.3047 4.06246-4.4922 4.29686.3516.3125.6641.8984.6641 1.836 0 1.289-.0391 2.9296-.0391 3.2421 0 .2735.1953.586.7031.4688 3.9063-1.2891 6.5625-5 6.5625-9.3359 0-5.39068-4.414-9.5313-9.8437-9.5313zm-5.74221 13.4766c-.07813.039-.03906.1562 0 .2343.07812.0391.15625.0782.23437.0391.03907-.0391.03907-.1563-.03906-.2344-.07812-.039-.15625-.0781-.19531-.039zm-.42969-.3125c-.03906.0781 0 .1172.07813.1562.07812.0391.15625.0391.19531-.039 0-.0391-.03906-.0782-.11719-.1172-.07812-.0391-.11719-.0391-.15625 0zm1.25 1.4062c-.03906.0391-.03906.1563.07813.2344.07812.0781.19531.1172.23437.039.03906-.039.03906-.1562-.03906-.2343-.07813-.0781-.19531-.1172-.27344-.0391zm-.42969-.5859c-.07812.039-.07812.1562 0 .2343.07813.0782.15625.1172.23438.0782.03906-.0391.03906-.1563 0-.2344-.07813-.0781-.15625-.1172-.23438-.0781z" fill="#000"/></svg>