<svg aria-hidden="true" fill="none" height="17" viewBox="0 0 20 17" width="20" xmlns="http://www.w3.org/2000/svg"><path d="m17.9297 4.4375c.7812-.58594 1.4844-1.28906 2.0312-2.10938-.7031.3125-1.5234.54688-2.3437.625.8594-.50781 1.4844-1.28906 1.7969-2.26562-.7813.46875-1.6797.82031-2.5782 1.01562-.7812-.820308-1.8359-1.289058-3.0078-1.289058-2.2656 0-4.10154 1.835938-4.10154 4.101558 0 .3125.03906.625.11719.9375-3.39844-.19531-6.44531-1.83593-8.47656-4.29687-.35157.58594-.546878 1.28906-.546878 2.07031 0 1.40625.703128 2.65625 1.835938 3.39844-.66406-.03906-1.32813-.19531-1.875-.50781v.03906c0 1.99219 1.40625 3.63281 3.28125 4.02345-.3125.0781-.70312.1562-1.05469.1562-.27343 0-.50781-.039-.78125-.0781.50782 1.6406 2.03125 2.8125 3.82813 2.8516-1.40625 1.0937-3.16407 1.7578-5.078128 1.7578-.351562 0-.664062-.0391-.976562-.0781 1.79688 1.1718 3.94531 1.8359 6.28906 1.8359 7.53904 0 11.64064-6.2109 11.64064-11.64062 0-.19532 0-.35157 0-.54688z" fill="#000"/></svg>