<svg fill="none" height="19" viewBox="0 0 20 19" width="20" xmlns="http://www.w3.org/2000/svg"><path d="m18.125.75h-16.25c-1.054688 0-1.875.85938-1.875 1.875v13.75c0 1.0547.820312 1.875 1.875 1.875h16.25c1.0156 0 1.875-.8203 1.875-1.875v-13.75c0-1.01562-.8594-1.875-1.875-1.875zm-11.875 16.25h-4.375c-.35156 0-.625-.2734-.625-.625v-3.125h5zm0-5h-5v-3.75h5zm0-5h-5v-3.75h5zm6.25 10h-5v-3.75h5zm0-5h-5v-3.75h5zm0-5h-5v-3.75h5zm6.25 6.25v3.125c0 .3516-.3125.625-.625.625h-4.375v-3.75zm0-1.25h-5v-3.75h5zm0-5h-5v-3.75h5z" fill="#3a3a3a"/></svg>