<svg fill="none" height="60" viewBox="0 0 60 60" width="60" xmlns="http://www.w3.org/2000/svg"><rect fill="#232323" height="60" rx="30" width="60"/><path d="m45.4785 26.793-3.5644-8.6914c-.2442-.5371-.8789-.9278-1.4649-.9278-.1465 0-.4394.0489-.5859.0977l-5.3223 2.1973c-.7324.2929-1.0742 1.123-.8789 1.8554l-15.625 7.6172c-.4394.1953-.6348.6348-.4883 1.0254l.3907 1.0254-3.125 1.3183c-.2442.0977-.4395.4395-.4395.7325 0 .0488 0 .1953.0488.2929l.9766 2.3438c.0976.293.4394.4883.7324.4883.0488 0 .1953 0 .293-.0489l3.125-1.3183.4394 1.0254c.1953.4883.7325.5371 1.0743.4394l6.4941-2.2949c.0976.0977.1465.1465.2441.1953l-2.4902 7.4707v.0977c0 .2441.1465.3906.3906.3906h.7813c.1953 0 .3418-.0977.3906-.2441l2.2949-6.8848c.586.1465 1.0742.1465 1.6113 0l2.295 6.8848c.0488.1464.1953.2441.3906.2441h.7812c.2442 0 .3907-.1465.3907-.3906 0 0 0-.0489 0-.0977l-2.4903-7.4219c.5371-.4882.9278-1.4648.9278-2.1484l4.4433-1.5137c.3418.3907 1.0254.7813 1.8067.4395l5.3222-2.1973c.5371-.1953.9278-.8301.9278-1.416 0-.1953-.0489-.4394-.0977-.5859zm-28.9551 7.5683-.3906-.9277 2.4414-.9766.3906.9278zm13.4766-.8301c-.8789 0-1.5625-.6835-1.5625-1.5624 0-.8301.6836-1.5626 1.5625-1.5626.8301 0 1.5625.7325 1.5625 1.5626-.0488.8789-.7324 1.5624-1.5625 1.5624zm2.7344-2.9785c-.4883-.9277-1.709-1.7089-2.7832-1.7089-1.709 0-3.125 1.416-3.125 3.125 0 .1464.0488.4394.0976.5859l-5.8105 2.0019-1.8555-4.4921 14.9902-7.2754 2.5879 6.2988zm6.0058-.9765-3.6132-8.6914 5.3222-2.1485 3.5645 8.6426z" fill="#fff"/></svg>