<svg fill="none" height="19" viewBox="0 0 20 19" width="20" xmlns="http://www.w3.org/2000/svg"><path d="m19.375 17h-.625v-1.5625c0-.5078-.4297-.9375-.9375-.9375h-1.5625v-6.875h-1.25v6.875h-2.5v-6.875h-1.25v6.875h-2.5v-6.875h-1.25v6.875h-2.5v-6.875h-1.25v6.875h-1.5625c-.54688 0-.9375.4297-.9375.9375v1.5625h-.625c-.351562 0-.625.3125-.625.625v.3125c0 .1953.117188.3125.3125.3125h19.375c.1563 0 .3125-.1172.3125-.3125v-.3125c0-.3125-.3125-.625-.625-.625zm-16.875-1.25h15v1.25h-15zm17.1875-10.9375-9.1016-3.945312c-.1562-.039063-.4297-.117188-.5859-.117188-.19531 0-.46875.078125-.625.117188l-9.101562 3.945312c-.15625.07812-.273438.27344-.273438.46875v.3125c0 .27344.195312.46875.46875.46875h.78125v.46875c0 .27344.19531.46875.46875.46875h16.56245c.2344 0 .4688-.19531.4688-.46875v-.46875h.7812c.2344 0 .4688-.19531.4688-.46875v-.3125c0-.19531-.1562-.39063-.3125-.46875zm-2.1875.9375h-15v-.50781l7.30469-3.20313c.07812 0 .11719-.03906.19531-.03906.0391 0 .0781.03906.1562.03906l7.3438 3.20313z" fill="#3a3a3a"/></svg>