<svg fill="none" height="15" viewBox="0 0 20 15" width="20" xmlns="http://www.w3.org/2000/svg"><path d="m19.6875 13.75h-18.4375v-13.4375c0-.15625-.15625-.3125-.3125-.3125h-.625c-.195312 0-.3125.15625-.3125.3125v14.0625c0 .3516.273438.625.625.625h19.0625c.1563 0 .3125-.1172.3125-.3125v-.625c0-.1563-.1562-.3125-.3125-.3125zm-15.85938-5.9375c-.11718.11719-.11718.3125 0 .42969l.42969.42969c.11719.11718.3125.11718.42969 0l2.85156-2.8125 3.32034 3.32031c.2344.23437.625.23437.8594 0l3.6718-3.67188 1.7188 1.71875c.1953.19532.4297.27344.664.27344.5078 0 .9766-.35156.9766-.9375v-4.64844c0-.35156-.3125-.66406-.6641-.66406h-4.6484c-.8594 0-1.2891 1.05469-.6641 1.64062l1.7188 1.75782-3.2031 3.20312-3.28129-3.32031c-.27343-.23437-.66406-.23437-.89843 0zm10.31248-5.3125h3.3594v3.35938z" fill="#3a3a3a"/></svg>