<svg fill="none" height="16" viewBox="0 0 12 12" width="16" xmlns="http://www.w3.org/2000/svg"><path clip-rule="evenodd" d="m1.67015 8.49991c-.21136-.36551-.37567-.75627-.489-1.163.50294-.2558.81978-.77219.81999-1.33644s-.31624-1.08088-.81899-1.33706c.22602-.81726.65637-1.56352 1.2505-2.1685.47316.30762 1.07893.32362 1.56767.04142.48873-.28221.77771-.81485.74783-1.37842.82106-.212187 1.68262-.211843 2.5035.001-.02961.56356.25959 1.09605.74842 1.37803.48883.28199 1.09456.26575 1.56758-.04203.2895.295.54655.6305.76255 1.005.2165.3745.3785.765.489 1.163-.503.2558-.81982.7722-.82003 1.33644-.00021.56425.31623 1.08089.81903 1.33706-.2261.81726-.6564 1.56353-1.25055 2.1685-.47315-.30761-1.07892-.32362-1.56766-.04141-.48874.2822-.77772.8148-.74784 1.3784-.82105.2122-1.68261.2119-2.5035-.001.02962-.5635-.25958-1.09603-.74841-1.37802-.48883-.28198-1.09457-.26574-1.56759.04203-.2955-.30153-.5517-.6392-.7625-1.005zm2.82989.09801c.53281.30732.93342.80051 1.125 1.385.2495.02348.5.02398.7495.0005.1917-.58457.59249-1.07778 1.1255-1.385.5326-.30815 1.16026-.40876 1.7625-.2825.145-.204.26999-.4215.37399-.649-.41028-.45828-.63694-1.05189-.63649-1.667 0-.63.23499-1.2185.63649-1.667-.10473-.22742-.23026-.44468-.375-.649-.60185.12616-1.2291.02574-1.76149-.282-.53282-.30731-.93343-.80051-1.125-1.385-.2495-.0235-.5-.024-.7495-.0005-.19171.58458-.5925 1.07778-1.1255 1.385-.53261.30816-1.16027.40876-1.7625.2825-.14472.20415-.26994.42143-.374.649.41028.45828.63694 1.0519.6365 1.667 0 .63-.235 1.2185-.6365 1.667.10473.22743.23026.44469.375.649.60185-.12615 1.2291-.02574 1.7615.282zm1.50002-1.09797c-.82843 0-1.5-.67158-1.5-1.5 0-.82843.67157-1.5 1.5-1.5s1.5.67157 1.5 1.5c0 .82842-.67157 1.5-1.5 1.5zm0-1.00001c.27614 0 .5-.22385.5-.5 0-.27614-.22386-.5-.5-.5s-.5.22386-.5.5c0 .27615.22386.5.5.5z" fill="#3558a2" fill-rule="evenodd"/></svg>