<svg fill="none" height="16" viewBox="0 0 16 16" width="16" xmlns="http://www.w3.org/2000/svg"><path d="m15.3326 7.65352c0 4.04388-3.3565 7.32198-7.49663 7.32198-4.1406 0-7.497103-3.2781-7.497103-7.32198 0-4.04341 3.356503-7.321489 7.497103-7.321489 4.14013 0 7.49663 3.278079 7.49663 7.321939z" fill="#fff"/><path d="m0 7.65332c0-4.21985 3.51516-7.65332 7.83643-7.65332s7.83647 3.43347 7.83647 7.65332c0 4.21988-3.5152 7.65328-7.83647 7.65328s-7.83643-3.4334-7.83643-7.65328zm.679554 0c0 3.85438 3.210686 6.99008 7.156876 6.99008 3.94617 0 7.15687-3.1357 7.15687-6.99053 0-3.85398-3.2107-6.989642-7.15687-6.989642-3.94619 0-7.156876 3.135662-7.156876 6.990092z" fill="#3558a2"/><path d="m13.8912 7.65376c0 3.26594-2.7104 5.91394-6.05449 5.91394-3.34458 0-6.05546-2.648-6.05546-5.91394 0-3.26599 2.71088-5.91353 6.05546-5.91353 3.34409 0 6.05499 2.64754 6.05499 5.91353z" fill="#3558a2"/><g fill="#fff"><path d="m7.18271 10.4824c-.17287 0-.34666-.064-.47872-.193l-2.22941-2.1657c-.12769-.12406-.19969-.29257-.20016-.46848-.00048-.1759.07062-.34478.19764-.46949.12703-.12471.29957-.19503.47968-.19549.18012-.00047.35304.06897.48073.19303l2.22849 2.16568c.09536.09251.16045.2106.187.33928.02655.12869.01338.26218-.03785.38357-.05123.1213-.13821.2251-.24991.2981-.11169.0731-.24308.112-.37749.112z"/><path d="m7.18125 10.4814c-.12008-.0002-.23796-.0315-.34164-.0907s-.18945-.1441-.24858-.2462-.08951-.21762-.08805-.33489.03472-.23206.09638-.3327l3.05663-4.97532c.04591-.07469.10644-.13981.17813-.19165.07168-.05184.15312-.08939.23968-.11049.0865-.02111.1765-.02536.2647-.01251s.173.04254.2495.08738c.0764.04484.1431.10396.1962.17397s.0915.14954.1131.23406c.0217.08452.026.17237.0128.25853-.0131.08617-.0435.16896-.0894.24364l-3.05619 4.97488c-.06023.0983-.14556.1796-.24764.2361-.10208.0564-.21832.086-.33562.0859z"/></g></svg>