<svg aria-hidden="true" fill="none" height="13" viewBox="0 0 11 13" width="11" xmlns="http://www.w3.org/2000/svg"><path d="m10.6484 2.04688-1.19528-1.195318c-.1875-.1875-.53906-.351562-.79687-.351562h-4.03125c-.63281 0-1.125.51562-1.125 1.125v1.125h-1.875c-.632812 0-1.125.51562-1.125 1.125v7.5c0 .6328.492188 1.125 1.125 1.125h5.25c.60938 0 1.125-.4922 1.125-1.125v-1.125h1.875c.6094 0 1.125-.49219 1.125-1.125v-6.28125c0-.25781-.1641-.60937-.3516-.79687zm-1.8984-.77344c.04688.02344.11719.04687.16406.09375l1.21874 1.21875c.0469.04687.0703.11718.0938.16406h-1.4766zm-1.5 10.10156c0 .2109-.1875.375-.375.375h-5.25c-.21094 0-.375-.1641-.375-.375v-7.5c0-.1875.16406-.375.375-.375h1.875v5.625c0 .63281.49219 1.125 1.125 1.125h2.625zm3-2.25c0 .21094-.1875.375-.375.375h-5.25c-.21094 0-.375-.16406-.375-.375v-7.5c0-.1875.16406-.375.375-.375h3.375v1.6875c0 .32812.23438.5625.5625.5625h1.6875z" fill="#232323"/></svg>