<svg aria-hidden="true" fill="none" height="15" viewBox="0 0 15 15" width="15" xmlns="http://www.w3.org/2000/svg"><path d="m13.9258 2.77344-1.4766-1.47656c-.7109-.710942-1.8867-.710942-2.59764 0l-8.69531 8.64062-.65625 4.0742c-.082031.4375.300781.8203.73828.7383l4.07422-.6562 8.6406-8.69536c.711-.71094.711-1.88672-.0273-2.625zm-10.14455 6.23437 4.64844-4.62109 2.43361 2.43359-4.62111 4.64849v-1.1485h-1.3125v-1.31249zm-1.03906 4.29299-.79297-.793.35547-1.9961.49219-.51951h1.14843v1.31251h1.3125v1.1484l-.51953.4922zm10.36331-8.75002-1.3399 1.33984-2.40622-2.40624 1.33982-1.33985c.2461-.24609.6563-.24609.9024 0l1.4765 1.47656c.2735.27344.2735.6836.0274.92969z" fill="#3a3a3a"/></svg>