<svg fill="none" height="22" viewBox="0 0 131 22" width="131" xmlns="http://www.w3.org/2000/svg"><g fill="#373c42"><path d="m9.21406 16.5782h2.83384v-14.58543h-2.83384v5.21154c-1.02277-.95107-2.19512-1.42661-3.55882-1.42661-2.93988 0-5.32724 2.25891-5.32724 5.549 0 3.2302 2.51493 5.5295 5.39146 5.5295 1.42793 0 2.49338-.4759 3.4946-1.3879zm-2.98255-8.38279c1.78953 0 3.11013 1.24845 3.11013 3.09169 0 1.9223-1.36371 3.151-3.11013 3.151-1.76929 0-3.04765-1.3241-3.04765-3.1277 0-1.72445 1.1719-3.11015 3.04721-3.11015zm17.04939 8.38279h2.8338v-10.52336h-2.8338v1.14947c-1.0228-.95107-2.1951-1.42661-3.5588-1.42661-2.9404 0-5.3273 2.25891-5.3273 5.549 0 3.2302 2.5149 5.5295 5.3915 5.5295 1.4297 0 2.4942-.4759 3.4972-1.3879v1.1099zm-2.9826-8.38279c1.7891 0 3.1101 1.24845 3.1101 3.09169 0 1.9223-1.3637 3.151-3.1101 3.151-1.7693 0-3.0476-1.3241-3.0476-3.1277 0-1.72445 1.1719-3.11015 3.0472-3.11015zm9.0159-2.14057h-1.4486v2.25935h1.449v8.26401h2.8374v-8.26401h1.6848v-2.25935h-1.6804v-3.88435h-2.833v3.88435zm14.442 10.52336h2.8343v-10.52336h-2.8343v1.14947c-1.0223-.95107-2.1942-1.42661-3.5579-1.42661-2.9408 0-5.3273 2.25891-5.3273 5.549 0 3.2302 2.5145 5.5295 5.3911 5.5295 1.4279 0 2.4933-.4759 3.4945-1.3879v1.1099zm-2.9825-8.38279c1.7904 0 3.111 1.24845 3.111 3.09169 0 1.9223-1.3637 3.151-3.111 3.151-1.7685 0-3.0473-1.3241-3.0473-3.1277 0-1.72445 1.1719-3.11015 3.0473-3.11015zm10.2312 5.62809c-.8952 0-1.6408.6542-1.6408 1.5063 0 .8323.7456 1.5264 1.6408 1.5264.9164 0 1.6189-.6941 1.6189-1.5264s-.7241-1.5063-1.6189-1.5063zm15.6043-7.76866h-2.8343v1.14947c-1.0654-.93128-2.1731-1.42661-3.5799-1.42661-2.877 0-5.2877 2.14014-5.2877 5.3901 0 3.1511 2.3843 5.4109 5.4328 5.4109 1.4693 0 2.4899-.4562 3.4313-1.3083 0 .9907-.022 1.7042-.7038 2.2989-.5103.4355-1.3637.6907-2.4107.6907-1.1966 0-2.0456-.2772-2.6218-.9106h-3.1322c.7655 2.1995 2.745 3.3301 5.8596 3.3301 1.7244 0 3.0881-.3784 4.1087-1.1702 1.2977-1.0294 1.7244-2.3975 1.7244-4.4386v-9.01806zm-5.7759 2.14057c1.8753 0 3.0899 1.30784 3.0899 3.01199 0 1.7838-1.2999 2.9531-3.0472 2.9531-1.7685 0-3.1115-1.2286-3.1115-2.9729 0-1.62496 1.1935-2.99219 3.0683-2.99219zm13.9612-2.41771c-3.0899 0-5.8595 2.35789-5.8595 5.549 0 3.0916 2.5998 5.5295 5.8806 5.5295 3.452 0 5.9871-2.4977 5.9871-5.5493 0-3.11149-2.7054-5.52964-6.0082-5.52964zm.0427 2.4969c1.8537 0 3.111 1.26824 3.111 3.0521 0 1.8431-1.3637 3.0318-3.111 3.0318-1.8327 0-3.0472-1.2683-3.0472-3.0516 0-1.74426 1.2783-3.0323 3.0472-3.0323zm8.2605 2.5963c0 .8719-.0427 1.3672.1065 2.2193.4473 2.4573 2.1309 3.7458 4.8583 3.7458 1.5766 0 2.7485-.3959 3.6437-1.3285 1.1965-1.2282 1.3241-2.6548 1.3241-4.597v-4.85566h-2.833v5.60876c0 1.7834-.6158 2.7547-2.1291 2.7547-1.4913 0-2.1292-.9911-2.1292-2.8739v-5.49h-2.8329v4.817zm16.419 5.7073h1.8323l4.816-10.52336h-2.877l-2.855 6.20266-2.855-6.20266h-2.8989l4.8345 10.52336z"/><path d="m108.541 14.4926c.359 0 .66.1165.902.3493.25.2229.376.4986.376.827 0 .3256-.125.6042-.376.8359-.249.2258-.55.3387-.902.3387-.349 0-.649-.1129-.901-.3387-.241-.2347-.361-.5147-.361-.8403 0-.3255.122-.6012.365-.827.252-.2346.553-.3519.902-.3519zm11.889-8.17998-.225.76896h-1.829l-1.378 5.09232c-.61 2.245-1.224 3.9811-1.842 5.2085-.877 1.732-1.821 2.9283-2.832 3.5887-.768.505-1.536.7575-2.305.7575-.498 0-.923-.1399-1.275-.4196-.258-.1942-.387-.4467-.387-.7576 0-.2484.108-.4658.325-.6523.208-.1789.468-.2684.779-.2684.226 0 .418.066.576.198.153.1319.229.2836.229.4548 0 .1701-.088.3285-.264.4751-.132.1085-.198.1892-.198.242 0 .0704.029.1246.088.1627.076.0528.193.0792.352.0792.36 0 .74-.1056 1.139-.3167.393-.2112.744-.5264 1.051-.9458.311-.4135.603-1.0118.876-1.7948.117-.3255.431-1.4018.941-3.2289l2.177-7.88264h-2.178l.175-.76983c.693 0 1.176-.04253 1.452-.12758.276-.09384.527-.26497.752-.51336.235-.25691.536-.73054.902-1.42089.493-.9326.965-1.65551 1.417-2.16873.618-.69124 1.266-1.207832 1.942-1.549784.684-.34899 1.326-.523486 1.927-.523486.634 0 1.142.151327 1.527.453981.384.295322.576.617919.576.967789 0 .27157-.095.50061-.286.68713-.194.18564-.44.27846-.739.27846-.26 0-.473-.07039-.641-.21115-.158-.14077-.237-.30794-.237-.5015 0-.12317.054-.2742.163-.4531.108-.18769.162-.312328.162-.373915 0-.10851-.037-.189892-.113-.244147-.108-.078596-.267-.117894-.475-.117894-.526 0-.998.155433-1.416.466298-.56.412048-1.062 1.057238-1.505 1.935578-.226.4575-.639 1.59539-1.24 3.41366h1.838z"/><path d="m121.282 6.68567 4.323-.65282-1.804 5.66335c1.461-2.32272 2.789-3.94626 3.983-4.87064.677-.52847 1.228-.79271 1.655-.79271.275 0 .492.07772.651.23315.159.14752.238.36512.238.65282 0 .51263-.142 1.00195-.427 1.46796-.2.34957-.488.52436-.864.52436-.192 0-.359-.05821-.501-.17464-.134-.11672-.217-.29561-.251-.53668-.016-.14722-.054-.244-.112-.29034-.067-.06246-.146-.0937-.238-.0937-.142 0-.276.03109-.401.09326-.217.10851-.547.41058-.99.90621-.693.75956-1.445 1.74645-2.255 2.96055-.352.5132-.653 1.091-.902 1.7332-.352.8857-.553 1.418-.602 1.5969l-.401 1.4649h-1.918l2.319-7.23647c.266-.83875.4-1.43702.4-1.79481 0-.14077-.063-.25807-.189-.35192-.167-.12611-.389-.18916-.665-.18916-.176 0-.498.03373-.967.10118l-.088-.43111z"/></g></svg>