<svg viewBox="0 0 542.22 476.18" xmlns="http://www.w3.org/2000/svg"><path d="m.22 125.79h19.31c13.89 0 22.46 7.13 22.46 18.86 0 7.58-3.69 13.26-10.1 16.33l19.85 28h-15.34l-16.78-25.56h-6.62v25.58h-12.78zm12.78 10.92v15.79h7.22c5.41 0 8.57-2.89 8.57-8 0-4.78-3.16-7.76-8.57-7.76z"/><path d="m59.68 125.79h36.81v10.92h-24v14.62h20.39v10.91h-20.39v15.76h24v11h-36.81zm12.45-5.41 10.2-12.18h13.17l-11.73 12.18z"/><path d="m111.38 125.79h20.84c13.9 0 22.38 7.13 22.38 18.86s-8.48 18.77-22.38 18.77h-8v25.58h-12.84zm12.81 10.92v15.79h8.57c5.42 0 8.67-2.89 8.67-8 0-4.78-3.25-7.76-8.67-7.76z"/><path d="m202.42 125.79h12.81v38.44c0 16.6-9.74 26.52-25.62 26.52s-25.54-9.92-25.54-26.52v-38.44h12.82v39.52c0 8.48 4.78 13.44 12.81 13.44 7.85 0 12.72-5 12.72-13.44z"/><path d="m231.11 125.79h18c13.17 0 21.11 6.5 21.11 17.14a14.78 14.78 0 0 1 -6.68 12.46c6.68 3 10.38 8.39 10.38 15 0 11.55-8.93 18.59-23.46 18.59h-19.35zm12.81 10.92v13.8h5.42c4.87 0 7.67-2.43 7.67-6.94 0-4.24-2.8-6.86-7.67-6.86zm0 24.81v16.48h7.22c6 0 9.57-3.16 9.57-8.39s-3.61-8.12-9.57-8.12z"/><path d="m287 125.79h12.82v51.52h24v11.69h-36.82z"/><path d="m335.06 125.79h12.81v63.21h-12.81z"/><path d="m431.78 193.37a13.17 13.17 0 0 0 4.51-.72v10.83a16.73 16.73 0 0 1 -6.68 1.17c-7 0-13.53-2.89-19.76-8.3l-7.49-6.68a33.52 33.52 0 0 1 -8.66 1.08c-19.94 0-33.56-15.33-33.56-33.38s13.62-33.37 33.56-33.37 33.48 15.34 33.48 33.38a33.46 33.46 0 0 1 -12.46 26.35l3.79 3.61c4.88 4.41 9.21 6.03 13.27 6.03zm-17.78-36c0-12.09-8.48-21.38-20.3-21.38s-20.39 9.29-20.39 21.38 8.48 21.38 20.39 21.38 20.3-9.29 20.3-21.38z"/><path d="m476.71 125.79h12.81v38.44c0 16.6-9.74 26.52-25.62 26.52s-25.53-9.92-25.53-26.52v-38.44h12.81v39.52c0 8.48 4.78 13.44 12.81 13.44 7.85 0 12.72-5 12.72-13.44z"/><path d="m505.4 125.79h36.82v10.92h-24v14.62h20.39v10.91h-20.39v15.76h24v11h-36.82z"/><path d="m.22 216.86h36.78v10.92h-24v14.62h20.42v10.91h-20.42v26.69h-12.78z"/><path d="m48.31 216.86h19.31c13.9 0 22.47 7.13 22.47 18.86 0 7.58-3.7 13.26-10.11 16.33l19.85 28h-15.34l-16.78-25.56h-6.59v25.51h-12.81zm12.81 10.92v15.79h7.22c5.42 0 8.57-2.89 8.57-8 0-4.78-3.15-7.76-8.57-7.76z"/><path d="m126.45 216.86h16.78l23.91 63.14h-13.62l-6.05-16.42h-25.26l-6 16.42h-13.67zm17 35.82-8.61-23.68-8.66 23.73z"/><path d="m176.89 216.86h16.42l28.24 45.21v-45.21h12.81v63.14h-16.42l-28.24-45.36v45.36h-12.81z"/><path d="m296.71 261.16 10.1 7.76a31.35 31.35 0 0 1 -21.65 12.54l-7.85 13.09h-11.37l7.94-13.27c-16.42-2.88-27.25-16.78-27.25-32.84 0-18 13.63-33.38 33.57-33.38 11.45 0 20.84 5.14 26.61 12.81l-10.1 7.85a19.76 19.76 0 0 0 -16.51-8.66c-11.91 0-20.39 9.29-20.39 21.38s8.48 21.38 20.39 21.38a19.74 19.74 0 0 0 16.51-8.66z"/><path d="m333.43 216.86h16.78l23.91 63.14h-13.62l-6.05-16.42h-25.26l-6 16.42h-13.67zm17.05 35.82-8.66-23.68-8.66 23.73z"/><path d="m383.87 216.86h12.81v63.14h-12.81z"/><path d="m418 262.7c3.79 4.87 8.85 7.76 14 7.76s8.12-2.71 8.12-7.31c0-11.28-28.87-8.75-28.87-29.78 0-10 8.21-18.31 20.21-18.31 9.47 0 16.78 4.24 22.1 10.64l-9.38 8.4c-3.7-4.79-7.85-7.85-12.63-7.85-4.42 0-7.31 2.88-7.31 6.58 0 11.28 28.87 8.66 28.87 30-.18 11.73-9.38 18.94-20.93 18.94-10.65 0-17.86-3.88-23.46-10.55z"/><path d="m466.52 216.86h36.81v10.92h-24v14.62h20.39v10.91h-20.39v15.79h24v10.9h-36.81z"/><path d="m205.73 454.41c1.72 0 3.2 1.3 2.41 4.59l-8 1.85c1.39-3.7 3.7-6.44 5.55-6.44m4.4 12.83h-1.57c-2 2.36-4.12 4.21-6.25 4.21s-3.29-1.29-3.29-4.21a17.58 17.58 0 0 1 .37-3.52l12.83-4.21c2.5-5.93-.51-8.52-4-8.52-6.07 0-13 10.14-13 19 0 4 1.9 6.16 4.86 6.16 3.48 0 7.09-3.38 10-8.94m-2.54-18.61 9-8.43v-1h-4.87l-5.55 9.4zm-27.69 5.92h4.26l-6.68 18.48c-.6 1.57.24 3.15 1.86 3.15 3.84 0 10.05-3.8 12.22-9h-1.2c-1.72 1.81-5 4.22-7.83 4.73l6.21-17.37h6.35l.79-2.64h-6.16l2.36-6.66h-2.45l-4.4 6.66-5.23.74zm-5.75-.88a1.89 1.89 0 0 0 -1.52-2.68c-3.71 0-8.11 3.33-9.87 8h1.33c1.2-1.71 3.24-3.61 5.14-3.94l-7.14 18.47a1.85 1.85 0 0 0 1.53 2.69c3.52 0 7.64-3.38 9.4-8h-1.2c-1.21 1.71-3.25 3.61-5.14 3.93zm1.3-9.26a3.05 3.05 0 0 0 3.06-3.05 3.06 3.06 0 0 0 -6.12 0 3 3 0 0 0 3.06 3.05m-40.8 28.34c-.92 2.09 0 3.43 2.09 3.43 1.25 0 1.8-.33 2.31-1.67l4.91-13c2.27-2.78 6.95-5.74 8.8-5.74 1.34 0 1.16 1.11.28 2.78l-7.46 14.48a2.13 2.13 0 0 0 1.85 3.15c3.71 0 8.11-3.34 9.87-8h-1.21c-1.2 1.71-3.24 3.61-5.14 3.93l6.48-13.1a10.45 10.45 0 0 0 1.26-4.49 3.19 3.19 0 0 0 -3.43-3.52c-3.2 0-6.44 3.61-10.28 8.05v-3.42c0-2.46-.79-4.63-3-4.63-1.39 0-2.73 1.2-4 2.91v.47c2.4-.14 3.47 3.47 1.76 7.27zm-.09-16.11c.88-3 .42-5.65-1.9-5.65-2.73 0-3.42 2.08-6.2 8.05v-3.42c0-2.46-.79-4.63-3-4.63-2.59 0-5 4-6.76 8h1.2c1.25-1.81 2.41-2.87 3.34-2.87 1.11 0 1.71 1.71 0 5.51l-5 11.11c-.92 2.09 0 3.43 2.09 3.43 1.25 0 1.8-.33 2.31-1.67l4.91-13c1.39-1.71 2.64-3.2 4.22-4.86zm-28.43-2.23c1.71 0 3.2 1.3 2.41 4.59l-8 1.85c1.39-3.7 3.71-6.44 5.56-6.44m4.4 12.83h-1.41c-2 2.36-4.12 4.21-6.25 4.21s-3.28-1.29-3.28-4.21a16.87 16.87 0 0 1 .37-3.52l12.82-4.21c2.5-5.93-.51-8.52-4-8.52-6.06 0-13 10.14-13 19 0 4 1.9 6.16 4.86 6.16 3.47 0 7.09-3.38 10-8.94m-30.23-12.63h4.26l-6.76 18.45c-.6 1.57.23 3.15 1.85 3.15 3.85 0 10-3.8 12.23-9h-1.21c-1.71 1.81-5 4.22-7.82 4.73l6.16-17.33h6.35l.78-2.64h-6.13l2.36-6.66h-2.44l-4.4 6.66-5.23.74zm-23.38 14.45c0-5.69 6.34-13.42 9.91-13.42a8.21 8.21 0 0 1 2.17.27l-3.7 9.87c-2.13 2.59-5.42 5.74-7 5.74-.88 0-1.43-.74-1.43-2.46m19.49-19-1.94-.14-2.18 2.13h-.46c-10.56 0-19.68 11.86-19.68 20.47a3.5 3.5 0 0 0 3.79 3.8c2.74 0 5.42-3.89 8.43-8.06l-.14 1.48c-.37 4.26.93 6.58 3.15 6.58 2.59 0 5-4 6.76-8h-1.2c-1.2 1.74-2.36 2.74-3.29 2.74s-1.66-1.76 0-5.51zm-22.5 6.72c.88-3 .41-5.65-1.9-5.65-2.73 0-3.43 2.08-6.21 8.05v-3.42c0-2.46-.78-4.63-3-4.63-2.59 0-5 4-6.76 8h1.21c1.25-1.81 2.4-2.87 3.33-2.87 1.11 0 1.71 1.71 0 5.51l-5 11.11c-.93 2.09 0 3.43 2.08 3.43a2.07 2.07 0 0 0 2.4-1.74l4.91-13c1.39-1.71 2.64-3.2 4.21-4.86zm-35.42 18.53.46-1.43c-6.16-1.16-7-1.16-4.49-7.88l2.5-6.9h6.81c3.05 0 3.1 1.25 2.63 4.59h1.76l4.08-11.16h-1.76c-1.53 2.64-2.73 4.58-6.07 4.58h-6.71l3.56-9.77c1.12-3.1 1.76-3.75 5.93-3.75h3c4.3 0 4.81 1.16 4.81 5.51h1.71l1.44-7.59h-25.59l-.5 1.43c4.95 1 5.41 1.49 3.1 7.88l-5.52 15.18c-2.31 6.35-3.29 6.86-9 7.88l-.42 1.43z"/><path d="m143.73 396.53c1.71 0 3.2 1.3 2.41 4.58l-8 1.86c1.39-3.71 3.71-6.44 5.56-6.44m4.4 12.83h-1.57c-2 2.36-4.13 4.21-6.26 4.21s-3.28-1.3-3.28-4.21a17.5 17.5 0 0 1 .37-3.52l12.82-4.22c2.5-5.92-.51-8.52-4-8.52-6.06 0-13 10.14-13 19 0 4 1.9 6.15 4.86 6.15 3.47 0 7.09-3.38 10-8.93m-2.55-18.62 9-8.43v-1h-4.86l-5.56 9.4zm-27.69 5.93h4.26l-6.76 18.48c-.6 1.57.23 3.14 1.85 3.14 3.85 0 10.05-3.79 12.23-9h-1.21c-1.71 1.81-5 4.21-7.82 4.72l6.2-17.36h6.45l.79-2.64h-6.16l2.36-6.67h-2.46l-4.4 6.67-5.23.74zm-5.74-.88a1.9 1.9 0 0 0 -1.53-2.69c-3.7 0-8.1 3.34-9.86 8h1.33c1.21-1.71 3.24-3.61 5.14-3.93l-7.14 18.48a1.84 1.84 0 0 0 1.53 2.68c3.52 0 7.64-3.38 9.4-8h-1.21c-1.2 1.72-3.24 3.62-5.14 3.94zm1.3-9.26a3.06 3.06 0 1 0 -3.06-3.06 3.05 3.05 0 0 0 3.06 3.06m-24.55 27.73 12.92-33.85-.42-.51-8.1.93v1l1.58 1.2c1.43 1.11 1 2.18-.33 5.61l-10.09 26.55a2.12 2.12 0 0 0 1.85 3.14c3.7 0 7.64-3.33 9.4-8h-1.21a10.38 10.38 0 0 1 -5.6 3.94m-24.54-3.15c0-5.7 6.34-13.43 9.91-13.43a7.83 7.83 0 0 1 2.18.28l-3.71 9.86c-2.13 2.6-5.42 5.74-6.94 5.74-.88 0-1.44-.74-1.44-2.45m19.49-19-1.94-.14-2.18 2.06h-.46c-10.56 0-19.68 11.88-19.68 20.5a3.5 3.5 0 0 0 3.8 3.79c2.73 0 5.42-3.89 8.43-8.05l-.14 1.48c-.37 4.26.92 6.57 3.14 6.57 2.6 0 5-4 6.77-8h-1.21c-1.25 1.81-2.41 2.87-3.33 2.87s-1.67-1.76 0-5.51zm-47.14 30.71c0-2.46 2.37-4 5.75-5.33a41.23 41.23 0 0 0 5 1.9c3.52 1.16 4.86 1.62 4.86 2.69 0 2.26-3.84 4-9.08 4-4.39 0-6.53-.93-6.53-3.24m9.59-15c-1.53 0-2.13-1.3-2.13-2.78 0-4.12 2.22-10.19 5.7-10.19 1.52 0 2.13 1.3 2.13 2.78 0 4.12-2.23 10.19-5.7 10.19m10 12.69c0-3-2.64-4-6.95-5.33-3.7-1.11-5.37-1.43-5.37-2.64 0-1 .79-2.13 2.36-3a10.81 10.81 0 0 0 10-10.37 6.3 6.3 0 0 0 -.51-2.55h5.14l.78-2.64h-8.09a6.3 6.3 0 0 0 -3.28-.93 10.74 10.74 0 0 0 -10.61 10.24 6 6 0 0 0 4.91 6.16c-3 1.34-4.68 2.91-4.68 4.77a2.92 2.92 0 0 0 1.25 2.5c-6.94 2-9.68 4.35-9.68 7.64s4.22 4.65 9.22 4.65c8.47 0 15.56-4.59 15.56-8.43m-32.37-19.87c3.06 0 3.1 1.25 2.64 4.58h1.76l4.07-11.16h-1.75c-1.53 2.64-2.74 4.59-6.07 4.59h-6.72l3.38-9.31c1.12-3.1 1.76-3.71 5.93-3.71h3c4.3 0 4.81 1.16 4.81 5.47h1.71l1.44-7.6h-25.59l-.5 1.44c4.95 1 5.41 1.48 3.1 7.87l-5.52 15.19c-2.31 6.34-3.29 6.85-9 7.87l-.42 1.44h28.45l5.1-8.06h-1.95c-3.24 3.06-7.31 6-13 6-7.55 0-6.85-.32-4.35-7.22l2.68-7.36zm3.71-19.4 9-6.21v-1h-5.44l-5 7.18z"/><path d="m140.72 338.65c1.71 0 3.2 1.29 2.41 4.58l-8 1.85c1.39-3.7 3.71-6.43 5.56-6.43m4.4 12.82h-1.58c-2 2.37-4.12 4.22-6.25 4.22s-3.28-1.3-3.28-4.22a17 17 0 0 1 .37-3.52l12.82-4.21c2.5-5.93-.51-8.52-4-8.52-6.06 0-13 10.14-13 19 0 4 1.9 6.16 4.86 6.16 3.47 0 7.09-3.38 10.05-8.94m-2.55-18.61 9-8.43v-1h-4.86l-5.56 9.4zm-26.53 5.96h3.38l-6.76 18.47c-.6 1.58.23 3.15 1.85 3.15 3.84 0 10-3.8 12.23-9h-1.21c-1.71 1.8-5 4.21-7.82 4.72l6.2-17.36h6.35l.78-2.64h-6.16l2.37-6.67h-2.46l-4.4 6.67-4.35.74zm-3.33 2.08c.88-3 .41-5.65-1.9-5.65-2.74 0-3.43 2.08-6.21 8.06v-3.43c0-2.45-.79-4.63-3-4.63-2.59 0-5 4-6.76 8h1.2c1.25-1.8 2.4-2.87 3.33-2.87 1.11 0 1.71 1.71 0 5.51l-5 11.11c-.93 2.09 0 3.43 2.08 3.43a2.07 2.07 0 0 0 2.32-1.67l4.91-13c1.38-1.71 2.64-3.19 4.21-4.86zm-28.44-2.22c1.72 0 3.2 1.29 2.41 4.58l-8 1.85c1.39-3.7 3.7-6.43 5.55-6.43m4.4 12.82h-1.49c-2 2.37-4.12 4.22-6.25 4.22s-3.29-1.3-3.29-4.22a17.65 17.65 0 0 1 .37-3.52l12.83-4.21c2.5-5.93-.51-8.52-4-8.52-6.07 0-13 10.14-13 19 0 4 1.9 6.16 4.86 6.16 3.48 0 7.09-3.38 10-8.94m-31.44 5.19c-1.25 0-3.06-1.16-3.06-2.18a26.48 26.48 0 0 1 1.25-3.56l2.09-5.51c2.22-2.64 5.6-5.47 7.5-5.47 1.16 0 2 .74 2 2.46 0 5-4.73 14.26-9.82 14.26m14.59-16.3c0-3.75-1.39-5.14-4-5.14-3.24 0-6.29 3.43-9.35 7.59l7.73-20.32-.31-.46-8.11.92v1l1.58 1.21c1.43 1.11 1 2.27-.33 5.6l-8.33 21.49a24.31 24.31 0 0 0 -1.34 3.93c0 2.23 3 4.31 5.74 4.31 6.3 0 16.81-11.34 16.81-20.05m-25.19-2.45a1.9 1.9 0 0 0 -1.53-2.69c-3.71 0-8.11 3.33-9.86 8h1.2c1.2-1.71 3.24-3.61 5.14-3.94l-7.09 18.44a1.85 1.85 0 0 0 1.51 2.64c3.52 0 7.64-3.38 9.4-8h-1.2c-1.2 1.7-3.2 3.59-5.12 3.93zm1.29-9.27a3.05 3.05 0 0 0 3.08-3.1 3.09 3.09 0 0 0 -3.06-3.06 3.05 3.05 0 0 0 -3.05 3.06 3 3 0 0 0 3.05 3.05m-18.66-3h-16.87l-.47 1.44c5 1 5.42 1.48 3.11 7.87l-5.47 15.23c-2.31 6.34-3.29 6.85-9 7.87l-.42 1.43h25.68l5.55-9.9h-1.94c-3.15 3.47-6.86 7.82-12.55 7.82-4.31 0-4.82-.74-2.5-7.22l5.46-15.18c2.27-6.35 3.29-6.86 9-7.87z"/><path d="m95.34 74c.9-.9 1.81-1.86 2.72-2.83a52.76 52.76 0 0 1 5.28-5.4 17.67 17.67 0 0 1 1.73-1.38c.15-.15.15-.47.31-.63-.79.32-1.27 1-2.06 1.27-.16 0-.31-.16-.16-.32l1.7-1.27h-.11c-.16 0-.16-.15-.16-.31-2.06-.32-3.65 1.11-5.07 2.37-.32.16-.64-.15-.79-.15-2.38.79-4.12 2.85-6.5 3.8v-.35c-.95.32-1.88.89-2.85 1.11a16.84 16.84 0 0 1 -4 .16 50.45 50.45 0 0 0 -5.76 1h-.16a13 13 0 0 0 -3 1.19l-.11.06a3.2 3.2 0 0 1 -.22.27 3.93 3.93 0 0 1 -1.09 1 16.12 16.12 0 0 0 -2.63 2.06.39.39 0 0 1 -.25.08c-.85.82-1.69 1.64-2.56 2.44a.75.75 0 0 1 -.48.06 1.3 1.3 0 0 1 .1-.15c.13-.23.26-.45.4-.67s.31-.49.47-.74.44-.65.68-1a.15.15 0 0 0 0-.21.31.31 0 0 0 -.22-.08 15.12 15.12 0 0 1 2.66-2c-.11 0-.26 0-.18-.15s.18-.29.27-.44l.06-.14-.12-.12a5 5 0 0 0 -.75.52c-.38.34-.68 1-1.25 1h-.24a.38.38 0 0 1 -.17-.06 1 1 0 0 1 .08-.14l.07-.13.06-.11.11-.2.09-.15c.06-.12.13-.23.2-.35l.1-.17.17-.28c.08-.14 0-.24-.12-.29a3.5 3.5 0 0 1 1.08-.94c.6-.31 1.21-.68 1.82-1l.26-.23a10.77 10.77 0 0 0 -2.52 1.25 1.16 1.16 0 0 0 -.27.14.4.4 0 0 1 -.4-.14.21.21 0 0 1 0-.12c.16-.32.63-.48 1-.79.16 0 .31 0 .31.16 5.08-4 12-3 17.91-5.07l1.43-1c.79-.31 1.42-1.1 2.38-1.58a7 7 0 0 0 2.69-3.65.56.56 0 0 0 -.16-.31 24.48 24.48 0 0 1 -7 5.23c-3.33 1.74-7 1.42-10.46 1.9.16-.32.47-.32.79-.32 0-.47.32-.63.64-.95h.47c.16 0 .16-.32.32-.32.31 0 .79-.15.63-.15-.47-.64-1.42.47-2.22 0 .32-.32.16-.8.48-.95h.63a1.12 1.12 0 0 1 .32-.64c2.38-1.43 4.6-2.53 6.81-3.8-.47 0-.79.47-1.26.16.31 0 0-.48.31-.48 1.75-.47 3.17-1.43 4.92-2.06-.64 0-1.11.48-1.75 0 .32-.16.48-.47 1-.47v-.48c0-.16.16-.16.32-.16a.56.56 0 0 1 -.32-.16c.16-.31.64-.16 1-.47-.15 0-.47 0-.47-.16a3.16 3.16 0 0 1 2.06-.95c-.16-.32-.64 0-.64-.32 0-.16.16-.16.32-.16h-.32c-.31-.16-.15-.47-.15-.63 1-1.11 1-2.54 1.42-3.8-.16 0-.31 0-.31-.16-1.59 1.74-4.12 2.37-6.5 3h-.86a3.28 3.28 0 0 1 -2.7-.16 11 11 0 0 1 -1.6-1.33 18.74 18.74 0 0 0 -4-1.9 35.56 35.56 0 0 0 -12.21-1.74c1.75-1 3.67-1 5.55-1.59 2.69-.79 5.23-1.74 8.08-1.58a5.23 5.23 0 0 0 -1.58 0c-2.22-.16-4.44.47-6.82 1-1.58.31-3 .95-4.59 1.27-.95.31-1.43 1.26-2.54 1.11v-.48c1.59-1.9 3.49-3.8 6-4 2.86-.48 5.55 0 8.4.31a41 41 0 0 1 6 1.11c.8 0 1 1.27 1.59 1.43 1 .32 1.9 0 2.85.63 0-.31-.16-.63 0-.95.64-.63 1.43.16 2.06-.16 1.27-.79-1.11-2.21-1.74-3.32a.56.56 0 0 1 .16-.32c1.26 1.11 2.22 2.38 3.8 3.17.79.32 2.69.79 2.38-.16-.79-1.74-2.38-3.17-3.65-4.75v-.64c-.31 0-.31-.16-.47-.31v-.64c-.64-.32-.48-.95-.8-1.42-.47-.8-.15-1.91-.47-2.86a15.4 15.4 0 0 1 -.63-2.69c-.37-2.71-1.01-5.08-1.37-7.62-.32-3 1.74-5.39 3.17-8.08a13.61 13.61 0 0 1 4.44-5.07 13.77 13.77 0 0 1 3-5.07 13.14 13.14 0 0 1 4.89-3.17 42 42 0 0 1 4.26-1.61h-108.76v83.86h77c3-2.17 6-3.2 10.24-5.28 2.01-.98 6.56-3.06 8.1-4.58zm-24.34-11.38c-.31 0-1 .16-.79-.16.16-.79 1.27-.79 1.9-1.11.32-.16.79-.47 1.11-.31.32.47.79.31 1.11.63-.98.95-2.25.48-3.33.95zm-24.27-3.49a.52.52 0 0 1 -.16-.31 49.55 49.55 0 0 0 5.07-8.08 22 22 0 0 0 5.36-4.44 30.68 30.68 0 0 1 8.87-7 6.15 6.15 0 0 1 4.12.15c-.47.64-1.27.48-1.9 1a.61.61 0 0 1 -.48-.15.59.59 0 0 0 .16-.48c-1.58 1.74-3.8 2.54-5.07 4.6-.92 1.58-1.55 3.58-3.61 4.1-.64.16.16-.48-.16-.32-4.93 3.01-8.4 6.66-12.2 10.93zm13.15-10.45c-.16.31-.33.35-.48.63a1.18 1.18 0 0 1 -.63.63c-.16 0-.32 0-.32-.16a2 2 0 0 1 1.27-1.42c.16 0 .16.16.16.32zm7.36 23.74a1.39 1.39 0 0 1 -.39.46c.2 0 .34.13.21.25a3.54 3.54 0 0 1 -1.2.83.9.9 0 0 1 -.25 0c-.19.19-.39.37-.59.55s-1.06 0-.79-.19.77-.74 1.17-1.1c.22-.21.46-.4.66-.63a1.94 1.94 0 0 1 .34-.36c.13-.05.97-.12.84.19zm-2.84-1.31c-.59.42-1.18.84-1.81 1.2s-1.39.7-2.09 1a.21.21 0 0 0 -.27-.06 7.26 7.26 0 0 0 -1.59 1.21 2.28 2.28 0 0 0 -.22.22l-.22.22c-.11.11-.22.22-.35.37a.73.73 0 0 1 -.21.22c-.1.06-.37.06-.34-.12l-.28.14a2 2 0 0 0 -.25.14.2.2 0 0 0 -.11 0 .15.15 0 0 0 -.11 0c-.2.15-.39.31-.58.48a7.66 7.66 0 0 0 -.91 1l-.05.06v.07l-.11.15a.26.26 0 0 1 -.13.07l-.06-.1a.56.56 0 0 1 -.05-.08c0-.08-.09-.16-.13-.25a.3.3 0 0 1 0-.08c.17-.18.33-.37.5-.57l.16-.2.01-.2.09-.12c.18-.23.34-.45.5-.67l.07-.1c.08-.11.15-.23.22-.34a3.24 3.24 0 0 0 .17-.32v-.06l.15-.37a.49.49 0 0 1 0-.11 1.54 1.54 0 0 1 0-.17l.06-.23a.13.13 0 0 0 0-.11 5.56 5.56 0 0 1 .63-.86l-.07.05c-.23.14-.38.35-.59.5s-.49-.08-.29-.23a3.92 3.92 0 0 0 .36-.33 8.75 8.75 0 0 1 .81-.8c.18-.13.34-.25.48-.37a.23.23 0 0 0 .07-.07 4.48 4.48 0 0 1 .36-.4c1.51-1.47 4.07-1.4 6.07-2.33.79-.32 1.74.15 2.53 0a2.41 2.41 0 0 1 1.43.31c-1.25.55-2.55 1.43-3.85 2.24zm3.24-11c-.15-.16.48 0 .64-.32h-1.28c-.16 0-.16-.16-.16-.32-.79.16-1.74.48-2.53.64-1.11.31-2.06 1.1-3.33 1.42-1.74.64-3.17 2.06-5.07 2.7-.16 0-.16-.16-.16-.32.16-.48.79-.63 1.11-1.11 0-.16 0-.32-.16-.32 1.27-1.74 3-2.69 4.6-4.12v-.47c.47-.64 1.26-.95 1.58-1.75a2.83 2.83 0 0 1 1.59-1.42c-.16-.16-.48-.16-.48-.48-.63 0-1.27.32-1.9-.16a2.29 2.29 0 0 1 1-.56.58.58 0 0 1 -.36-.23c-.16-.32.31-.67.79-.79.64-.16 1.43-.16 1.91-.64-1.11-.15-2.38.32-3.49-.31a8.47 8.47 0 0 1 4-4.76c.16 0 .48 0 .48.16a1.56 1.56 0 0 1 -1.27 1.59 16 16 0 0 1 3.8.95c-.16.31-.47.16-.63.16.79.47 1.74.15 2.53.79-.47.47-1 0-1.42 0 4.91 1.42 10.14 2.53 14.26 5.7a43.33 43.33 0 0 1 -10.93 3.33 3.44 3.44 0 0 1 -1.27-.16c0 .16 0 .48-.16.48a2.57 2.57 0 0 0 -1.58.32 2 2 0 0 1 -2.11-.02z" fill="#000091"/><path d="m230.63 0h-90.22a4.18 4.18 0 0 1 .86.4l2.27 1.21a7.51 7.51 0 0 1 3 2.53c.31.48.79 1.43.47 2.06-.32.8-.47 2.06-1.27 2.38a5.81 5.81 0 0 1 -3.32.32 8 8 0 0 1 -1.91-.32c2.38.95 4.6 2.06 6.18 4.28.16.32.8.48 1.43.48.16 0 .16.31.16.47-.32.32-.63.48-.48.95h.48c.79-.32.63-1.9 1.74-1.42a1.79 1.79 0 0 1 .64 2.37 16.75 16.75 0 0 1 -1.91 1.59 1.43 1.43 0 0 0 0 1.11 4.79 4.79 0 0 1 .8 1.9c.47 1.11.63 2.38 1.11 3.48a22.72 22.72 0 0 1 1.11 7.14c0 1.26-.64 2.37-.16 3.64a13.22 13.22 0 0 0 1.74 3.33 23.85 23.85 0 0 1 1.74 2.53c.95 1.59 2.7 3.17 1.91 5.08-.48 1.11-2.22 1-3.33 1.58-.95.79-.16 2.06.31 2.85.8 1.43-.95 2.38-2.06 2.86.32.47 1 .31 1.11.63.16.79.95 1.27.48 2.06-.64.95-2.54 1.43-1.59 2.85.64 1.11.23 2.34-.15 3.49a3.9 3.9 0 0 1 -2.86 2.38 6.54 6.54 0 0 1 -3 .15 2.31 2.31 0 0 0 -1-.31c-2.69-.32-5.39-1.11-8.08-1.11a9.47 9.47 0 0 0 -2.22.63 14.46 14.46 0 0 0 -1.92 1.7l-.34.38-.21.25s-.09.1-.13.16a15.16 15.16 0 0 0 -1.25 1.83l-.07.12-.12.22a14.67 14.67 0 0 0 -1.2 2.91c-1.08 3.63-.61 6.74.15 7.5.21.21 5.23 1.76 8.73 3.31a30.3 30.3 0 0 1 3.75 1.91h88.59z" fill="#e1000f"/><path d="m145.78 30.59c.63.16 1.58.16 1.58.48-.31 1.27-2.22 1.58-3.17 2.85h-.47c-.48.32-.32 1.11-.8 1.11a2.2 2.2 0 0 0 -1.42.16 2.72 2.72 0 0 0 2.38 1 .72.72 0 0 1 .47.64.5.5 0 0 0 .32-.16c.16 0 .32 0 .32.16v.63c-.48.63-1.27.32-1.91.47a7.05 7.05 0 0 0 3.65 0c1-.31 0-1.9.63-2.69-.31 0 0-.47-.31-.47.31-.32.63-.8.95-1a1.13 1.13 0 0 0 .95-.47c0-.32-.64-.48-.48-.79.95-.64 1.74-1.59 1.43-2.54-.16-.47-1.43-.47-2.22-.79a5.23 5.23 0 0 0 -2.69.16 12.88 12.88 0 0 0 -2.38.63 10.87 10.87 0 0 0 -3 1.59 22.4 22.4 0 0 1 3.48-1 10.61 10.61 0 0 1 2.69.03z" fill="#9d9d9c"/></svg>