<svg fill="none" height="12" viewBox="0 0 19 12" width="19" xmlns="http://www.w3.org/2000/svg"><path d="m9.5 7c1.0938 0 2-.875 2-2 0-1.09375-.9062-2-2-2-.03125 0-.0625.03125-.09375.03125.03125.125.09375.34375.09375.5 0 .8125-.6875 1.5-1.5 1.5-.15625 0-.375-.0625-.5-.09375v.0625c0 1.125.875 2 2 2zm8.875-1.4375c-1.6875-3.3125-5.0625-5.5625-8.875-5.5625-3.84375 0-7.21875 2.25-8.90625 5.5625-.0625.125-.09375.3125-.09375.46875 0 .125.03125.3125.09375.4375 1.6875 3.3125 5.0625 5.53125 8.90625 5.53125 3.8125 0 7.1875-2.21875 8.875-5.53125.0625-.125.0938-.3125.0938-.46875 0-.125-.0313-.3125-.0938-.4375zm-8.875-4.5625c2.1875 0 4 1.8125 4 4 0 2.21875-1.8125 4-4 4-2.21875 0-4-1.78125-4-4 0-2.1875 1.78125-3.96875 4-4zm0 10c-3.375 0-6.4375-1.90625-8-5 .75-1.46875 2.5625-3.28125 4.03125-4.03125-.65625.84375-1.03125 1.90625-1.03125 3.03125 0 2.78125 2.21875 5 5 5 2.75 0 5-2.21875 5-5 0-1.125-.4062-2.1875-1.0625-3.03125 1.4687.75 3.2813 2.5625 4.0625 4.03125-1.5938 3.09375-4.6562 5-8 5z" fill="#161616"/></svg>