<svg fill="none" viewBox="0 0 18 18" xmlns="http://www.w3.org/2000/svg"><path d="m17.5 9.00068c0 4.69402-3.8055 8.49932-8.5 8.49932-4.69451 0-8.5-3.8053-8.5-8.49932 0-4.69411 3.80622-8.50068 8.50068-8.50068 4.69432 0 8.49932 3.80647 8.49932 8.50068z" fill="#999" stroke="#fff"/><path d="m12.0312 8.0625h-.4218v-1.26562c0-1.45899-1.2129-2.67188-2.6719-2.67188-1.47656 0-2.67188 1.21289-2.67188 2.67188v1.26562h-.42187c-.47461 0-.84375.38672-.84375.84375v3.37495c0 .4747.36914.8438.84375.8438h6.18745c.4571 0 .8438-.3691.8438-.8438v-3.37495c0-.45703-.3867-.84375-.8438-.84375zm-1.8281 0h-2.53122v-1.26562c0-.68555.5625-1.26563 1.26562-1.26563.68555 0 1.2656.58008 1.2656 1.26563z" fill="#fff"/></svg>