<svg fill="none" height="10" viewBox="0 0 11 10" width="11" xmlns="http://www.w3.org/2000/svg"><path d="m10.2966 8.84766-8.63278-8.632816c-.13672-.136719-.3125-.214844-.46875-.214844-.351564 0-.683595.292969-.683595.703125v8.613285c0 .39062.292968.68359.683595.68359h8.61328c.62495 0 .91795-.72266.48825-1.15234zm-8.84763.21484v-7.75391l7.75391 7.75391zm1.5625-1.6625c0 .05523.04478.1.1.1h2.08046c.08909 0 .13371-.10771.07071-.17071l-2.08045-2.08045c-.063-.063-.17072-.01838-.17072.07071z" fill="#3558a2"/></svg>